*
*
G04 PADS 9.3 Build Number: 433611 generated Gerber (RS-274-X) file*
G04 PC Version=2.1*
*
%IN "Circuit_Board.pcb"*%
*
%MOIN*%
*
%FSLAX35Y35*%
*
*
*
*
G04 PC Standard Apertures*
*
*
G04 Thermal Relief Aperture macro.*
%AMTER*
1,1,$1,0,0*
1,0,$1-$2,0,0*
21,0,$3,$4,0,0,45*
21,0,$3,$4,0,0,135*
%
*
*
G04 Annular Aperture macro.*
%AMANN*
1,1,$1,0,0*
1,0,$2,0,0*
%
*
*
G04 Odd Aperture macro.*
%AMODD*
1,1,$1,0,0*
1,0,$1-0.005,0,0*
%
*
*
G04 PC Custom Aperture Macros*
*
*
*
*
*
*
G04 PC Aperture Table*
*
%ADD010C,0.001*%
%ADD011R,0.038X0.03*%
%ADD013C,0.03386*%
%ADD015C,0.05512*%
%ADD016C,0.01*%
%ADD017C,0.06*%
%ADD020C,0.17717*%
%ADD021R,0.01772X0.05315*%
%ADD022R,0.05906X0.06102*%
%ADD023C,0.05543*%
%ADD024C,0.07087*%
%ADD025C,0.05906*%
%ADD028C,0.07874*%
%ADD029O,0.07874X0.28937*%
%ADD030R,0.29528X0.25591*%
%ADD031C,0.11024*%
%ADD032R,0.07087X0.30709*%
%ADD033R,0.07874X0.31496*%
%ADD034C,0.012*%
%ADD035C,0.016*%
%ADD038C,0.015*%
%ADD039R,0.05512X0.05512*%
%ADD040R,0.036X0.036*%
%ADD041R,0.036X0.05*%
%ADD042O,0.074X0.024*%
%ADD043R,0.01969X0.05512*%
%ADD044R,0.05709X0.01772*%
%ADD045C,0.006*%
%ADD046C,0.03937*%
*
*
*
*
G04 PC Circuitry*
G04 Layer Name Circuit_Board.pcb - circuitry*
%LPD*%
*
*
G04 PC Custom Flashes*
G04 Layer Name Circuit_Board.pcb - flashes*
%LPD*%
*
*
G04 PC Circuitry*
G04 Layer Name Circuit_Board.pcb - circuitry*
%LPD*%
*
G54D10*
G01X2105852Y1565187D02*
G75*
G03X2105852I-4019J0D01*
G01X2083052Y1590087D02*
G03X2083052I-4019J0D01*
G01X2035509Y1697745D02*
G03X2035509I-5050J0D01*
G01X2030836Y1707587D02*
G03X2030836I-5003J0D01*
G01X2007950Y1697745D02*
G03X2007950I-5050J0D01*
G01X2012529Y1707587D02*
G03X2012529I-5003J0D01*
G01X1878583Y1571419D02*
Y1581445D01*
G03X1878568Y1581481I-50J0*
G01X1866983Y1592966*
X1866683Y1651407*
X1874769Y1659593*
G03X1874783Y1659628I-36J35*
G01Y1682672*
G03X1874733Y1682722I-50J0*
G01X1870274*
X1870241Y1682723D02*
G03X1870274Y1682722I33J2049D01*
G01X1870241Y1682723D02*
G03X1870190Y1682670I-1J-50D01*
G01X1870283Y1681088*
X1870183Y1661970*
X1867471Y1658555*
X1860596Y1651082*
G03X1860583Y1651048I37J-34*
G01X1860583*
X1860883Y1591929*
G03X1860898Y1591893I50J-0*
G01X1873483Y1579408*
Y1571419*
G03X1873533Y1571369I50J0*
G01X1878533*
G03X1878583Y1571419I0J50*
G01X1938970Y1593465D02*
G03X1938928Y1593550I-35J36D01*
G01X1934570Y1595075D02*
G03X1938928Y1593550I3662J3477D01*
G01X1934570Y1595075D02*
G03X1934487Y1595023I-36J-35D01*
G01X1933427Y1589752D02*
G03X1934487Y1595023I-3661J3478D01*
G01X1933427Y1589752D02*
G03X1933472Y1589669I37J-34D01*
G01X1937468Y1588619D02*
G03X1933472Y1589669I-3169J-3932D01*
G01X1937468Y1588619D02*
G03X1937548Y1588669I32J39D01*
G01X1938970Y1593465D02*
G03X1937548Y1588669I3495J-3645D01*
G01X2031556Y1484158D02*
G03X2110105Y1675016I-15809J118099D01*
X2110017Y1674976I-40J-30*
G01X2094525Y1691526D02*
G03X2110017Y1674976I-5767J-20924D01*
G01X2094525Y1691526D02*
G03X2094571Y1691611I13J48D01*
X2004438Y1720872I-78824J-89354*
X2004436I5J-49*
X1944132Y1694336I18397J-123600*
X1944161Y1694248I31J-38*
G01X1921509Y1670259D02*
G03X1944161Y1694248I21580J2312D01*
G01X1921509Y1670259D02*
G03X1921419Y1670282I-50J-6D01*
X1910288Y1651577I101414J-73010*
X1910283Y1651555I45J-22*
G01Y1609487*
X1910234Y1609437D02*
G03X1910283Y1609487I-1J50D01*
G01X1910234Y1609437D02*
X1906822Y1609370D01*
G03X1906773Y1609320I1J-50*
G01Y1601412*
G03X1906849Y1601370I50J0*
G01X1910226Y1603460*
X1913048Y1602796D02*
G03X1910226Y1603460I-1743J-1079D01*
G01X1913048Y1602796D02*
X1913882Y1601448D01*
G03X1913973Y1601488I43J26*
G01X1922522Y1606303D02*
G03X1913973Y1601488I-3686J-3452D01*
G01X1922522Y1606303D02*
G03X1922605Y1606354I36J34D01*
G01X1931024Y1611566D02*
G03X1922605Y1606354I-3686J-3452D01*
G01X1931024Y1611566D02*
G03X1931108Y1611618I37J34D01*
G01X1932942Y1617512D02*
G03X1931108Y1611618I2899J-4135D01*
G01X1932942Y1617512D02*
G03X1932963Y1617553I-29J41D01*
G01Y1617554*
X1932783Y1644368*
X1933618Y1646402D02*
G03X1932783Y1644368I2015J-2015D01*
G01X1933618Y1646402D02*
X1935518Y1648302D01*
X1937533Y1649137D02*
G03X1935518Y1648302I0J-2850D01*
G01X1937533Y1649137D02*
X1947979D01*
G03X1948015Y1649151I0J50*
G01X1953324Y1649441D02*
G03X1948015Y1649151I-2491J-3154D01*
G01X1953324Y1649441D02*
G03X1953355Y1649430I31J39D01*
G01X1984635Y1649341*
G03X1984671Y1649355I0J50*
G01X1986683Y1651368*
G03X1986698Y1651402I-35J35*
G01X1986748Y1655568*
Y1655569*
G03X1986734Y1655604I-50J0*
G01X1993591Y1659082D02*
G03X1986735Y1655604I-3958J-695D01*
G01X1993591Y1659082D02*
G03X1993690Y1659090I49J8D01*
G01X1993690*
X1993688Y1660139*
G03X1993672Y1660176I-50J-0*
G01X1999240Y1665961D02*
G03X1993672Y1660176I-2907J-2774D01*
G01X1999240Y1665961D02*
G03X1999326Y1665996I36J35D01*
G01Y1689989*
X2001376Y1692039D02*
G03X1999326Y1689989I0J-2050D01*
G01X2001376Y1692039D02*
X2030904D01*
X2032954Y1689989D02*
G03X2030904Y1692039I-2050J-0D01*
G01X2032954Y1689989D02*
Y1664398D01*
X2030904Y1662348D02*
G03X2032954Y1664398I-0J2050D01*
G01X2030904Y1662348D02*
X2001376D01*
X2000378Y1662608D02*
G03X2001376Y1662348I998J1790D01*
G01X2000378Y1662608D02*
G03X2000304Y1662572I-24J-44D01*
G01X1999005Y1660186D02*
G03X2000304Y1662572I-2672J3001D01*
G01X1999005Y1660186D02*
G03X1998988Y1660148I33J-38D01*
G01X1998988D02*
X1998988D01*
X1998988D02*
X1999081Y1608407D01*
G03X1999096Y1608372I50J0*
G01X2003216Y1604252*
G03X2003251Y1604237I35J35*
G01X2035890*
G03X2035927Y1604254I-0J50*
G01Y1598920D02*
G03Y1604254I3006J2667D01*
G01Y1598920D02*
G03X2035890Y1598937I-37J-33D01*
G01X2014546*
G03X2014515Y1598848I-0J-50*
G01X2015203Y1593218D02*
G03X2014515Y1598848I-3170J2469D01*
G01X2015203Y1593218D02*
G03X2015243Y1593137I40J-31D01*
G01X2037433*
X2039307Y1592361D02*
G03X2037433Y1593137I-1874J-1874D01*
G01X2039307Y1592361D02*
X2039755Y1591913D01*
G03X2039793Y1591898I35J35*
G01X2036016Y1587788D02*
G03X2039793Y1591898I4017J99D01*
G01X2036016Y1587788D02*
G03X2035966Y1587837I-50J-1D01*
G01X1984485*
G03X1984449Y1587753I-0J-50*
G01X1978618D02*
G03X1984449I2915J-2766D01*
G01X1978618D02*
G03X1978581Y1587837I-37J34D01*
G01X1956233*
X1954359Y1588613D02*
G03X1956233Y1587837I1874J1874D01*
G01X1954359Y1588613D02*
X1947143Y1595830D01*
G03X1947108Y1595844I-36J-36*
G01X1942542Y1595874*
G03X1942499Y1595851I-1J-50*
G01X1941728Y1594907D02*
G03X1942499Y1595851I-3496J3645D01*
G01X1941728Y1594907D02*
G03X1941769Y1594822I34J-36D01*
G01X1939296Y1585888D02*
G03X1941769Y1594822I3169J3932D01*
G01X1939296Y1585888D02*
G03X1939216Y1585838I-31J-39D01*
G01X1931130Y1580755D02*
G03X1939216Y1585838I3169J3932D01*
G01X1931130Y1580755D02*
G03X1931050Y1580705I-32J-39D01*
G01X1922963Y1575622D02*
G03X1931050Y1580705I3170J3932D01*
G01X1922963Y1575622D02*
G03X1922883Y1575572I-31J-39D01*
G01X1922889Y1573293D02*
G03X1922883Y1575572I-4923J1128D01*
G01X1922889Y1573293D02*
G03X1922902Y1573246I48J-12D01*
G01X1926610Y1569555*
G03X1926645Y1569540I35J35*
G01X2041789Y1569837*
G03X2041827Y1569854I0J50*
G01Y1564520D02*
G03Y1569854I3006J2667D01*
G01Y1564520D02*
G03X2041790Y1564537I-37J-33D01*
G01X1925540Y1564237*
X1923663Y1565009D02*
G03X1925540Y1564237I1870J1878D01*
G01X1923663Y1565009D02*
X1919163Y1569490D01*
G03X1919116Y1569503I-36J-35*
G01X1913632Y1577013D02*
G03X1919116Y1569503I4334J-2592D01*
G01X1913632Y1577013D02*
G03X1913563Y1577081I-43J26D01*
G01X1912981Y1576715*
X1910154Y1577360D02*
G03X1912981Y1576715I1736J1091D01*
G01X1910154Y1577360D02*
X1906961Y1582440D01*
X1907606Y1585266D02*
G03X1906961Y1582440I1091J-1736D01*
G01X1907606Y1585266D02*
X1912685Y1588459D01*
X1915512Y1587814D02*
G03X1912686Y1588459I-1736J-1091D01*
G01X1915512Y1587814D02*
X1916356Y1586472D01*
G03X1916446Y1586512I42J27*
G01X1924961Y1591386D02*
G03X1916446Y1586512I-3662J-3477D01*
G01X1924961Y1591386D02*
G03X1925044Y1591438I37J35D01*
G01X1927140Y1597544D02*
G03X1925044Y1591438I2626J-4314D01*
G01X1927140Y1597544D02*
G03X1927114Y1597637I-26J43D01*
G01X1921433*
X1920160Y1597963D02*
G03X1921433Y1597637I1273J2324D01*
G01X1920160Y1597963D02*
G03X1920123Y1597967I-24J-44D01*
G01X1915447Y1599106D02*
G03X1920123Y1597967I3389J3745D01*
G01X1915447Y1599106D02*
G03X1915371Y1599043I-33J-37D01*
G01X1916206Y1597694*
X1915542Y1594872D02*
G03X1916206Y1597694I-1079J1743D01*
G01X1915542Y1594872D02*
X1910440Y1591714D01*
X1907618Y1592378D02*
G03X1910440Y1591714I1743J1079D01*
G01X1907618Y1592378D02*
X1906865Y1593594D01*
G03X1906773Y1593568I-42J-26*
G01Y1592646*
X1905384Y1588812D02*
G03X1906773Y1592646I-4598J3834D01*
G01X1905384Y1588812D02*
G03X1905373Y1588780I39J-32D01*
G01Y1573650*
X1904816Y1573007D02*
G03X1905373Y1573650I-93J643D01*
G01X1904816Y1573007D02*
G03X1904773Y1572957I7J-50D01*
G01Y1571782*
G03X1904823Y1571732I50J-0*
G01X1910628*
X1910678Y1571682D02*
G03X1910628Y1571732I-50J-0D01*
G01X1910678Y1571682D02*
Y1546091D01*
Y1546083D02*
G03Y1546091I-50J8D01*
G01Y1546083D02*
G03X1910683Y1546052I49J-7D01*
X2000344Y1484104I105064J56205*
X2000386Y1484189I6J50*
G01X2031513Y1484242D02*
G03X2000386Y1484189I-15589J15100D01*
G01X2031513Y1484242D02*
G03X2031556Y1484158I36J-34D01*
G01X2119568Y1556812D02*
G03X2111098I-4235J2271D01*
G01X2119568D02*
G03X2119576Y1556754I44J-24D01*
G01X2120139Y1555343D02*
G03X2119576Y1556754I-2050J-0D01*
G01X2120139Y1555343D02*
Y1549831D01*
X2118089Y1547781D02*
G03X2120139Y1549831I-0J2050D01*
G01X2118089Y1547781D02*
X2112577D01*
X2110527Y1549831D02*
G03X2112577Y1547781I2050J0D01*
G01X2110527Y1549831D02*
Y1555343D01*
X2111090Y1556754D02*
G03X2110527Y1555343I1487J-1411D01*
G01X2111090Y1556754D02*
G03X2111098Y1556812I-36J34D01*
G01X2119568Y1584312D02*
G03X2111098I-4235J2271D01*
G01X2119568D02*
G03X2119576Y1584254I44J-24D01*
G01X2120139Y1582843D02*
G03X2119576Y1584254I-2050J-0D01*
G01X2120139Y1582843D02*
Y1577331D01*
X2118089Y1575281D02*
G03X2120139Y1577331I-0J2050D01*
G01X2118089Y1575281D02*
X2112577D01*
X2110527Y1577331D02*
G03X2112577Y1575281I2050J0D01*
G01X2110527Y1577331D02*
Y1582843D01*
X2111090Y1584254D02*
G03X2110527Y1582843I1487J-1411D01*
G01X2111090Y1584254D02*
G03X2111098Y1584312I-36J34D01*
G01X2119568Y1609312D02*
G03X2111098I-4235J2271D01*
G01X2119568D02*
G03X2119576Y1609254I44J-24D01*
G01X2120139Y1607843D02*
G03X2119576Y1609254I-2050J-0D01*
G01X2120139Y1607843D02*
Y1602331D01*
X2118089Y1600281D02*
G03X2120139Y1602331I-0J2050D01*
G01X2118089Y1600281D02*
X2112577D01*
X2110527Y1602331D02*
G03X2112577Y1600281I2050J0D01*
G01X2110527Y1602331D02*
Y1607843D01*
X2111090Y1609254D02*
G03X2110527Y1607843I1487J-1411D01*
G01X2111090Y1609254D02*
G03X2111098Y1609312I-36J34D01*
G01X2105852Y1565187D02*
G03X2105852I-4019J0D01*
G01X2098885Y1572252D02*
G03X2098944Y1577980I2848J2835D01*
G01X2098885Y1572252D02*
G03X2098851Y1572266I-35J-36D01*
G01X2093086Y1572325*
G03X2093051Y1572311I-0J-50*
G01X2092398Y1571686*
G03X2092383Y1571650I35J-36*
G01Y1558488*
G03X2092398Y1558453I50J0*
G01X2092815Y1558036*
G03X2092850Y1558021I35J35*
G01X2096318Y1557975*
G03X2096353Y1557989I0J50*
G01X2101997Y1552269D02*
G03X2096353Y1557989I-2864J2818D01*
G01X2101997Y1552269D02*
G03X2101983Y1552234I36J-35D01*
G01Y1546687*
X2101287Y1544820D02*
G03X2101983Y1546687I-2154J1867D01*
G01X2101287Y1544820D02*
X2099987Y1543320D01*
X2097851Y1542337D02*
G03X2099987Y1543320I-18J2850D01*
G01X2097851Y1542337D02*
X2084433Y1542255D01*
G03X2084383Y1542205I0J-50*
G01Y1541440*
G03X2084399Y1541404I50J0*
G01X2085186Y1540662*
X2086078Y1538750D02*
G03X2085186Y1540662I-2845J-163D01*
G01X2086078Y1538750D02*
X2086116Y1538099D01*
G03X2086132Y1538064I50J2*
G01X2086252Y1537951D02*
G03X2086132Y1538064I-2819J-2864D01*
G01X2086252Y1537951D02*
G03X2086287Y1537937I35J36D01*
G01X2095033*
X2097048Y1537102D02*
G03X2095033Y1537937I-2015J-2015D01*
G01X2097048Y1537102D02*
X2098848Y1535302D01*
X2099683Y1533287D02*
G03X2098848Y1535302I-2850J0D01*
G01X2099683Y1533287D02*
Y1533285D01*
X2099682Y1531480*
X2099682*
G03X2099702Y1531440I50J-0*
G01X2099562Y1523634D02*
G03X2099702Y1531440I-2733J3953D01*
G01X2099562Y1523634D02*
G03X2099541Y1523601I29J-41D01*
G01X2098808Y1522134D02*
G03X2099541Y1523601I-2075J1953D01*
G01X2098808Y1522134D02*
X2097208Y1520434D01*
X2095086Y1519537D02*
G03X2097208Y1520434I47J2850D01*
G01X2095086Y1519537D02*
X2090652Y1519611D01*
G03X2090601Y1519561I-1J-50*
G01X2090601*
X2090683Y1513023*
X2089848Y1510972D02*
G03X2090683Y1513023I-2015J2015D01*
G01X2089848Y1510972D02*
X2087348Y1508472D01*
X2085325Y1507637D02*
G03X2087348Y1508472I8J2850D01*
G01X2085325Y1507637D02*
X2048825Y1507737D01*
X2046818Y1508572D02*
G03X2048825Y1507737I2015J2015D01*
G01X2046818Y1508572D02*
X2044418Y1510972D01*
X2043583Y1512987D02*
G03X2044418Y1510972I2850J0D01*
G01X2043583Y1512987D02*
Y1516399D01*
G03X2043497Y1516434I-50J-0*
G01X2042027Y1515812D02*
G03X2043497Y1516434I-0J2050D01*
G01X2042027Y1515812D02*
X2036318D01*
X2035245Y1516115D02*
G03X2036318Y1515812I1073J1747D01*
G01X2035245Y1516115D02*
G03X2035219Y1516122I-26J-43D01*
G01X2032817Y1516137*
X2030959Y1516913D02*
G03X2032817Y1516137I1874J1874D01*
G01X2030959Y1516913D02*
X2026350Y1521522D01*
G03X2026315Y1521537I-35J-35*
G01X2023733*
X2021859Y1522313D02*
G03X2023733Y1521537I1874J1874D01*
G01X2021859Y1522313D02*
X2020359Y1523813D01*
X2020166Y1524028D02*
G03X2020359Y1523813I2067J1659D01*
G01X2020166Y1524028D02*
G03X2020132Y1524047I-39J-31D01*
G01X2018283Y1526087D02*
G03X2020132Y1524047I2050J0D01*
G01X2018283Y1526087D02*
Y1529087D01*
X2020333Y1531137D02*
G03X2018283Y1529087I0J-2050D01*
G01X2020333Y1531137D02*
X2024133D01*
X2025304Y1530769D02*
G03X2024133Y1531137I-1171J-1682D01*
G01X2025304Y1530769D02*
G03X2025362I29J41D01*
G01X2026533Y1531137D02*
G03X2025362Y1530769I0J-2050D01*
G01X2026533Y1531137D02*
X2030333D01*
X2031970Y1530321D02*
G03X2030333Y1531137I-1637J-1234D01*
G01X2031970Y1530321D02*
G03X2031995Y1530304I40J30D01*
G01X2032017Y1530296D02*
G03X2031995Y1530304I-884J-2709D01*
G01X2032018Y1530296D02*
G03X2032083Y1530344I15J48D01*
G01Y1530469*
G03X2032068Y1530504I-50J-0*
G01X2030859Y1531713*
X2030083Y1533587D02*
G03X2030859Y1531713I2650J0D01*
G01X2030083Y1533587D02*
Y1535887D01*
Y1539769*
G03X2030068Y1539804I-50J-0*
G01X2028655Y1541217*
G03X2028619Y1541232I-35J-35*
G01X2020751Y1541197*
G03X2020707Y1541125I0J-50*
G01X2013543Y1541093D02*
G03X2020707Y1541125I3590J-1806D01*
G01X2013543Y1541093D02*
G03X2013498Y1541165I-45J22D01*
G01X2008357Y1541143*
G03X2008322Y1541128I0J-50*
G01X2007007Y1539813*
X2005133Y1539037D02*
G03X2007007Y1539813I0J2650D01*
G01X2005133Y1539037D02*
X2004224D01*
G03X2004174Y1538992I-0J-50*
G01X2003461Y1537625D02*
G03X2004174Y1538992I-1328J1562D01*
G01X2003461Y1537625D02*
G03X2003493Y1537537I32J-38D01*
G01X2005883*
X2007933Y1535487D02*
G03X2005883Y1537537I-2050J0D01*
G01X2007933Y1535487D02*
Y1531887D01*
X2005883Y1529837D02*
G03X2007933Y1531887I0J2050D01*
G01X2005883Y1529837D02*
X2002283D01*
X2000379Y1531126D02*
G03X2002283Y1529837I1904J761D01*
G01X2000379Y1531126D02*
G03X2000287I-46J-18D01*
G01X1998383Y1529837D02*
G03X2000287Y1531126I0J2050D01*
G01X1998383Y1529837D02*
X1994783D01*
X1992931Y1531008D02*
G03X1994783Y1529837I1852J879D01*
G01X1992931Y1531008D02*
G03X1992886Y1531037I-45J-21D01*
G01X1989433*
X1987559Y1531813D02*
G03X1989433Y1531037I1874J1874D01*
G01X1987559Y1531813D02*
X1986950Y1532422D01*
G03X1986915Y1532437I-35J-35*
G01X1985200*
G03X1985164Y1532352I-0J-50*
G01X1985208Y1527868D02*
G03X1985164Y1532352I-2375J2219D01*
G01X1985208Y1527868D02*
G03X1985245Y1527784I36J-34D01*
G01X1987764Y1527808*
G03X1987802Y1527825I-0J50*
G01X1987852Y1522492D02*
G03X1987802Y1527825I2981J2695D01*
G01X1987852Y1522492D02*
G03X1987815Y1522508I-37J-34D01*
G01X1986026Y1522491*
G03X1985997Y1522401I1J-50*
G01X1986348Y1522102D02*
G03X1985997Y1522401I-2015J-2015D01*
G01X1986348Y1522102D02*
X1987648Y1520802D01*
X1988483Y1518787D02*
G03X1987648Y1520802I-2850J0D01*
G01X1988483Y1518787D02*
Y1513887D01*
X1987648Y1511872D02*
G03X1988483Y1513887I-2015J2015D01*
G01X1987648Y1511872D02*
X1986348Y1510572D01*
X1984333Y1509737D02*
G03X1986348Y1510572I0J2850D01*
G01X1984333Y1509737D02*
X1978412D01*
G03X1978362Y1509690I0J-50*
G01X1978185Y1508986D02*
G03X1978362Y1509690I-1868J845D01*
G01X1978185Y1508986D02*
G03X1978181Y1508967I46J-21D01*
G01X1977451Y1507180D02*
G03X1978181Y1508967I-2118J1907D01*
G01X1977451Y1507180D02*
X1976551Y1506180D01*
X1974433Y1505237D02*
G03X1976551Y1506180I0J2850D01*
G01X1974433Y1505237D02*
X1972033D01*
X1972017D02*
G03X1972033I16J2850D01*
G01X1972017D02*
X1954717Y1505337D01*
X1952718Y1506172D02*
G03X1954717Y1505337I2015J2015D01*
G01X1952718Y1506172D02*
X1948618Y1510272D01*
X1947783Y1512262D02*
G03X1948618Y1510272I2850J25D01*
G01X1947783Y1512262D02*
X1947693Y1522576D01*
G03X1947679Y1522611I-50J-1*
G01X1947067Y1523223*
G03X1947031Y1523238I-36J-35*
G01X1944226Y1523239*
G03X1944186Y1523219I0J-50*
G01X1936478Y1523221D02*
G03X1944186Y1523219I3855J2870D01*
G01X1936478Y1523221D02*
G03X1936438Y1523241I-40J-30D01*
G01X1930929*
X1928914Y1524076D02*
G03X1930929Y1523241I2015J2015D01*
G01X1928914Y1524076D02*
X1927818Y1525172D01*
X1926983Y1527187D02*
G03X1927818Y1525172I2850J0D01*
G01X1926983Y1527187D02*
Y1546586D01*
G03X1926968Y1546621I-50J-0*
G01X1926367Y1547222*
G03X1926332Y1547237I-35J-35*
G01X1922087*
G03X1922052Y1547223I-0J-50*
G01Y1552951D02*
G03Y1547223I-2819J-2864D01*
G01Y1552951D02*
G03X1922087Y1552937I35J36D01*
G01X1927533*
X1929548Y1552102D02*
G03X1927533Y1552937I-2015J-2015D01*
G01X1929548Y1552102D02*
X1931848Y1549802D01*
X1932683Y1547787D02*
G03X1931848Y1549802I-2850J0D01*
G01X1932683Y1547787D02*
Y1528991D01*
G03X1932733Y1528941I50J0*
G01X1935652*
G03X1935698Y1529011I0J50*
G01X1935527Y1529831D02*
G03X1935698Y1529011I2050J0D01*
G01X1935527Y1529831D02*
Y1535343D01*
X1937577Y1537393D02*
G03X1935527Y1535343I0J-2050D01*
G01X1937577Y1537393D02*
X1943089D01*
X1945139Y1535343D02*
G03X1943089Y1537393I-2050J-0D01*
G01X1945139Y1535343D02*
Y1535287D01*
G03X1945189Y1535237I50J0*
G01X1949415*
G03X1949450Y1535252I-0J50*
G01X1951159Y1536961*
X1953033Y1537737D02*
G03X1951159Y1536961I0J-2650D01*
G01X1953033Y1537737D02*
X1955936D01*
G03X1955964Y1537746I-0J50*
G01X1957679Y1538333D02*
G03X1955964Y1537746I154J-3246D01*
G01X1957679Y1538333D02*
G03X1957726Y1538383I-3J50D01*
G01X1957783Y1542722*
X1958559Y1544561D02*
G03X1957783Y1542722I1874J-1874D01*
G01X1958559Y1544561D02*
X1960959Y1546961D01*
X1962833Y1547737D02*
G03X1960959Y1546961I0J-2650D01*
G01X1962833Y1547737D02*
X1963610D01*
G03X1963651Y1547759I-0J50*
G01X1965333Y1548637D02*
G03X1963651Y1547759I0J-2050D01*
G01X1965333Y1548637D02*
X1969133D01*
X1970304Y1548269D02*
G03X1969133Y1548637I-1171J-1682D01*
G01X1970304Y1548269D02*
G03X1970362I29J41D01*
G01X1971533Y1548637D02*
G03X1970362Y1548269I0J-2050D01*
G01X1971533Y1548637D02*
X1975333D01*
X1977383Y1546587D02*
G03X1975333Y1548637I-2050J0D01*
G01X1977383Y1546587D02*
Y1543587D01*
X1976087Y1541681D02*
G03X1977383Y1543587I-754J1906D01*
G01X1976087Y1541681D02*
G03X1976055Y1541635I18J-47D01*
G01X1976025Y1537880*
X1976025*
G03X1976101Y1537837I50J-0*
G01X1977833Y1538337D02*
G03X1976101Y1537837I0J-3250D01*
G01X1977833Y1538337D02*
X1982833D01*
X1984702Y1537746D02*
G03X1982833Y1538337I-1869J-2659D01*
G01X1984702Y1537746D02*
G03X1984730Y1537737I28J41D01*
G01X1988033*
X1989907Y1536961D02*
G03X1988033Y1537737I-1874J-1874D01*
G01X1989907Y1536961D02*
X1990516Y1536352D01*
G03X1990551Y1536337I35J35*
G01X1992886*
G03X1992931Y1536366I-0J50*
G01X1994783Y1537537D02*
G03X1992931Y1536366I0J-2050D01*
G01X1994783Y1537537D02*
X1997173D01*
G03X1997205Y1537625I-0J50*
G01X1996483Y1539187D02*
G03X1997205Y1537625I2050J0D01*
G01X1996483Y1539187D02*
Y1544187D01*
X1998533Y1546237D02*
G03X1996483Y1544187I0J-2050D01*
G01X1998533Y1546237D02*
X2002133D01*
X2004149Y1544561D02*
G03X2002133Y1546237I-2016J-374D01*
G01X2004149Y1544561D02*
G03X2004233Y1544535I49J9D01*
G01X2005360Y1545662*
X2007222Y1546438D02*
G03X2005360Y1545662I12J-2650D01*
G01X2007222Y1546438D02*
X2014252Y1546469D01*
G03X2014288Y1546553I-1J50*
G01X2020202Y1546579D02*
G03X2014288Y1546553I-2969J2708D01*
G01X2020202Y1546579D02*
G03X2020239Y1546495I37J-34D01*
G01X2029721Y1546537*
X2030027Y1546521D02*
G03X2029721Y1546537I-294J-2634D01*
G01X2030027Y1546521D02*
G03X2030083Y1546570I6J49D01*
G01Y1549287*
X2030739Y1551032D02*
G03X2030083Y1549287I1994J-1745D01*
G01X2030739Y1551032D02*
X2031439Y1551832D01*
X2033433Y1552737D02*
G03X2031439Y1551832I0J-2650D01*
G01X2033433Y1552737D02*
X2033436D01*
G03X2033464Y1552746I-0J50*
G01X2035333Y1553337D02*
G03X2033464Y1552746I0J-3250D01*
G01X2035333Y1553337D02*
X2040333D01*
X2042454Y1547625D02*
G03X2040333Y1553337I-2121J2462D01*
G01X2042455Y1547625D02*
G03Y1547549I32J-38D01*
G01X2042454Y1542625D02*
G03Y1547549I-2121J2462D01*
G01X2042455Y1542625D02*
G03Y1542549I32J-38D01*
G01X2042454Y1537625D02*
G03Y1542549I-2121J2462D01*
G01X2042455Y1537625D02*
G03Y1537549I32J-38D01*
G01X2043274Y1536470D02*
G03X2042454Y1537549I-2941J-1383D01*
G01X2043274Y1536470D02*
G03X2043355Y1536456I45J22D01*
G01X2043859Y1536961*
X2045733Y1537737D02*
G03X2043859Y1536961I0J-2650D01*
G01X2045733Y1537737D02*
X2052967D01*
G03X2053002Y1537822I-0J50*
G01X2053212Y1542549D02*
G03X2053002Y1537822I2121J-2462D01*
G01X2053212Y1542549D02*
G03Y1542625I-33J38D01*
G01Y1547549D02*
G03Y1542625I2121J-2462D01*
G01Y1547549D02*
G03Y1547625I-33J38D01*
G01X2055333Y1553337D02*
G03X2053212Y1547625I0J-3250D01*
G01X2055333Y1553337D02*
X2060333D01*
X2061886Y1552942D02*
G03X2060333Y1553337I-1553J-2855D01*
G01X2061886Y1552942D02*
G03X2061908Y1552936I24J44D01*
G01X2063848Y1552102D02*
G03X2061908Y1552936I-2015J-2015D01*
G01X2063848Y1552102D02*
X2064748Y1551202D01*
X2065583Y1549187D02*
G03X2064748Y1551202I-2850J0D01*
G01X2065583Y1549187D02*
Y1545487D01*
Y1541481*
G03X2065607Y1541438I50J-0*
G01X2066140Y1541106*
X2067483Y1538687D02*
G03X2066140Y1541106I-2850J0D01*
G01X2067483Y1538687D02*
Y1532287D01*
X2067010Y1530715D02*
G03X2067483Y1532287I-2377J1572D01*
G01X2067010Y1530715D02*
G03X2067052Y1530637I42J-28D01*
G01X2068733*
X2070607Y1529861D02*
G03X2068733Y1530637I-1874J-1874D01*
G01X2070607Y1529861D02*
X2071607Y1528861D01*
X2071800Y1528646D02*
G03X2071607Y1528861I-2067J-1659D01*
G01X2071800Y1528646D02*
G03X2071834Y1528627I39J31D01*
G01X2072804Y1528269D02*
G03X2071834Y1528627I-1171J-1682D01*
G01X2072804Y1528269D02*
G03X2072862I29J41D01*
G01X2074033Y1528637D02*
G03X2072862Y1528269I0J-2050D01*
G01X2074033Y1528637D02*
X2077833D01*
X2079361Y1527954D02*
G03X2077833Y1528637I-1528J-1367D01*
G01X2079361Y1527954D02*
G03X2079398Y1527937I37J33D01*
G01X2082032*
G03X2082067Y1527952I-0J50*
G01X2083718Y1529602*
X2085486Y1530426D02*
G03X2083718Y1529602I247J-2839D01*
G01X2085486Y1530426D02*
G03X2085531Y1530473I-5J50D01*
G01X2086596Y1532143D02*
G03X2085531Y1530473I981J-1800D01*
G01X2086596Y1532143D02*
G03X2086572Y1532237I-24J44D01*
G01X2086287*
G03X2086252Y1532223I-0J-50*
G01X2080197Y1537470D02*
G03X2086252Y1532223I3236J-2383D01*
G01X2080197Y1537470D02*
G03X2080191Y1537536I-40J30D01*
G01X2079580Y1538112*
X2078683Y1540187D02*
G03X2079580Y1538112I2850J0D01*
G01X2078683Y1540187D02*
Y1542234D01*
G03X2078669Y1542269I-50J-0*
G01X2084334Y1547969D02*
G03X2078669Y1542269I-2801J-2882D01*
G01X2084334Y1547969D02*
G03X2084369Y1547955I35J36D01*
G01X2089909Y1547989*
G03X2089953Y1548061I-0J50*
G01X2090486Y1552507D02*
G03X2089953Y1548061I3047J-2620D01*
G01X2090486Y1552507D02*
G03X2090469Y1552586I-38J33D01*
G01X2089618Y1553172D02*
G03X2090469Y1552586I2015J2015D01*
G01X2089618Y1553172D02*
X2087518Y1555272D01*
X2086683Y1557287D02*
G03X2087518Y1555272I2850J0D01*
G01X2086683Y1557287D02*
Y1572887D01*
X2087561Y1574945D02*
G03X2086683Y1572887I1972J-2058D01*
G01X2087561Y1574945D02*
X2089961Y1577245D01*
X2091962Y1578037D02*
G03X2089961Y1577245I-29J-2850D01*
G01X2091962Y1578037D02*
X2098909Y1577966D01*
G03X2098944Y1577980I0J50*
G01X2104188Y1633659D02*
G03X2098460Y1633678I-2855J2828D01*
G01X2104188Y1633659D02*
G03X2104174Y1633624I36J-35D01*
G01X2104092Y1607832*
Y1607831*
G03X2104106Y1607796I50J0*
G01X2098378Y1607815D02*
G03X2104106Y1607796I2855J-2828D01*
G01X2098378Y1607815D02*
G03X2098392Y1607850I-36J35D01*
G01X2098474Y1633643*
X2098474*
G03X2098460Y1633678I-50J-0*
G01X2078262Y1580118D02*
G03X2072404I-2929J2331D01*
G01X2078262D02*
G03Y1580056I39J-31D01*
G01X2072404D02*
G03X2078262I2929J-2331D01*
G01X2072404D02*
G03Y1580118I-39J31D01*
G01X2083052Y1590087D02*
G03X2083052I-4019J0D01*
G01X2035509Y1697745D02*
G03X2035509I-5050J0D01*
G01X2030836Y1707587D02*
G03X2030836I-5003J0D01*
G01X2007950Y1697745D02*
G03X2007950I-5050J0D01*
G01X2012529Y1707587D02*
G03X2012529I-5003J0D01*
G01X1871437Y1581438D02*
X1878583D01*
X1872445Y1580438D02*
X1878583D01*
X1873453Y1579438D02*
X1878583D01*
X1873483Y1578438D02*
X1878583D01*
X1873483Y1577438D02*
X1878583D01*
X1873483Y1576438D02*
X1878583D01*
X1873483Y1575438D02*
X1878583D01*
X1873483Y1574438D02*
X1878583D01*
X1873483Y1573438D02*
X1878583D01*
X1873483Y1572438D02*
X1878583D01*
X1873483Y1571438D02*
X1878583D01*
X1870429Y1582438D02*
X1877603D01*
X1869421Y1583438D02*
X1876594D01*
X1868413Y1584438D02*
X1875586D01*
X1870204Y1682438D02*
X1874783D01*
X1870262Y1681438D02*
X1874783D01*
X1870280Y1680438D02*
X1874783D01*
X1870274Y1679438D02*
X1874783D01*
X1870269Y1678438D02*
X1874783D01*
X1870264Y1677438D02*
X1874783D01*
X1870259Y1676438D02*
X1874783D01*
X1870253Y1675438D02*
X1874783D01*
X1870248Y1674438D02*
X1874783D01*
X1870243Y1673438D02*
X1874783D01*
X1870238Y1672438D02*
X1874783D01*
X1870233Y1671438D02*
X1874783D01*
X1870227Y1670438D02*
X1874783D01*
X1870222Y1669438D02*
X1874783D01*
X1870217Y1668438D02*
X1874783D01*
X1870212Y1667438D02*
X1874783D01*
X1870206Y1666438D02*
X1874783D01*
X1870201Y1665438D02*
X1874783D01*
X1870196Y1664438D02*
X1874783D01*
X1870191Y1663438D02*
X1874783D01*
X1870185Y1662438D02*
X1874783D01*
X1869761Y1661438D02*
X1874783D01*
X1868967Y1660438D02*
X1874783D01*
X1868172Y1659438D02*
X1874615D01*
X1867405Y1585438D02*
X1874577D01*
X1867364Y1658438D02*
X1873627D01*
X1866397Y1586438D02*
X1873568D01*
X1866444Y1657438D02*
X1872640D01*
X1865389Y1587438D02*
X1872560D01*
X1865524Y1656438D02*
X1871652D01*
X1864381Y1588438D02*
X1871551D01*
X1864604Y1655438D02*
X1870664D01*
X1863373Y1589438D02*
X1870542D01*
X1863684Y1654438D02*
X1869676D01*
X1862365Y1590438D02*
X1869534D01*
X1862764Y1653438D02*
X1868688D01*
X1861357Y1591438D02*
X1868525D01*
X1861844Y1652438D02*
X1867701D01*
X1860880Y1592438D02*
X1867516D01*
X1860875Y1593438D02*
X1866981D01*
X1860870Y1594438D02*
X1866976D01*
X1860865Y1595438D02*
X1866970D01*
X1860860Y1596438D02*
X1866965D01*
X1860855Y1597438D02*
X1866960D01*
X1860850Y1598438D02*
X1866955D01*
X1860845Y1599438D02*
X1866950D01*
X1860840Y1600438D02*
X1866945D01*
X1860835Y1601438D02*
X1866940D01*
X1860830Y1602438D02*
X1866934D01*
X1860825Y1603438D02*
X1866929D01*
X1860819Y1604438D02*
X1866924D01*
X1860814Y1605438D02*
X1866919D01*
X1860809Y1606438D02*
X1866914D01*
X1860804Y1607438D02*
X1866909D01*
X1860799Y1608438D02*
X1866904D01*
X1860794Y1609438D02*
X1866899D01*
X1860789Y1610438D02*
X1866893D01*
X1860784Y1611438D02*
X1866888D01*
X1860779Y1612438D02*
X1866883D01*
X1860774Y1613438D02*
X1866878D01*
X1860769Y1614438D02*
X1866873D01*
X1860764Y1615438D02*
X1866868D01*
X1860759Y1616438D02*
X1866863D01*
X1860754Y1617438D02*
X1866857D01*
X1860748Y1618438D02*
X1866852D01*
X1860743Y1619438D02*
X1866847D01*
X1860738Y1620438D02*
X1866842D01*
X1860733Y1621438D02*
X1866837D01*
X1860728Y1622438D02*
X1866832D01*
X1860723Y1623438D02*
X1866827D01*
X1860718Y1624438D02*
X1866821D01*
X1860713Y1625438D02*
X1866816D01*
X1860708Y1626438D02*
X1866811D01*
X1860703Y1627438D02*
X1866806D01*
X1860698Y1628438D02*
X1866801D01*
X1860693Y1629438D02*
X1866796D01*
X1860688Y1630438D02*
X1866791D01*
X1860683Y1631438D02*
X1866786D01*
X1860678Y1632438D02*
X1866780D01*
X1860672Y1633438D02*
X1866775D01*
X1860667Y1634438D02*
X1866770D01*
X1860662Y1635438D02*
X1866765D01*
X1860657Y1636438D02*
X1866760D01*
X1860652Y1637438D02*
X1866755D01*
X1860647Y1638438D02*
X1866750D01*
X1860642Y1639438D02*
X1866744D01*
X1860637Y1640438D02*
X1866739D01*
X1860632Y1641438D02*
X1866734D01*
X1860627Y1642438D02*
X1866729D01*
X1860622Y1643438D02*
X1866724D01*
X1860617Y1644438D02*
X1866719D01*
X1860612Y1645438D02*
X1866714D01*
X1860924Y1651438D02*
X1866713D01*
X1860607Y1646438D02*
X1866708D01*
X1860602Y1647438D02*
X1866703D01*
X1860596Y1648438D02*
X1866698D01*
X1860591Y1649438D02*
X1866693D01*
X1860586Y1650438D02*
X1866688D01*
X2120139Y1602309D02*
X2134899D01*
X2119866Y1601309D02*
X2134896D01*
X2120139Y1603309D02*
X2134895D01*
X2118427Y1600309D02*
X2134884D01*
X2120139Y1604309D02*
X2134882D01*
X2042244Y1599309D02*
X2134863D01*
X2120139Y1605309D02*
X2134860D01*
X2041258Y1598309D02*
X2134834D01*
X2120139Y1606309D02*
X2134831D01*
X2015710Y1597309D02*
X2134797D01*
X2120139Y1607309D02*
X2134792D01*
X2016003Y1596309D02*
X2134751D01*
X2120085Y1608309D02*
X2134746D01*
X2016034Y1595309D02*
X2134697D01*
X2119567Y1609309D02*
X2134691D01*
X2015808Y1594309D02*
X2134634D01*
X2119967Y1610309D02*
X2134627D01*
X2081434Y1593309D02*
X2134563D01*
X2120131Y1611309D02*
X2134555D01*
X2082381Y1592309D02*
X2134483D01*
X2120084Y1612309D02*
X2134475D01*
X2116206Y1591309D02*
X2134395D01*
X2119818Y1613309D02*
X2134386D01*
X2118368Y1590309D02*
X2134299D01*
X2119291Y1614309D02*
X2134288D01*
X2119291Y1589309D02*
X2134194D01*
X2118368Y1615309D02*
X2134182D01*
X2119818Y1588309D02*
X2134080D01*
X2116206Y1616309D02*
X2134068D01*
X2120084Y1587309D02*
X2133958D01*
X2104122Y1617309D02*
X2133945D01*
X2120131Y1586309D02*
X2133827D01*
X2104125Y1618309D02*
X2133813D01*
X2119967Y1585309D02*
X2133688D01*
X2104129Y1619309D02*
X2133673D01*
X2119567Y1584309D02*
X2133540D01*
X2104132Y1620309D02*
X2133524D01*
X2120085Y1583309D02*
X2133383D01*
X2104135Y1621309D02*
X2133366D01*
X2120139Y1582309D02*
X2133218D01*
X2104138Y1622309D02*
X2133200D01*
X2120139Y1581309D02*
X2133044D01*
X2104141Y1623309D02*
X2133025D01*
X2120139Y1580309D02*
X2132861D01*
X2104144Y1624309D02*
X2132841D01*
X2120139Y1579309D02*
X2132669D01*
X2104148Y1625309D02*
X2132648D01*
X2120139Y1578309D02*
X2132468D01*
X2104151Y1626309D02*
X2132447D01*
X2120139Y1577309D02*
X2132258D01*
X2104154Y1627309D02*
X2132236D01*
X2119866Y1576309D02*
X2132040D01*
X2104157Y1628309D02*
X2132017D01*
X2118427Y1575309D02*
X2131812D01*
X2104160Y1629309D02*
X2131788D01*
X2105676Y1574309D02*
X2131575D01*
X2104163Y1630309D02*
X2131550D01*
X2105337Y1573309D02*
X2131329D01*
X2104167Y1631309D02*
X2131303D01*
X2104637Y1572309D02*
X2131074D01*
X2104170Y1632309D02*
X2131047D01*
X2103103Y1571309D02*
X2130810D01*
X2104173Y1633309D02*
X2130782D01*
X2092383Y1570309D02*
X2130536D01*
X2104710Y1634309D02*
X2130508D01*
X2092383Y1569309D02*
X2130253D01*
X2105175Y1635309D02*
X2130224D01*
X2104363Y1568309D02*
X2129961D01*
X2105348Y1636309D02*
X2129930D01*
X2105246Y1567309D02*
X2129659D01*
X2105267Y1637309D02*
X2129627D01*
X2105692Y1566309D02*
X2129347D01*
X2104915Y1638309D02*
X2129315D01*
X2105850Y1565309D02*
X2129026D01*
X2104194Y1639309D02*
X2128992D01*
X2105754Y1564309D02*
X2128695D01*
X2102574Y1640309D02*
X2128660D01*
X2117622Y1563309D02*
X2128354D01*
X1999022Y1641309D02*
X2128318D01*
X2118895Y1562309D02*
X2128003D01*
X1999020Y1642309D02*
X2127966D01*
X2119592Y1561309D02*
X2127642D01*
X1999019Y1643309D02*
X2127604D01*
X2119980Y1560309D02*
X2127271D01*
X1999017Y1644309D02*
X2127232D01*
X2120134Y1559309D02*
X2126890D01*
X1999015Y1645309D02*
X2126850D01*
X2120076Y1558309D02*
X2126498D01*
X1999013Y1646309D02*
X2126457D01*
X2119800Y1557309D02*
X2126096D01*
X1999011Y1647309D02*
X2126054D01*
X2119897Y1556309D02*
X2125684D01*
X1999010Y1648309D02*
X2125640D01*
X2120139Y1555309D02*
X2125260D01*
X2092960Y1649309D02*
X2125216D01*
X2120139Y1554309D02*
X2124826D01*
X2096455Y1650309D02*
X2124781D01*
X2120139Y1553309D02*
X2124381D01*
X2098700Y1651309D02*
X2124334D01*
X2120139Y1552309D02*
X2123925D01*
X2100438Y1652309D02*
X2123877D01*
X2120139Y1551309D02*
X2123458D01*
X2101873Y1653309D02*
X2123409D01*
X2120139Y1550309D02*
X2122979D01*
X2103097Y1654309D02*
X2122929D01*
X2120071Y1549309D02*
X2122489D01*
X2104159Y1655309D02*
X2122437D01*
X2119462Y1548309D02*
X2121987D01*
X2105091Y1656309D02*
X2121934D01*
X2101983Y1547309D02*
X2121473D01*
X2105915Y1657309D02*
X2121419D01*
X2101958Y1546309D02*
X2120947D01*
X2106645Y1658309D02*
X2120892D01*
X2101628Y1545309D02*
X2120409D01*
X2107292Y1659309D02*
X2120353D01*
X2100844Y1544309D02*
X2119859D01*
X2107866Y1660309D02*
X2119801D01*
X2099977Y1543309D02*
X2119296D01*
X2108372Y1661309D02*
X2119237D01*
X2093298Y1542309D02*
X2118720D01*
X2108815Y1662309D02*
X2118660D01*
X2084499Y1541309D02*
X2118132D01*
X2109200Y1663309D02*
X2118070D01*
X2085504Y1540309D02*
X2117530D01*
X2109529Y1664309D02*
X2117467D01*
X2085990Y1539309D02*
X2116914D01*
X2109807Y1665309D02*
X2116850D01*
X2086104Y1538309D02*
X2116285D01*
X2110033Y1666309D02*
X2116219D01*
X2096818Y1537309D02*
X2115642D01*
X2110211Y1667309D02*
X2115575D01*
X2097841Y1536309D02*
X2114985D01*
X2110340Y1668309D02*
X2114916D01*
X2104119Y1616309D02*
X2114460D01*
X2082861Y1591309D02*
X2114460D01*
X2098841Y1535309D02*
X2114313D01*
X2110423Y1669309D02*
X2114243D01*
X2099493Y1534309D02*
X2113626D01*
X2110460Y1670309D02*
X2113554D01*
X2105386Y1563309D02*
X2113044D01*
X2099683Y1533309D02*
X2112924D01*
X2110450Y1671309D02*
X2112851D01*
X2104116Y1615309D02*
X2112298D01*
X2083045Y1590309D02*
X2112298D01*
X2042743Y1600309D02*
X2112239D01*
X2105745Y1575309D02*
X2112239D01*
X2099682Y1532309D02*
X2112207D01*
X2110395Y1672309D02*
X2112132D01*
X2104638Y1562309D02*
X2111771D01*
X2099869Y1531309D02*
X2111474D01*
X2110292Y1673309D02*
X2111397D01*
X2104113Y1614309D02*
X2111375D01*
X2082976Y1589309D02*
X2111375D01*
X2101983Y1548309D02*
X2111204D01*
X2104097Y1609309D02*
X2111099D01*
X2078581Y1584309D02*
X2111099D01*
X2102887Y1561309D02*
X2111074D01*
X2102481Y1557309D02*
X2110866D01*
X2104109Y1613309D02*
X2110848D01*
X2082637Y1588309D02*
X2110848D01*
X2102852Y1601309D02*
X2110800D01*
X2105561Y1576309D02*
X2110800D01*
X2102961Y1556309D02*
X2110769D01*
X2100790Y1530309D02*
X2110725D01*
X2104100Y1610309D02*
X2110699D01*
X2077748Y1585309D02*
X2110699D01*
X2092383Y1560309D02*
X2110686D01*
X2110143Y1674309D02*
X2110646D01*
X2101983Y1549309D02*
X2110595D01*
X2101534Y1558309D02*
X2110590D01*
X2104106Y1612309D02*
X2110582D01*
X2081937Y1587309D02*
X2110582D01*
X2104094Y1608309D02*
X2110581D01*
X2078976Y1583309D02*
X2110581D01*
X2104103Y1611309D02*
X2110535D01*
X2080403Y1586309D02*
X2110535D01*
X2092383Y1559309D02*
X2110532D01*
X2104229Y1602309D02*
X2110527D01*
X2105081Y1577309D02*
X2110527D01*
X2104513Y1607309D02*
X2110527D01*
X2105028Y1606309D02*
X2110527D01*
X2105239Y1605309D02*
X2110527D01*
X2105194Y1604309D02*
X2110527D01*
X2104885Y1603309D02*
X2110527D01*
X2079073Y1582309D02*
X2110527D01*
X2078898Y1581309D02*
X2110527D01*
X2078404Y1580309D02*
X2110527D01*
X2078724Y1579309D02*
X2110527D01*
X2104134Y1578309D02*
X2110527D01*
X2103145Y1555309D02*
X2110527D01*
X2103076Y1554309D02*
X2110527D01*
X2102737Y1553309D02*
X2110527D01*
X2102037Y1552309D02*
X2110527D01*
X2101983Y1551309D02*
X2110527D01*
X2101983Y1550309D02*
X2110527D01*
X2101316Y1529309D02*
X2109959D01*
X2101580Y1528309D02*
X2109176D01*
X2101627Y1527309D02*
X2108376D01*
X2101462Y1526309D02*
X2107558D01*
X2101061Y1525309D02*
X2106721D01*
X2100344Y1524309D02*
X2105866D01*
X2099475Y1523309D02*
X2104991D01*
X2098961Y1522309D02*
X2104096D01*
X2098032Y1521309D02*
X2103181D01*
X2097084Y1520309D02*
X2102244D01*
X2090604Y1519309D02*
X2101286D01*
X2092383Y1561309D02*
X2100779D01*
X2092383Y1571309D02*
X2100363D01*
X2090617Y1518309D02*
X2100305D01*
X1999024Y1640309D02*
X2100092D01*
X2042942Y1601309D02*
X2099614D01*
X2079030Y1578309D02*
X2099332D01*
X2092383Y1568309D02*
X2099303D01*
X2090629Y1517309D02*
X2099300D01*
X2092383Y1562309D02*
X2099028D01*
X1999037Y1633309D02*
X2098473D01*
X1999026Y1639309D02*
X2098472D01*
X1999038Y1632309D02*
X2098470D01*
X1999040Y1631309D02*
X2098467D01*
X1999042Y1630309D02*
X2098463D01*
X1999044Y1629309D02*
X2098460D01*
X1999045Y1628309D02*
X2098457D01*
X1999047Y1627309D02*
X2098454D01*
X1999049Y1626309D02*
X2098451D01*
X1999051Y1625309D02*
X2098448D01*
X1999053Y1624309D02*
X2098444D01*
X1999054Y1623309D02*
X2098441D01*
X1999056Y1622309D02*
X2098438D01*
X1999058Y1621309D02*
X2098435D01*
X1999060Y1620309D02*
X2098432D01*
X1999062Y1619309D02*
X2098428D01*
X1999063Y1618309D02*
X2098425D01*
X1999065Y1617309D02*
X2098422D01*
X2092383Y1567309D02*
X2098421D01*
X1999067Y1616309D02*
X2098419D01*
X1999069Y1615309D02*
X2098416D01*
X1999071Y1614309D02*
X2098413D01*
X1999072Y1613309D02*
X2098409D01*
X1999074Y1612309D02*
X2098406D01*
X1999076Y1611309D02*
X2098403D01*
X1999078Y1610309D02*
X2098400D01*
X1999079Y1609309D02*
X2098397D01*
X1999159Y1608309D02*
X2098394D01*
X2092383Y1563309D02*
X2098280D01*
X2090642Y1516309D02*
X2098271D01*
X2042886Y1602309D02*
X2098237D01*
X2092383Y1566309D02*
X2097974D01*
X1999035Y1634309D02*
X2097956D01*
X2000159Y1607309D02*
X2097953D01*
X2092383Y1564309D02*
X2097912D01*
X2092383Y1565309D02*
X2097816D01*
X1999028Y1638309D02*
X2097751D01*
X2042564Y1603309D02*
X2097582D01*
X1999033Y1635309D02*
X2097491D01*
X2001159Y1606309D02*
X2097438D01*
X1999029Y1637309D02*
X2097400D01*
X1999031Y1636309D02*
X2097318D01*
X2041889Y1604309D02*
X2097272D01*
X2040448Y1605309D02*
X2097227D01*
X2090654Y1515309D02*
X2097217D01*
X2092541Y1558309D02*
X2096732D01*
X2090667Y1514309D02*
X2096136D01*
X2090679Y1513309D02*
X2095028D01*
X2093049Y1572309D02*
X2094650D01*
X2090601Y1512309D02*
X2093892D01*
X1952113Y1692309D02*
X2093773D01*
X2090137Y1511309D02*
X2092726D01*
X2032874Y1693309D02*
X2092603D01*
X2089186Y1510309D02*
X2091529D01*
X2034160Y1694309D02*
X2091403D01*
X2063618Y1552309D02*
X2090326D01*
X2088186Y1509309D02*
X2090299D01*
X2034883Y1695309D02*
X2090169D01*
X2079053Y1577309D02*
X2090031D01*
X2083934Y1548309D02*
X2089837D01*
X2064641Y1551309D02*
X2089775D01*
X2065580Y1549309D02*
X2089556D01*
X2065353Y1550309D02*
X2089537D01*
X2060758Y1553309D02*
X2089480D01*
X2087171Y1508309D02*
X2089035D01*
X2078798Y1576309D02*
X2088985D01*
X2035301Y1696309D02*
X2088902D01*
X1910678Y1554309D02*
X2088480D01*
X2078192Y1575309D02*
X2087941D01*
X2036112Y1507309D02*
X2087734D01*
X2035490Y1697309D02*
X2087598D01*
X1910678Y1555309D02*
X2087481D01*
X2076863Y1574309D02*
X2087063D01*
X1910678Y1556309D02*
X2086856D01*
X1922892Y1573309D02*
X2086714D01*
X1923843Y1572309D02*
X2086683D01*
X1924847Y1571309D02*
X2086683D01*
X2047363Y1570309D02*
X2086683D01*
X2048246Y1569309D02*
X2086683D01*
X2048692Y1568309D02*
X2086683D01*
X2048850Y1567309D02*
X2086683D01*
X2048754Y1566309D02*
X2086683D01*
X2048386Y1565309D02*
X2086683D01*
X2047638Y1564309D02*
X2086683D01*
X2045887Y1563309D02*
X2086683D01*
X1910678Y1562309D02*
X2086683D01*
X1910678Y1561309D02*
X2086683D01*
X1910678Y1560309D02*
X2086683D01*
X1910678Y1559309D02*
X2086683D01*
X1910678Y1558309D02*
X2086683D01*
X1910678Y1557309D02*
X2086683D01*
X2036479Y1506309D02*
X2086396D01*
X2035477Y1698309D02*
X2086255D01*
X2084803Y1531309D02*
X2085769D01*
X2036791Y1505309D02*
X2085017D01*
X2070010Y1530309D02*
X2084889D01*
X2035261Y1699309D02*
X2084872D01*
X1999008Y1649309D02*
X2084556D01*
X2037051Y1504309D02*
X2083596D01*
X2034809Y1700309D02*
X2083446D01*
X2071159Y1529309D02*
X2083425D01*
X2078945Y1528309D02*
X2082425D01*
X2032472Y1691309D02*
X2082258D01*
X2037262Y1503309D02*
X2082129D01*
X2067310Y1531309D02*
X2082063D01*
X2034036Y1701309D02*
X2081975D01*
X1999006Y1650309D02*
X2081061D01*
X2037423Y1502309D02*
X2080614D01*
X2067483Y1532309D02*
X2080529D01*
X2032619Y1702309D02*
X2080454D01*
X2067483Y1537309D02*
X2080085D01*
X2067483Y1533309D02*
X2079829D01*
X2032929Y1690309D02*
X2079666D01*
X2067483Y1536309D02*
X2079605D01*
X2067483Y1534309D02*
X2079491D01*
X2067483Y1535309D02*
X2079421D01*
X2067483Y1538309D02*
X2079389D01*
X2065583Y1548309D02*
X2079132D01*
X2037538Y1501309D02*
X2079046D01*
X2028427Y1703309D02*
X2078881D01*
X2067414Y1539309D02*
X2078822D01*
X1999004Y1651309D02*
X2078817D01*
X2065814Y1541309D02*
X2078683D01*
X2066976Y1540309D02*
X2078683D01*
X2065583Y1542309D02*
X2078629D01*
X2065583Y1547309D02*
X2078185D01*
X2065583Y1543309D02*
X2077929D01*
X2032954Y1689309D02*
X2077754D01*
X2065583Y1546309D02*
X2077705D01*
X2043729Y1586309D02*
X2077663D01*
X2065583Y1544309D02*
X2077591D01*
X2065583Y1545309D02*
X2077521D01*
X2037606Y1500309D02*
X2077423D01*
X2029612Y1704309D02*
X2077251D01*
X1999003Y1652309D02*
X2077079D01*
X2015273Y1593309D02*
X2076632D01*
X2032954Y1688309D02*
X2076208D01*
X2044010Y1587309D02*
X2076129D01*
X2037627Y1499309D02*
X2075739D01*
X2039359Y1592309D02*
X2075685D01*
X1999001Y1653309D02*
X2075643D01*
X2030287Y1705309D02*
X2075561D01*
X2044029Y1588309D02*
X2075429D01*
X2042140Y1591309D02*
X2075205D01*
X2043792Y1589309D02*
X2075091D01*
X2043240Y1590309D02*
X2075021D01*
X2032954Y1687309D02*
X2074905D01*
X1998999Y1654309D02*
X2074420D01*
X2037603Y1498309D02*
X2073989D01*
X2030670Y1706309D02*
X2073804D01*
X1923015Y1574309D02*
X2073803D01*
X2032954Y1686309D02*
X2073781D01*
X1998997Y1655309D02*
X2073358D01*
X2072745Y1528309D02*
X2072921D01*
X2043116Y1585309D02*
X2072918D01*
X2032954Y1685309D02*
X2072798D01*
X1928869Y1575309D02*
X2072474D01*
X1998995Y1656309D02*
X2072425D01*
X1936817Y1580309D02*
X2072262D01*
X2037532Y1497309D02*
X2072167D01*
X2041863Y1584309D02*
X2072085D01*
X2030828Y1707309D02*
X2071974D01*
X1931177Y1579309D02*
X2071942D01*
X2032954Y1684309D02*
X2071931D01*
X1930002Y1576309D02*
X2071868D01*
X1983152Y1581309D02*
X2071768D01*
X1985185Y1583309D02*
X2071690D01*
X1931027Y1578309D02*
X2071636D01*
X1930656Y1577309D02*
X2071613D01*
X1998994Y1657309D02*
X2071602D01*
X1984529Y1582309D02*
X2071593D01*
X2032954Y1683309D02*
X2071164D01*
X1998992Y1658309D02*
X2070872D01*
X2032954Y1682309D02*
X2070483D01*
X2037414Y1496309D02*
X2070266D01*
X1998990Y1659309D02*
X2070224D01*
X2030783Y1708309D02*
X2070064D01*
X2032954Y1681309D02*
X2069880D01*
X1999138Y1660309D02*
X2069651D01*
X2032954Y1680309D02*
X2069346D01*
X1999886Y1661309D02*
X2069145D01*
X2032954Y1679309D02*
X2068878D01*
X2000254Y1662309D02*
X2068701D01*
X2032954Y1678309D02*
X2068469D01*
X2032641Y1663309D02*
X2068317D01*
X2037249Y1495309D02*
X2068277D01*
X2032954Y1677309D02*
X2068117D01*
X2030530Y1709309D02*
X2068066D01*
X2032952Y1664309D02*
X2067987D01*
X2032954Y1676309D02*
X2067818D01*
X2032954Y1665309D02*
X2067710D01*
X2032954Y1675309D02*
X2067571D01*
X2032954Y1666309D02*
X2067483D01*
X2032954Y1674309D02*
X2067374D01*
X2032954Y1667309D02*
X2067306D01*
X2032954Y1673309D02*
X2067224D01*
X2032954Y1668309D02*
X2067176D01*
X2032954Y1672309D02*
X2067122D01*
X2032954Y1669309D02*
X2067093D01*
X2032954Y1671309D02*
X2067066D01*
X2032954Y1670309D02*
X2067057D01*
X2037036Y1494309D02*
X2066190D01*
X2030030Y1710309D02*
X2065968D01*
X2036772Y1493309D02*
X2063993D01*
X2029176Y1711309D02*
X2063758D01*
X2036456Y1492309D02*
X2061668D01*
X2027485Y1712309D02*
X2061419D01*
X2036086Y1491309D02*
X2059196D01*
X1976456Y1713309D02*
X2058931D01*
X2035658Y1490309D02*
X2056551D01*
X1979041Y1714309D02*
X2056266D01*
X2040758Y1553309D02*
X2054908D01*
X2035169Y1489309D02*
X2053695D01*
X1981813Y1715309D02*
X2053386D01*
X2042705Y1552309D02*
X2052961D01*
X2042705Y1547309D02*
X2052961D01*
X2042705Y1542309D02*
X2052961D01*
X2043054Y1548309D02*
X2052612D01*
X2043054Y1543309D02*
X2052612D01*
X2043054Y1538309D02*
X2052612D01*
X2043345Y1551309D02*
X2052322D01*
X2043345Y1546309D02*
X2052322D01*
X2043345Y1541309D02*
X2052322D01*
X2043489Y1549309D02*
X2052177D01*
X2043489Y1544309D02*
X2052177D01*
X2043489Y1539309D02*
X2052177D01*
X2043575Y1550309D02*
X2052091D01*
X2043575Y1545309D02*
X2052091D01*
X2043575Y1540309D02*
X2052091D01*
X2034614Y1488309D02*
X2050577D01*
X1984812Y1716309D02*
X2050237D01*
X2035688Y1508309D02*
X2047120D01*
X2033986Y1487309D02*
X2047120D01*
X1988098Y1717309D02*
X2046738D01*
X2035203Y1509309D02*
X2046080D01*
X2034652Y1510309D02*
X2045080D01*
X2042705Y1537309D02*
X2044289D01*
X2034030Y1511309D02*
X2044129D01*
X1910678Y1563309D02*
X2043779D01*
X2033328Y1512309D02*
X2043665D01*
X2043365Y1516309D02*
X2043583D01*
X2030624Y1515309D02*
X2043583D01*
X2031641Y1514309D02*
X2043583D01*
X2032536Y1513309D02*
X2043583D01*
X2033278Y1486309D02*
X2043195D01*
X1991762Y1718309D02*
X2042754D01*
X1925852Y1570309D02*
X2042303D01*
X1953522Y1564309D02*
X2042028D01*
X2032480Y1485309D02*
X2038561D01*
X1985494Y1584309D02*
X2038204D01*
X1995956Y1719309D02*
X2038024D01*
X2002159Y1605309D02*
X2037418D01*
X1985539Y1585309D02*
X2036950D01*
X2015078Y1598309D02*
X2036608D01*
X1985328Y1586309D02*
X2036337D01*
X1984813Y1587309D02*
X2036056D01*
X2003159Y1604309D02*
X2035977D01*
X1921634Y1553309D02*
X2034908D01*
X2031578Y1484309D02*
X2032646D01*
X2031983Y1530309D02*
X2032069D01*
X2019882Y1552309D02*
X2031989D01*
X2000986Y1720309D02*
X2031907D01*
X2029457Y1516309D02*
X2031894D01*
X2007850Y1531309D02*
X2031263D01*
X2020706Y1551309D02*
X2030981D01*
X2028099Y1517309D02*
X2030563D01*
X2007933Y1532309D02*
X2030411D01*
X2021119Y1550309D02*
X2030288D01*
X2007933Y1533309D02*
X2030098D01*
X2021252Y1549309D02*
X2030083D01*
X2021131Y1548309D02*
X2030083D01*
X2020731Y1547309D02*
X2030083D01*
X2021152Y1539309D02*
X2030083D01*
X2021031Y1538309D02*
X2030083D01*
X2020631Y1537309D02*
X2030083D01*
X2019831Y1536309D02*
X2030083D01*
X2017703Y1535309D02*
X2030083D01*
X2007933Y1534309D02*
X2030083D01*
X2021019Y1540309D02*
X2029563D01*
X2026473Y1518309D02*
X2029563D01*
X2024430Y1519309D02*
X2028563D01*
X2005060Y1702309D02*
X2028299D01*
X2005315Y1693309D02*
X2028044D01*
X2021530Y1520309D02*
X2027563D01*
X2006477Y1701309D02*
X2026882D01*
X2006601Y1694309D02*
X2026758D01*
X1991887Y1521309D02*
X2026563D01*
X2007250Y1700309D02*
X2026109D01*
X2007324Y1695309D02*
X2026035D01*
X2007701Y1699309D02*
X2025657D01*
X2007742Y1696309D02*
X2025617D01*
X2007918Y1698309D02*
X2025441D01*
X2007931Y1697309D02*
X2025428D01*
X2009178Y1712309D02*
X2024181D01*
X2010120Y1703309D02*
X2023239D01*
X2010869Y1711309D02*
X2022490D01*
X2011305Y1704309D02*
X2022054D01*
X1993638Y1522309D02*
X2021863D01*
X2011723Y1710309D02*
X2021636D01*
X2011980Y1705309D02*
X2021379D01*
X2012223Y1709309D02*
X2021136D01*
X2012363Y1706309D02*
X2020996D01*
X2012476Y1708309D02*
X2020883D01*
X1994386Y1523309D02*
X2020863D01*
X2012521Y1707309D02*
X2020838D01*
X2010841Y1721309D02*
X2020652D01*
X1994754Y1524309D02*
X2019312D01*
X2007192Y1530309D02*
X2018687D01*
X1994850Y1525309D02*
X2018436D01*
X1985989Y1529309D02*
X2018295D01*
X1993363Y1528309D02*
X2018283D01*
X1994246Y1527309D02*
X2018283D01*
X1994692Y1526309D02*
X2018283D01*
X2007933Y1535309D02*
X2016563D01*
X1929318Y1552309D02*
X2014584D01*
X2007761Y1536309D02*
X2014435D01*
X1930341Y1551309D02*
X2013760D01*
X1977252Y1547309D02*
X2013735D01*
X2006822Y1537309D02*
X2013635D01*
X1931341Y1550309D02*
X2013347D01*
X1976445Y1548309D02*
X2013335D01*
X2007503Y1540309D02*
X2013247D01*
X2003986Y1538309D02*
X2013235D01*
X1932243Y1549309D02*
X2013215D01*
X2006303Y1539309D02*
X2013115D01*
X1988043Y1520309D02*
X2010317D01*
X1988435Y1519309D02*
X2007417D01*
X1977383Y1546309D02*
X2006418D01*
X1974029Y1712309D02*
X2005874D01*
X1988483Y1518309D02*
X2005374D01*
X2003849Y1545309D02*
X2005007D01*
X1956715Y1703309D02*
X2004932D01*
X1971736Y1711309D02*
X2004183D01*
X1988483Y1517309D02*
X2003749D01*
X1958347Y1704309D02*
X2003747D01*
X1969560Y1710309D02*
X2003329D01*
X1960037Y1705309D02*
X2003072D01*
X1967488Y1709309D02*
X2002829D01*
X1961789Y1706309D02*
X2002689D01*
X1965508Y1708309D02*
X2002576D01*
X1963611Y1707309D02*
X2002531D01*
X1988483Y1516309D02*
X2002390D01*
X1988483Y1515309D02*
X2001223D01*
X1999692Y1530309D02*
X2000974D01*
X1955138Y1702309D02*
X2000740D01*
X1949488Y1693309D02*
X2000485D01*
X1998847Y1484309D02*
X2000269D01*
X1988483Y1514309D02*
X2000206D01*
X1954039Y1691309D02*
X1999808D01*
X1992932Y1485309D02*
X1999367D01*
X1955594Y1690309D02*
X1999352D01*
X1956904Y1689309D02*
X1999326D01*
X1958034Y1688309D02*
X1999326D01*
X1959021Y1687309D02*
X1999326D01*
X1959891Y1686309D02*
X1999326D01*
X1960661Y1685309D02*
X1999326D01*
X1961344Y1684309D02*
X1999326D01*
X1961950Y1683309D02*
X1999326D01*
X1962485Y1682309D02*
X1999326D01*
X1962956Y1681309D02*
X1999326D01*
X1963366Y1680309D02*
X1999326D01*
X1963720Y1679309D02*
X1999326D01*
X1964020Y1678309D02*
X1999326D01*
X1964269Y1677309D02*
X1999326D01*
X1964468Y1676309D02*
X1999326D01*
X1964619Y1675309D02*
X1999326D01*
X1964723Y1674309D02*
X1999326D01*
X1964780Y1673309D02*
X1999326D01*
X1964791Y1672309D02*
X1999326D01*
X1964756Y1671309D02*
X1999326D01*
X1964674Y1670309D02*
X1999326D01*
X1964546Y1669309D02*
X1999326D01*
X1964370Y1668309D02*
X1999326D01*
X1964145Y1667309D02*
X1999326D01*
X1998863Y1666309D02*
X1999326D01*
X1953611Y1701309D02*
X1999323D01*
X1988424Y1513309D02*
X1999311D01*
X1944114Y1694309D02*
X1999198D01*
X1988299Y1486309D02*
X1998569D01*
X1952131Y1700309D02*
X1998550D01*
X1988006Y1512309D02*
X1998520D01*
X1945347Y1695309D02*
X1998476D01*
X1950695Y1699309D02*
X1998098D01*
X1946629Y1696309D02*
X1998058D01*
X1949301Y1698309D02*
X1997882D01*
X1947947Y1697309D02*
X1997869D01*
X1984373Y1487309D02*
X1997861D01*
X1987086Y1511309D02*
X1997817D01*
X1980916Y1488309D02*
X1997234D01*
X1986046Y1510309D02*
X1997195D01*
X1977383Y1545309D02*
X1996817D01*
X1983258Y1538309D02*
X1996681D01*
X1977798Y1489309D02*
X1996678D01*
X1978300Y1509309D02*
X1996644D01*
X1977383Y1544309D02*
X1996487D01*
X1977364Y1543309D02*
X1996483D01*
X1976936Y1542309D02*
X1996483D01*
X1976052Y1541309D02*
X1996483D01*
X1976044Y1540309D02*
X1996483D01*
X1976036Y1539309D02*
X1996483D01*
X1974943Y1490309D02*
X1996189D01*
X1978075Y1508309D02*
X1996159D01*
X1972297Y1491309D02*
X1995761D01*
X1977561Y1507309D02*
X1995735D01*
X1969825Y1492309D02*
X1995391D01*
X1976667Y1506309D02*
X1995369D01*
X1967501Y1493309D02*
X1995075D01*
X1975070Y1505309D02*
X1995056D01*
X1965303Y1494309D02*
X1994812D01*
X1947897Y1504309D02*
X1994796D01*
X1963216Y1495309D02*
X1994598D01*
X1949364Y1503309D02*
X1994586D01*
X1961227Y1496309D02*
X1994433D01*
X1950880Y1502309D02*
X1994424D01*
X1959326Y1497309D02*
X1994315D01*
X1952447Y1501309D02*
X1994309D01*
X1957505Y1498309D02*
X1994245D01*
X1954071Y1500309D02*
X1994242D01*
X1955755Y1499309D02*
X1994220D01*
X1989477Y1537309D02*
X1993844D01*
X1963870Y1666309D02*
X1993803D01*
X1993544Y1659309D02*
X1993690D01*
X1993162Y1660309D02*
X1993528D01*
X1986075Y1530309D02*
X1993474D01*
X1963542Y1665309D02*
X1992921D01*
X1992392Y1661309D02*
X1992780D01*
X1963159Y1664309D02*
X1992474D01*
X1990508Y1662309D02*
X1992412D01*
X1962717Y1663309D02*
X1992316D01*
X1987141Y1521309D02*
X1989779D01*
X1962214Y1662309D02*
X1988758D01*
X1985554Y1528309D02*
X1988303D01*
X1985845Y1531309D02*
X1988263D01*
X1986118Y1522309D02*
X1988028D01*
X1985205Y1532309D02*
X1987063D01*
X1961642Y1661309D02*
X1986874D01*
X1956245Y1655309D02*
X1986745D01*
X1954818Y1654309D02*
X1986733D01*
X1953091Y1653309D02*
X1986721D01*
X1950869Y1652309D02*
X1986709D01*
X1947448Y1651309D02*
X1986625D01*
X1957463Y1656309D02*
X1986193D01*
X1960997Y1660309D02*
X1986104D01*
X1958521Y1657309D02*
X1985762D01*
X1960270Y1659309D02*
X1985722D01*
X1910283Y1650309D02*
X1985625D01*
X1959449Y1658309D02*
X1985615D01*
X1938053Y1581309D02*
X1979914D01*
X1938754Y1582309D02*
X1978537D01*
X1946847Y1587309D02*
X1978253D01*
X1939157Y1583309D02*
X1977882D01*
X1946095Y1586309D02*
X1977738D01*
X1939335Y1584309D02*
X1977572D01*
X1944736Y1585309D02*
X1977527D01*
X1976028Y1538309D02*
X1977408D01*
X1970245Y1548309D02*
X1970421D01*
X1932635D02*
X1964221D01*
X1932683Y1547309D02*
X1961389D01*
X1932683Y1546309D02*
X1960307D01*
X1946476Y1505309D02*
X1959547D01*
X1932683Y1545309D02*
X1959307D01*
X1932683Y1544309D02*
X1958337D01*
X1932683Y1543309D02*
X1957857D01*
X1932683Y1542309D02*
X1957778D01*
X1932683Y1541309D02*
X1957765D01*
X1932683Y1540309D02*
X1957752D01*
X1932683Y1539309D02*
X1957738D01*
X1932683Y1538309D02*
X1957408D01*
X1947284Y1588309D02*
X1954723D01*
X1947489Y1589309D02*
X1953663D01*
X1947492Y1590309D02*
X1952663D01*
X1945097Y1506309D02*
X1952580D01*
X1947291Y1591309D02*
X1951663D01*
X1943669Y1537309D02*
X1951589D01*
X1943759Y1507309D02*
X1951580D01*
X1946859Y1592309D02*
X1950663D01*
X1942459Y1508309D02*
X1950580D01*
X1944897Y1536309D02*
X1950507D01*
X1946116Y1593309D02*
X1949663D01*
X1941195Y1509309D02*
X1949580D01*
X1945139Y1535309D02*
X1949507D01*
X1944778Y1594309D02*
X1948663D01*
X1939965Y1510309D02*
X1948581D01*
X1910283Y1649309D02*
X1948184D01*
X1938767Y1511309D02*
X1947956D01*
X1937601Y1512309D02*
X1947783D01*
X1936465Y1513309D02*
X1947774D01*
X1935357Y1514309D02*
X1947765D01*
X1934277Y1515309D02*
X1947757D01*
X1933222Y1516309D02*
X1947748D01*
X1932193Y1517309D02*
X1947739D01*
X1931189Y1518309D02*
X1947731D01*
X1930207Y1519309D02*
X1947722D01*
X1929249Y1520309D02*
X1947713D01*
X1940814Y1521309D02*
X1947704D01*
X1943299Y1522309D02*
X1947696D01*
X1942103Y1595309D02*
X1947663D01*
X1939310Y1585309D02*
X1940195D01*
X1928312Y1521309D02*
X1939852D01*
X1910283Y1651309D02*
X1938730D01*
X1927397Y1522309D02*
X1937367D01*
X1932683Y1537309D02*
X1936997D01*
X1932683Y1536309D02*
X1935769D01*
X1932683Y1529309D02*
X1935595D01*
X1932683Y1535309D02*
X1935527D01*
X1932683Y1534309D02*
X1935527D01*
X1932683Y1533309D02*
X1935527D01*
X1932683Y1532309D02*
X1935527D01*
X1932683Y1531309D02*
X1935527D01*
X1932683Y1530309D02*
X1935527D01*
X1910283Y1648309D02*
X1935525D01*
X1910644Y1652309D02*
X1935309D01*
X1910283Y1647309D02*
X1934525D01*
X1910283Y1646309D02*
X1933529D01*
X1911140Y1653309D02*
X1933087D01*
X1910283Y1618309D02*
X1932958D01*
X1910283Y1619309D02*
X1932951D01*
X1910283Y1620309D02*
X1932945D01*
X1910283Y1621309D02*
X1932938D01*
X1910283Y1645309D02*
X1932936D01*
X1910283Y1622309D02*
X1932931D01*
X1910283Y1623309D02*
X1932924D01*
X1910283Y1624309D02*
X1932918D01*
X1910283Y1625309D02*
X1932911D01*
X1910283Y1626309D02*
X1932904D01*
X1910283Y1627309D02*
X1932898D01*
X1910283Y1628309D02*
X1932891D01*
X1910283Y1629309D02*
X1932884D01*
X1910283Y1630309D02*
X1932877D01*
X1910283Y1631309D02*
X1932871D01*
X1910283Y1632309D02*
X1932864D01*
X1910283Y1633309D02*
X1932857D01*
X1910283Y1634309D02*
X1932851D01*
X1910283Y1635309D02*
X1932844D01*
X1910283Y1636309D02*
X1932837D01*
X1910283Y1637309D02*
X1932830D01*
X1910283Y1638309D02*
X1932824D01*
X1910283Y1639309D02*
X1932817D01*
X1910283Y1640309D02*
X1932810D01*
X1910283Y1641309D02*
X1932804D01*
X1910283Y1642309D02*
X1932797D01*
X1910283Y1643309D02*
X1932790D01*
X1910283Y1644309D02*
X1932783D01*
X1910283Y1617309D02*
X1932672D01*
X1931126Y1580309D02*
X1931781D01*
X1910283Y1616309D02*
X1931729D01*
X1911648Y1654309D02*
X1931360D01*
X1910283Y1615309D02*
X1931175D01*
X1930150Y1612309D02*
X1930905D01*
X1910283Y1614309D02*
X1930878D01*
X1910283Y1613309D02*
X1930792D01*
X1926502Y1523309D02*
X1930309D01*
X1912166Y1655309D02*
X1929933D01*
X1912697Y1656309D02*
X1928715D01*
X1925628Y1524309D02*
X1928680D01*
X1924772Y1525309D02*
X1927689D01*
X1913239Y1657309D02*
X1927657D01*
X1923936Y1526309D02*
X1927122D01*
X1920603Y1546309D02*
X1926983D01*
X1911084Y1545309D02*
X1926983D01*
X1911634Y1544309D02*
X1926983D01*
X1912197Y1543309D02*
X1926983D01*
X1912773Y1542309D02*
X1926983D01*
X1913362Y1541309D02*
X1926983D01*
X1913964Y1540309D02*
X1926983D01*
X1914579Y1539309D02*
X1926983D01*
X1915208Y1538309D02*
X1926983D01*
X1915851Y1537309D02*
X1926983D01*
X1916509Y1536309D02*
X1926983D01*
X1917180Y1535309D02*
X1926983D01*
X1917867Y1534309D02*
X1926983D01*
X1918569Y1533309D02*
X1926983D01*
X1919286Y1532309D02*
X1926983D01*
X1920019Y1531309D02*
X1926983D01*
X1920769Y1530309D02*
X1926983D01*
X1921534Y1529309D02*
X1926983D01*
X1922317Y1528309D02*
X1926983D01*
X1923118Y1527309D02*
X1926983D01*
X1916392Y1597309D02*
X1926788D01*
X1913792Y1658309D02*
X1926729D01*
X1914358Y1659309D02*
X1925908D01*
X1916490Y1596309D02*
X1925763D01*
X1914936Y1660309D02*
X1925181D01*
X1916043Y1595309D02*
X1925163D01*
X1910678Y1564309D02*
X1924919D01*
X1914632Y1594309D02*
X1924832D01*
X1923777Y1592309D02*
X1924801D01*
X1913017Y1593309D02*
X1924716D01*
X1915527Y1661309D02*
X1924536D01*
X1910283Y1612309D02*
X1924527D01*
X1916130Y1662309D02*
X1923964D01*
X1916746Y1663309D02*
X1923461D01*
X1910283Y1611309D02*
X1923428D01*
X1922937Y1575309D02*
X1923396D01*
X1910678Y1565309D02*
X1923362D01*
X1917375Y1664309D02*
X1923019D01*
X1910283Y1610309D02*
X1922790D01*
X1918017Y1665309D02*
X1922636D01*
X1922515Y1606309D02*
X1922600D01*
X1906773Y1609309D02*
X1922432D01*
X1910678Y1566309D02*
X1922358D01*
X1921207Y1607309D02*
X1922353D01*
X1918673Y1666309D02*
X1922308D01*
X1906773Y1608309D02*
X1922292D01*
X1919343Y1667309D02*
X1922033D01*
X1920027Y1668309D02*
X1921808D01*
X1920725Y1669309D02*
X1921632D01*
X1910678Y1567309D02*
X1921353D01*
X1910678Y1568309D02*
X1920349D01*
X1910678Y1569309D02*
X1919344D01*
X1911402Y1592309D02*
X1918822D01*
X1910678Y1546309D02*
X1917863D01*
X1906622Y1591309D02*
X1917566D01*
X1906298Y1590309D02*
X1916856D01*
X1910678Y1553309D02*
X1916832D01*
X1915825Y1598309D02*
X1916627D01*
X1906773Y1607309D02*
X1916464D01*
X1905757Y1589309D02*
X1916447D01*
X1910678Y1547309D02*
X1916329D01*
X1915830Y1587309D02*
X1916285D01*
X1915076Y1588309D02*
X1916265D01*
X1910678Y1552309D02*
X1915885D01*
X1910678Y1548309D02*
X1915629D01*
X1910678Y1551309D02*
X1915405D01*
X1910678Y1549309D02*
X1915291D01*
X1910678Y1550309D02*
X1915221D01*
X1906773Y1606309D02*
X1915156D01*
X1910678Y1570309D02*
X1915034D01*
X1906773Y1605309D02*
X1914425D01*
X1906773Y1604309D02*
X1914001D01*
X1910678Y1571309D02*
X1913989D01*
X1913349Y1602309D02*
X1913815D01*
X1912596Y1603309D02*
X1913807D01*
X1904773Y1572309D02*
X1913379D01*
X1905373Y1576309D02*
X1913283D01*
X1905276Y1573309D02*
X1913040D01*
X1905373Y1575309D02*
X1912995D01*
X1905373Y1574309D02*
X1912917D01*
X1905373Y1588309D02*
X1912447D01*
X1905373Y1587309D02*
X1910856D01*
X1905373Y1577309D02*
X1910187D01*
X1906773Y1603309D02*
X1909982D01*
X1905373Y1578309D02*
X1909557D01*
X1905373Y1586309D02*
X1909265D01*
X1905373Y1579309D02*
X1908929D01*
X1906773Y1602309D02*
X1908367D01*
X1905373Y1580309D02*
X1908300D01*
X1905373Y1585309D02*
X1907674D01*
X1905373Y1581309D02*
X1907671D01*
X1906763Y1592309D02*
X1907663D01*
X1905373Y1582309D02*
X1907043D01*
X1906773Y1593309D02*
X1907042D01*
X1905373Y1584309D02*
X1906800D01*
X1905373Y1583309D02*
X1906659D01*
X1934815Y1593309D02*
X1938815D01*
X1934731Y1592309D02*
X1938071D01*
X1934436Y1591309D02*
X1937640D01*
X1936333Y1589309D02*
X1937441D01*
X1933885Y1590309D02*
X1937439D01*
X1934699Y1594309D02*
X1935494D01*
X1877583Y1571369D02*
Y1582457D01*
X1876583Y1571369D02*
Y1583449D01*
X1875583Y1571369D02*
Y1584440D01*
X1874583Y1659405D02*
Y1682722D01*
Y1571369D02*
Y1585432D01*
X1873583Y1658393D02*
Y1682722D01*
Y1571369D02*
Y1586423D01*
X1872583Y1657381D02*
Y1682722D01*
Y1580301D02*
Y1587414D01*
X1871583Y1656368D02*
Y1682722D01*
Y1581293D02*
Y1588406D01*
X1870583Y1655356D02*
Y1682722D01*
Y1582285D02*
Y1589397D01*
X1869583Y1654344D02*
Y1661214D01*
Y1583277D02*
Y1590388D01*
X1868583Y1653331D02*
Y1659955D01*
Y1584269D02*
Y1591380D01*
X1867583Y1652319D02*
Y1658696D01*
Y1585261D02*
Y1592371D01*
X1866583Y1586253D02*
Y1657590D01*
X1865583Y1587245D02*
Y1656503D01*
X1864583Y1588237D02*
Y1655416D01*
X1863583Y1589229D02*
Y1654329D01*
X1862583Y1590221D02*
Y1653242D01*
X1861583Y1591213D02*
Y1652155D01*
X2134532Y1592908D02*
Y1611607D01*
X2133532Y1584258D02*
Y1620257D01*
X2132532Y1578624D02*
Y1625891D01*
X2131532Y1574130D02*
Y1630384D01*
X2130532Y1570293D02*
Y1634221D01*
X2129532Y1566898D02*
Y1637617D01*
X2128532Y1563828D02*
Y1640687D01*
X2127532Y1561009D02*
Y1643506D01*
X2126532Y1558394D02*
Y1646121D01*
X2125532Y1555948D02*
Y1648567D01*
X2124532Y1553645D02*
Y1650869D01*
X2123532Y1551467D02*
Y1653048D01*
X2122532Y1549397D02*
Y1655118D01*
X2121532Y1547423D02*
Y1657092D01*
X2120532Y1545535D02*
Y1658980D01*
X2119532Y1613921D02*
Y1660789D01*
Y1588921D02*
Y1600875D01*
Y1561421D02*
Y1575875D01*
Y1543726D02*
Y1548375D01*
X2118532Y1615170D02*
Y1662528D01*
Y1590170D02*
Y1600330D01*
Y1562670D02*
Y1575330D01*
Y1541987D02*
Y1547830D01*
X2117532Y1615856D02*
Y1664202D01*
Y1590856D02*
Y1600281D01*
Y1563356D02*
Y1575281D01*
Y1540313D02*
Y1547781D01*
X2116532Y1616237D02*
Y1665816D01*
Y1591237D02*
Y1600281D01*
Y1563737D02*
Y1575281D01*
Y1538699D02*
Y1547781D01*
X2115532Y1616385D02*
Y1667375D01*
Y1591385D02*
Y1600281D01*
Y1563885D02*
Y1575281D01*
Y1537140D02*
Y1547781D01*
X2114532Y1616322D02*
Y1668882D01*
Y1591322D02*
Y1600281D01*
Y1563822D02*
Y1575281D01*
Y1535633D02*
Y1547781D01*
X2113532Y1616039D02*
Y1670341D01*
Y1591039D02*
Y1600281D01*
Y1563539D02*
Y1575281D01*
Y1534174D02*
Y1547781D01*
X2112532Y1615488D02*
Y1671755D01*
Y1590488D02*
Y1600282D01*
Y1562988D02*
Y1575282D01*
Y1532759D02*
Y1547782D01*
X2111532Y1614524D02*
Y1673127D01*
Y1589524D02*
Y1600568D01*
Y1562024D02*
Y1575568D01*
Y1531387D02*
Y1548068D01*
X2110532Y1611801D02*
Y1674459D01*
Y1607985D02*
Y1611365D01*
Y1586801D02*
Y1602189D01*
Y1582985D02*
Y1586365D01*
Y1559301D02*
Y1577189D01*
Y1555485D02*
Y1558865D01*
Y1530055D02*
Y1549689D01*
X2109532Y1528761D02*
Y1664318D01*
X2108532Y1527503D02*
Y1661655D01*
X2107532Y1526278D02*
Y1659712D01*
X2106532Y1525086D02*
Y1658147D01*
X2105532Y1576397D02*
Y1656829D01*
Y1566757D02*
Y1573777D01*
Y1523925D02*
Y1563617D01*
X2104532Y1638919D02*
Y1655695D01*
Y1607282D02*
Y1634055D01*
Y1577970D02*
Y1602692D01*
Y1568164D02*
Y1572204D01*
Y1522793D02*
Y1562210D01*
X2103532Y1639851D02*
Y1654703D01*
Y1578680D02*
Y1601691D01*
Y1568829D02*
Y1571494D01*
Y1521690D02*
Y1561545D01*
X2102532Y1640323D02*
Y1653829D01*
Y1579025D02*
Y1601184D01*
Y1569144D02*
Y1571149D01*
Y1557231D02*
Y1561230D01*
Y1520614D02*
Y1552943D01*
X2101532Y1640501D02*
Y1653056D01*
Y1579101D02*
Y1600980D01*
Y1569194D02*
Y1571074D01*
Y1558311D02*
Y1561180D01*
Y1528577D02*
Y1545148D01*
Y1519564D02*
Y1526597D01*
X2100532Y1640425D02*
Y1652370D01*
Y1578922D02*
Y1601030D01*
Y1568989D02*
Y1571252D01*
Y1558854D02*
Y1561385D01*
Y1530651D02*
Y1543950D01*
Y1518539D02*
Y1524524D01*
X2099532Y1640079D02*
Y1651761D01*
Y1578449D02*
Y1601346D01*
Y1568482D02*
Y1571725D01*
Y1559086D02*
Y1561893D01*
Y1534202D02*
Y1542899D01*
Y1517538D02*
Y1523550D01*
X2098532Y1639369D02*
Y1651224D01*
Y1577970D02*
Y1602012D01*
Y1567479D02*
Y1572270D01*
Y1559060D02*
Y1562895D01*
Y1535619D02*
Y1542424D01*
Y1516560D02*
Y1521840D01*
X2097532Y1637791D02*
Y1650751D01*
Y1606553D02*
Y1635183D01*
Y1577980D02*
Y1603421D01*
Y1558773D02*
Y1572280D01*
Y1536619D02*
Y1542335D01*
Y1515606D02*
Y1520778D01*
X2096532Y1577990D02*
Y1650338D01*
Y1558150D02*
Y1572290D01*
Y1537511D02*
Y1542329D01*
Y1514673D02*
Y1519904D01*
X2095532Y1578001D02*
Y1649983D01*
Y1557985D02*
Y1572300D01*
Y1537893D02*
Y1542323D01*
Y1513761D02*
Y1519565D01*
X2094532Y1691524D02*
Y1691646D01*
Y1578011D02*
Y1649681D01*
Y1557999D02*
Y1572310D01*
Y1537937D02*
Y1542317D01*
Y1512869D02*
Y1519547D01*
X2093532Y1691774D02*
Y1692517D01*
Y1578021D02*
Y1649430D01*
Y1558012D02*
Y1572321D01*
Y1537937D02*
Y1542311D01*
Y1511998D02*
Y1519563D01*
X2092532Y1691975D02*
Y1693369D01*
Y1578031D02*
Y1649229D01*
Y1558319D02*
Y1571814D01*
Y1537937D02*
Y1542304D01*
Y1511145D02*
Y1519580D01*
X2091532Y1692128D02*
Y1694203D01*
Y1578009D02*
Y1649076D01*
Y1537937D02*
Y1542298D01*
Y1510312D02*
Y1519597D01*
X2090532Y1692233D02*
Y1695018D01*
Y1577669D02*
Y1648971D01*
Y1537937D02*
Y1542292D01*
Y1509497D02*
Y1512072D01*
X2089532Y1692292D02*
Y1695815D01*
Y1576834D02*
Y1648912D01*
Y1550262D02*
Y1553258D01*
Y1547986D02*
Y1549512D01*
Y1537937D02*
Y1542286D01*
Y1508699D02*
Y1510656D01*
X2088532Y1692304D02*
Y1696595D01*
Y1575875D02*
Y1648900D01*
Y1547980D02*
Y1554258D01*
Y1537937D02*
Y1542280D01*
Y1507919D02*
Y1509656D01*
X2087532Y1692271D02*
Y1697359D01*
Y1574917D02*
Y1648933D01*
Y1547974D02*
Y1555258D01*
Y1537937D02*
Y1542274D01*
Y1507156D02*
Y1508656D01*
X2086532Y1692191D02*
Y1698105D01*
Y1547968D02*
Y1649013D01*
Y1537937D02*
Y1542268D01*
Y1532107D02*
Y1532237D01*
Y1506410D02*
Y1507902D01*
X2085532Y1692064D02*
Y1698836D01*
Y1547962D02*
Y1649140D01*
Y1540271D02*
Y1542262D01*
Y1530485D02*
Y1531660D01*
Y1505679D02*
Y1507644D01*
X2084532Y1691890D02*
Y1699551D01*
Y1547956D02*
Y1649314D01*
Y1541278D02*
Y1542255D01*
Y1530172D02*
Y1531222D01*
Y1504964D02*
Y1507639D01*
X2083532Y1691667D02*
Y1700250D01*
Y1548573D02*
Y1649537D01*
Y1529417D02*
Y1531070D01*
Y1504265D02*
Y1507642D01*
X2082532Y1691393D02*
Y1700934D01*
Y1592063D02*
Y1649811D01*
Y1548979D02*
Y1588111D01*
Y1528417D02*
Y1531171D01*
Y1503581D02*
Y1507645D01*
X2081532Y1691067D02*
Y1701604D01*
Y1593234D02*
Y1650137D01*
Y1549106D02*
Y1586940D01*
Y1527937D02*
Y1531547D01*
Y1502911D02*
Y1507647D01*
X2080532Y1690686D02*
Y1702259D01*
Y1593816D02*
Y1650518D01*
Y1548979D02*
Y1586359D01*
Y1527937D02*
Y1532306D01*
Y1502256D02*
Y1507650D01*
X2079532Y1690247D02*
Y1702899D01*
Y1594074D02*
Y1650957D01*
Y1548572D02*
Y1586100D01*
Y1536052D02*
Y1538158D01*
Y1527937D02*
Y1534122D01*
Y1501615D02*
Y1507653D01*
X2078532Y1689745D02*
Y1703526D01*
Y1594074D02*
Y1651459D01*
Y1584392D02*
Y1586100D01*
Y1579668D02*
Y1580506D01*
Y1547760D02*
Y1575782D01*
Y1528514D02*
Y1542414D01*
Y1500989D02*
Y1507656D01*
X2077532Y1689177D02*
Y1704139D01*
Y1593815D02*
Y1652027D01*
Y1585478D02*
Y1586359D01*
Y1545462D02*
Y1574696D01*
Y1528637D02*
Y1544712D01*
Y1500375D02*
Y1507658D01*
X2076532Y1688534D02*
Y1704739D01*
Y1593232D02*
Y1652670D01*
Y1585995D02*
Y1586942D01*
Y1528637D02*
Y1574179D01*
Y1499776D02*
Y1507661D01*
X2075532Y1687810D02*
Y1705326D01*
Y1592060D02*
Y1653394D01*
Y1586187D02*
Y1588114D01*
Y1528637D02*
Y1573987D01*
Y1499189D02*
Y1507664D01*
X2074532Y1686993D02*
Y1705899D01*
Y1586105D02*
Y1654211D01*
Y1528637D02*
Y1574069D01*
Y1498615D02*
Y1507667D01*
X2073532Y1686068D02*
Y1706460D01*
Y1585730D02*
Y1655136D01*
Y1528575D02*
Y1574444D01*
Y1498055D02*
Y1507669D01*
X2072532Y1685016D02*
Y1707009D01*
Y1584932D02*
Y1656188D01*
Y1528429D02*
Y1575242D01*
Y1497506D02*
Y1507672D01*
X2071532Y1683804D02*
Y1707545D01*
Y1528936D02*
Y1657400D01*
Y1496970D02*
Y1507675D01*
X2070532Y1682386D02*
Y1708068D01*
Y1529933D02*
Y1658819D01*
Y1496447D02*
Y1507678D01*
X2069532Y1680672D02*
Y1708580D01*
Y1530514D02*
Y1660532D01*
Y1495935D02*
Y1507680D01*
X2068532Y1678473D02*
Y1709080D01*
Y1530637D02*
Y1662731D01*
Y1495435D02*
Y1507683D01*
X2067532Y1675129D02*
Y1709568D01*
Y1530637D02*
Y1666075D01*
Y1494946D02*
Y1507686D01*
X2066532Y1540812D02*
Y1710045D01*
Y1494470D02*
Y1507689D01*
X2065532Y1549724D02*
Y1710511D01*
Y1494004D02*
Y1507691D01*
X2064532Y1551419D02*
Y1710965D01*
Y1493550D02*
Y1507694D01*
X2063532Y1552375D02*
Y1711408D01*
Y1493106D02*
Y1507697D01*
X2062532Y1552850D02*
Y1711841D01*
Y1492674D02*
Y1507699D01*
X2061532Y1553108D02*
Y1712262D01*
Y1492252D02*
Y1507702D01*
X2060532Y1553331D02*
Y1712673D01*
Y1491842D02*
Y1507705D01*
X2059532Y1553337D02*
Y1713074D01*
Y1491441D02*
Y1507708D01*
X2058532Y1553337D02*
Y1713464D01*
Y1491051D02*
Y1507710D01*
X2057532Y1553337D02*
Y1713843D01*
Y1490672D02*
Y1507713D01*
X2056532Y1553337D02*
Y1714212D01*
Y1490302D02*
Y1507716D01*
X2055532Y1553337D02*
Y1714572D01*
Y1489943D02*
Y1507719D01*
X2054532Y1553237D02*
Y1714921D01*
Y1489594D02*
Y1507721D01*
X2053532Y1552792D02*
Y1715260D01*
Y1489255D02*
Y1507724D01*
X2052532Y1551735D02*
Y1715590D01*
Y1546735D02*
Y1548439D01*
Y1541735D02*
Y1543439D01*
Y1537737D02*
Y1538439D01*
Y1488925D02*
Y1507727D01*
X2051532Y1537737D02*
Y1715909D01*
Y1488605D02*
Y1507730D01*
X2050532Y1537737D02*
Y1716220D01*
Y1488295D02*
Y1507732D01*
X2049532Y1537737D02*
Y1716520D01*
Y1487995D02*
Y1507735D01*
X2048532Y1568757D02*
Y1716811D01*
Y1537737D02*
Y1565617D01*
Y1487704D02*
Y1507753D01*
X2047532Y1570164D02*
Y1717092D01*
Y1537737D02*
Y1564210D01*
Y1487422D02*
Y1508051D01*
X2046532Y1570829D02*
Y1717365D01*
Y1537737D02*
Y1563545D01*
Y1487150D02*
Y1508858D01*
X2045532Y1571144D02*
Y1717627D01*
Y1537729D02*
Y1563230D01*
Y1486888D02*
Y1509858D01*
X2044532Y1571194D02*
Y1717881D01*
Y1537449D02*
Y1563180D01*
Y1486634D02*
Y1510858D01*
X2043532Y1589863D02*
Y1718125D01*
Y1570989D02*
Y1585911D01*
Y1550661D02*
Y1563385D01*
Y1545661D02*
Y1549513D01*
Y1540661D02*
Y1544513D01*
Y1536634D02*
Y1539513D01*
Y1486390D02*
Y1516449D01*
X2042532Y1603375D02*
Y1718360D01*
Y1591034D02*
Y1599799D01*
Y1570482D02*
Y1584740D01*
Y1552480D02*
Y1563893D01*
Y1547480D02*
Y1547694D01*
Y1542480D02*
Y1542694D01*
Y1537480D02*
Y1537694D01*
Y1486154D02*
Y1515875D01*
X2041532Y1604652D02*
Y1718587D01*
Y1591616D02*
Y1598522D01*
Y1569836D02*
Y1584159D01*
Y1553108D02*
Y1564536D01*
Y1485928D02*
Y1515812D01*
X2040532Y1605274D02*
Y1718804D01*
Y1591874D02*
Y1597900D01*
Y1569833D02*
Y1583900D01*
Y1553331D02*
Y1564533D01*
Y1485711D02*
Y1515812D01*
X2039532Y1605561D02*
Y1719012D01*
Y1592136D02*
Y1597613D01*
Y1569831D02*
Y1583900D01*
Y1553337D02*
Y1564531D01*
Y1485503D02*
Y1515812D01*
X2038532Y1605586D02*
Y1719211D01*
Y1592898D02*
Y1597589D01*
Y1569828D02*
Y1584159D01*
Y1553337D02*
Y1564528D01*
Y1485304D02*
Y1515812D01*
X2037532Y1605353D02*
Y1719402D01*
Y1593135D02*
Y1597821D01*
Y1569826D02*
Y1584742D01*
Y1553337D02*
Y1564526D01*
Y1501372D02*
Y1515812D01*
Y1485113D02*
Y1497313D01*
X2036532Y1604809D02*
Y1719583D01*
Y1593137D02*
Y1598365D01*
Y1569823D02*
Y1585914D01*
Y1553337D02*
Y1564523D01*
Y1506149D02*
Y1515812D01*
Y1484932D02*
Y1492535D01*
X2035532Y1604237D02*
Y1719756D01*
Y1593137D02*
Y1598937D01*
Y1569821D02*
Y1587837D01*
Y1553337D02*
Y1564521D01*
Y1508646D02*
Y1515968D01*
Y1484759D02*
Y1490039D01*
X2034532Y1700730D02*
Y1719920D01*
Y1604237D02*
Y1694759D01*
Y1593137D02*
Y1598937D01*
Y1569818D02*
Y1587837D01*
Y1553237D02*
Y1564518D01*
Y1510512D02*
Y1516127D01*
Y1484595D02*
Y1488172D01*
X2033532Y1701752D02*
Y1720075D01*
Y1604237D02*
Y1693737D01*
Y1593137D02*
Y1598937D01*
Y1569815D02*
Y1587837D01*
Y1552792D02*
Y1564515D01*
Y1512030D02*
Y1516133D01*
Y1484439D02*
Y1486654D01*
X2032532Y1702349D02*
Y1720222D01*
Y1691234D02*
Y1693140D01*
Y1604237D02*
Y1663152D01*
Y1593137D02*
Y1598937D01*
Y1569813D02*
Y1587837D01*
Y1552579D02*
Y1564513D01*
Y1513314D02*
Y1516154D01*
Y1484293D02*
Y1485371D01*
X2031532Y1702679D02*
Y1720360D01*
Y1691940D02*
Y1692810D01*
Y1604237D02*
Y1662447D01*
Y1593137D02*
Y1598937D01*
Y1569810D02*
Y1587837D01*
Y1551933D02*
Y1564510D01*
Y1530750D02*
Y1531040D01*
Y1514423D02*
Y1516478D01*
Y1484161D02*
Y1484262D01*
X2030532Y1709304D02*
Y1720489D01*
Y1702794D02*
Y1705870D01*
Y1692039D02*
Y1692695D01*
Y1604237D02*
Y1662348D01*
Y1593137D02*
Y1598937D01*
Y1569808D02*
Y1587837D01*
Y1550763D02*
Y1564508D01*
Y1531127D02*
Y1532111D01*
Y1515393D02*
Y1517340D01*
X2029532Y1710955D02*
Y1720610D01*
Y1702709D02*
Y1704219D01*
Y1692039D02*
Y1692780D01*
Y1604237D02*
Y1662348D01*
Y1593137D02*
Y1598937D01*
Y1569805D02*
Y1587837D01*
Y1546536D02*
Y1564505D01*
Y1531137D02*
Y1540340D01*
Y1516249D02*
Y1518340D01*
X2028532Y1711799D02*
Y1720722D01*
Y1702412D02*
Y1703375D01*
Y1692039D02*
Y1693077D01*
Y1604237D02*
Y1662348D01*
Y1593137D02*
Y1598937D01*
Y1569803D02*
Y1587837D01*
Y1546532D02*
Y1564502D01*
Y1531137D02*
Y1541232D01*
Y1517008D02*
Y1519340D01*
X2027532Y1712292D02*
Y1720826D01*
Y1701860D02*
Y1702882D01*
Y1692039D02*
Y1693629D01*
Y1604237D02*
Y1662348D01*
Y1593137D02*
Y1598937D01*
Y1569800D02*
Y1587837D01*
Y1546527D02*
Y1564500D01*
Y1531137D02*
Y1541227D01*
Y1517680D02*
Y1520340D01*
X2026532Y1712541D02*
Y1720921D01*
Y1700920D02*
Y1702633D01*
Y1692039D02*
Y1694569D01*
Y1604237D02*
Y1662348D01*
Y1593137D02*
Y1598937D01*
Y1569797D02*
Y1587837D01*
Y1546523D02*
Y1564497D01*
Y1531137D02*
Y1541223D01*
Y1518276D02*
Y1521340D01*
X2025532Y1712581D02*
Y1721008D01*
Y1698853D02*
Y1702593D01*
Y1692039D02*
Y1696637D01*
Y1604237D02*
Y1662348D01*
Y1593137D02*
Y1598937D01*
Y1569795D02*
Y1587837D01*
Y1546519D02*
Y1564495D01*
Y1530876D02*
Y1541218D01*
Y1518803D02*
Y1521537D01*
X2024532Y1712418D02*
Y1721086D01*
Y1692039D02*
Y1702756D01*
Y1604237D02*
Y1662348D01*
Y1593137D02*
Y1598937D01*
Y1569792D02*
Y1587837D01*
Y1546514D02*
Y1564492D01*
Y1531098D02*
Y1541214D01*
Y1519266D02*
Y1521537D01*
X2023532Y1712029D02*
Y1721156D01*
Y1692039D02*
Y1703145D01*
Y1604237D02*
Y1662348D01*
Y1593137D02*
Y1598937D01*
Y1569790D02*
Y1587837D01*
Y1546510D02*
Y1564490D01*
Y1531137D02*
Y1541210D01*
Y1519668D02*
Y1521545D01*
X2022532Y1711346D02*
Y1721217D01*
Y1692039D02*
Y1703828D01*
Y1604237D02*
Y1662348D01*
Y1593137D02*
Y1598937D01*
Y1569787D02*
Y1587837D01*
Y1546505D02*
Y1564487D01*
Y1531137D02*
Y1541205D01*
Y1520015D02*
Y1521825D01*
X2021532Y1710142D02*
Y1721270D01*
Y1692039D02*
Y1705032D01*
Y1604237D02*
Y1662348D01*
Y1593137D02*
Y1598937D01*
Y1569785D02*
Y1587837D01*
Y1546501D02*
Y1564484D01*
Y1531137D02*
Y1541201D01*
Y1520309D02*
Y1522640D01*
X2020532Y1692039D02*
Y1721314D01*
Y1604237D02*
Y1662348D01*
Y1593137D02*
Y1598937D01*
Y1569782D02*
Y1587837D01*
Y1551582D02*
Y1564482D01*
Y1546497D02*
Y1546992D01*
Y1531137D02*
Y1537143D01*
Y1520551D02*
Y1523640D01*
X2019532Y1692039D02*
Y1721350D01*
Y1604237D02*
Y1662348D01*
Y1593137D02*
Y1598937D01*
Y1569779D02*
Y1587837D01*
Y1552583D02*
Y1564479D01*
Y1530974D02*
Y1536063D01*
Y1520744D02*
Y1524200D01*
X2018532Y1692039D02*
Y1721378D01*
Y1604237D02*
Y1662348D01*
Y1593137D02*
Y1598937D01*
Y1569777D02*
Y1587837D01*
Y1553090D02*
Y1564477D01*
Y1530066D02*
Y1535520D01*
Y1520888D02*
Y1525108D01*
X2017532Y1692039D02*
Y1721397D01*
Y1604237D02*
Y1662348D01*
Y1593137D02*
Y1598937D01*
Y1569774D02*
Y1587837D01*
Y1553294D02*
Y1564474D01*
Y1520986D02*
Y1535288D01*
X2016532Y1692039D02*
Y1721408D01*
Y1604237D02*
Y1662348D01*
Y1593137D02*
Y1598937D01*
Y1569772D02*
Y1587837D01*
Y1553244D02*
Y1564472D01*
Y1521037D02*
Y1535314D01*
X2015532Y1692039D02*
Y1721410D01*
Y1604237D02*
Y1662348D01*
Y1597663D02*
Y1598937D01*
Y1593137D02*
Y1593711D01*
Y1569769D02*
Y1587837D01*
Y1552928D02*
Y1564469D01*
Y1521042D02*
Y1535601D01*
X2014532Y1692039D02*
Y1721404D01*
Y1604237D02*
Y1662348D01*
Y1598834D02*
Y1598935D01*
Y1569766D02*
Y1587837D01*
Y1552262D02*
Y1564466D01*
Y1521001D02*
Y1536224D01*
X2013532Y1692039D02*
Y1721390D01*
Y1604237D02*
Y1662348D01*
Y1569764D02*
Y1587837D01*
Y1550853D02*
Y1564464D01*
Y1546466D02*
Y1547721D01*
Y1541071D02*
Y1541152D01*
Y1520914D02*
Y1537503D01*
X2012532Y1692039D02*
Y1721367D01*
Y1604237D02*
Y1662348D01*
Y1569761D02*
Y1587837D01*
Y1546461D02*
Y1564461D01*
Y1520779D02*
Y1541161D01*
X2011532Y1710584D02*
Y1721336D01*
Y1692039D02*
Y1704591D01*
Y1604237D02*
Y1662348D01*
Y1569759D02*
Y1587837D01*
Y1546457D02*
Y1564459D01*
Y1520597D02*
Y1541157D01*
X2010532Y1711586D02*
Y1721296D01*
Y1692039D02*
Y1703588D01*
Y1604237D02*
Y1662348D01*
Y1569756D02*
Y1587837D01*
Y1546452D02*
Y1564456D01*
Y1520365D02*
Y1541152D01*
X2009532Y1712170D02*
Y1721248D01*
Y1692039D02*
Y1703004D01*
Y1604237D02*
Y1662348D01*
Y1569754D02*
Y1587837D01*
Y1546448D02*
Y1564454D01*
Y1520083D02*
Y1541148D01*
X2008532Y1712488D02*
Y1721192D01*
Y1692039D02*
Y1702686D01*
Y1604237D02*
Y1662348D01*
Y1569751D02*
Y1587837D01*
Y1546444D02*
Y1564451D01*
Y1519748D02*
Y1541144D01*
X2007532Y1712590D02*
Y1721127D01*
Y1699756D02*
Y1702584D01*
Y1692039D02*
Y1695733D01*
Y1604237D02*
Y1662348D01*
Y1569748D02*
Y1587837D01*
Y1546439D02*
Y1564448D01*
Y1536705D02*
Y1540338D01*
Y1519358D02*
Y1530669D01*
X2006532Y1712490D02*
Y1721053D01*
Y1701253D02*
Y1702684D01*
Y1692039D02*
Y1694236D01*
Y1604237D02*
Y1662348D01*
Y1569746D02*
Y1587837D01*
Y1546343D02*
Y1564446D01*
Y1537432D02*
Y1539436D01*
Y1518909D02*
Y1529942D01*
X2005532Y1712175D02*
Y1720972D01*
Y1702054D02*
Y1702999D01*
Y1692039D02*
Y1693435D01*
Y1604237D02*
Y1662348D01*
Y1569743D02*
Y1587837D01*
Y1545819D02*
Y1564443D01*
Y1537537D02*
Y1539067D01*
Y1518396D02*
Y1529837D01*
X2004532Y1711595D02*
Y1720881D01*
Y1702524D02*
Y1703579D01*
Y1692039D02*
Y1692966D01*
Y1604237D02*
Y1662348D01*
Y1569741D02*
Y1587837D01*
Y1544834D02*
Y1564441D01*
Y1537537D02*
Y1539037D01*
Y1517816D02*
Y1529837D01*
X2003532Y1710600D02*
Y1720734D01*
Y1702755D02*
Y1704574D01*
Y1692039D02*
Y1692734D01*
Y1604237D02*
Y1662348D01*
Y1569738D02*
Y1587837D01*
Y1545686D02*
Y1564438D01*
Y1537537D02*
Y1537689D01*
Y1517161D02*
Y1529837D01*
X2002532Y1707885D02*
Y1720574D01*
Y1702781D02*
Y1707289D01*
Y1692039D02*
Y1692708D01*
Y1604936D02*
Y1662348D01*
Y1569736D02*
Y1587837D01*
Y1546198D02*
Y1564435D01*
Y1516422D02*
Y1529837D01*
X2001532Y1702606D02*
Y1720405D01*
Y1692039D02*
Y1692883D01*
Y1605936D02*
Y1662348D01*
Y1569733D02*
Y1587837D01*
Y1546237D02*
Y1564433D01*
Y1515588D02*
Y1529980D01*
X2000532Y1702205D02*
Y1720228D01*
Y1691857D02*
Y1693284D01*
Y1606936D02*
Y1662530D01*
Y1569730D02*
Y1587837D01*
Y1546237D02*
Y1564430D01*
Y1514644D02*
Y1530821D01*
X1999532Y1701507D02*
Y1720042D01*
Y1690884D02*
Y1693982D01*
Y1607936D02*
Y1660755D01*
Y1569728D02*
Y1587837D01*
Y1546237D02*
Y1564428D01*
Y1513568D02*
Y1530189D01*
Y1484213D02*
Y1485117D01*
X1998532Y1700279D02*
Y1719848D01*
Y1666551D02*
Y1695210D01*
Y1569725D02*
Y1587837D01*
Y1546237D02*
Y1564425D01*
Y1512326D02*
Y1529842D01*
Y1484355D02*
Y1486358D01*
X1997532Y1667023D02*
Y1719646D01*
Y1569723D02*
Y1587837D01*
Y1545976D02*
Y1564423D01*
Y1510866D02*
Y1529837D01*
Y1484505D02*
Y1487818D01*
X1996532Y1667201D02*
Y1719435D01*
Y1569720D02*
Y1587837D01*
Y1544633D02*
Y1564420D01*
Y1537537D02*
Y1538741D01*
Y1509090D02*
Y1529837D01*
Y1484664D02*
Y1489595D01*
X1995532Y1667125D02*
Y1719215D01*
Y1569717D02*
Y1587837D01*
Y1537537D02*
Y1564417D01*
Y1506774D02*
Y1529837D01*
Y1484832D02*
Y1491911D01*
X1994532Y1666779D02*
Y1718987D01*
Y1569715D02*
Y1587837D01*
Y1537522D02*
Y1564415D01*
Y1526757D02*
Y1529852D01*
Y1503009D02*
Y1523617D01*
Y1485008D02*
Y1495675D01*
X1993532Y1666069D02*
Y1718750D01*
Y1659360D02*
Y1660306D01*
Y1569712D02*
Y1587837D01*
Y1537111D02*
Y1564412D01*
Y1528164D02*
Y1530263D01*
Y1485194D02*
Y1522210D01*
X1992532Y1664491D02*
Y1718504D01*
Y1661170D02*
Y1661883D01*
Y1569710D02*
Y1587837D01*
Y1536337D02*
Y1564410D01*
Y1528829D02*
Y1531037D01*
Y1485388D02*
Y1521545D01*
X1991532Y1661929D02*
Y1718250D01*
Y1569707D02*
Y1587837D01*
Y1536337D02*
Y1564407D01*
Y1529144D02*
Y1531037D01*
Y1485591D02*
Y1521230D01*
X1990532Y1662304D02*
Y1717987D01*
Y1569705D02*
Y1587837D01*
Y1536341D02*
Y1564405D01*
Y1529194D02*
Y1531037D01*
Y1485803D02*
Y1521180D01*
X1989532Y1662404D02*
Y1717715D01*
Y1569702D02*
Y1587837D01*
Y1537272D02*
Y1564402D01*
Y1528989D02*
Y1531037D01*
Y1486024D02*
Y1521385D01*
X1988532Y1662252D02*
Y1717434D01*
Y1569699D02*
Y1587837D01*
Y1537690D02*
Y1564399D01*
Y1528482D02*
Y1531195D01*
Y1486254D02*
Y1521893D01*
X1987532Y1661813D02*
Y1717144D01*
Y1569697D02*
Y1587837D01*
Y1537737D02*
Y1564397D01*
Y1527806D02*
Y1531840D01*
Y1520919D02*
Y1522505D01*
Y1486493D02*
Y1511756D01*
X1986532Y1660943D02*
Y1716845D01*
Y1651217D02*
Y1655831D01*
Y1569694D02*
Y1587837D01*
Y1537737D02*
Y1564394D01*
Y1527796D02*
Y1532437D01*
Y1521919D02*
Y1522496D01*
Y1486742D02*
Y1510756D01*
X1985532Y1650217D02*
Y1716537D01*
Y1585383D02*
Y1587837D01*
Y1569692D02*
Y1584591D01*
Y1537737D02*
Y1564392D01*
Y1531898D02*
Y1532437D01*
Y1527787D02*
Y1528277D01*
Y1486999D02*
Y1510002D01*
X1984532Y1649341D02*
Y1716219D01*
Y1587662D02*
Y1587837D01*
Y1569689D02*
Y1582312D01*
Y1537858D02*
Y1564389D01*
Y1487266D02*
Y1509744D01*
X1983532Y1649344D02*
Y1715893D01*
Y1569687D02*
Y1581501D01*
Y1538261D02*
Y1564387D01*
Y1487542D02*
Y1509737D01*
X1982532Y1649347D02*
Y1715557D01*
Y1569684D02*
Y1581095D01*
Y1538337D02*
Y1564384D01*
Y1487828D02*
Y1509737D01*
X1981532Y1649349D02*
Y1715211D01*
Y1569681D02*
Y1580969D01*
Y1538337D02*
Y1564381D01*
Y1488123D02*
Y1509737D01*
X1980532Y1649352D02*
Y1714856D01*
Y1569679D02*
Y1581095D01*
Y1538337D02*
Y1564379D01*
Y1488427D02*
Y1509737D01*
X1979532Y1649355D02*
Y1714492D01*
Y1569676D02*
Y1581502D01*
Y1538337D02*
Y1564376D01*
Y1488741D02*
Y1509737D01*
X1978532Y1649358D02*
Y1714117D01*
Y1587660D02*
Y1587837D01*
Y1569674D02*
Y1582314D01*
Y1538337D02*
Y1564374D01*
Y1489065D02*
Y1509737D01*
X1977532Y1649361D02*
Y1713733D01*
Y1585362D02*
Y1587837D01*
Y1569671D02*
Y1584612D01*
Y1538323D02*
Y1564371D01*
Y1489399D02*
Y1507274D01*
X1976532Y1649364D02*
Y1713339D01*
Y1569669D02*
Y1587837D01*
Y1548250D02*
Y1564368D01*
Y1538065D02*
Y1541924D01*
Y1489743D02*
Y1506159D01*
X1975532Y1649367D02*
Y1712936D01*
Y1569666D02*
Y1587837D01*
Y1548627D02*
Y1564366D01*
Y1490096D02*
Y1505457D01*
X1974532Y1649369D02*
Y1712521D01*
Y1569663D02*
Y1587837D01*
Y1548637D02*
Y1564363D01*
Y1490460D02*
Y1505239D01*
X1973532Y1649372D02*
Y1712097D01*
Y1569661D02*
Y1587837D01*
Y1548637D02*
Y1564361D01*
Y1490833D02*
Y1505237D01*
X1972532Y1649375D02*
Y1711663D01*
Y1569658D02*
Y1587837D01*
Y1548637D02*
Y1564358D01*
Y1491217D02*
Y1505237D01*
X1971532Y1649378D02*
Y1711218D01*
Y1569656D02*
Y1587837D01*
Y1548637D02*
Y1564356D01*
Y1491612D02*
Y1505240D01*
X1970532Y1649381D02*
Y1710762D01*
Y1569653D02*
Y1587837D01*
Y1548376D02*
Y1564353D01*
Y1492017D02*
Y1505246D01*
X1969532Y1649384D02*
Y1710296D01*
Y1569650D02*
Y1587837D01*
Y1548598D02*
Y1564350D01*
Y1492432D02*
Y1505251D01*
X1968532Y1649387D02*
Y1709819D01*
Y1569648D02*
Y1587837D01*
Y1548637D02*
Y1564348D01*
Y1492858D02*
Y1505257D01*
X1967532Y1649389D02*
Y1709331D01*
Y1569645D02*
Y1587837D01*
Y1548637D02*
Y1564345D01*
Y1493295D02*
Y1505263D01*
X1966532Y1649392D02*
Y1708832D01*
Y1569643D02*
Y1587837D01*
Y1548637D02*
Y1564343D01*
Y1493743D02*
Y1505269D01*
X1965532Y1649395D02*
Y1708322D01*
Y1569640D02*
Y1587837D01*
Y1548637D02*
Y1564340D01*
Y1494202D02*
Y1505275D01*
X1964532Y1675923D02*
Y1707800D01*
Y1649398D02*
Y1669218D01*
Y1569638D02*
Y1587837D01*
Y1548474D02*
Y1564338D01*
Y1494673D02*
Y1505280D01*
X1963532Y1679859D02*
Y1707267D01*
Y1649401D02*
Y1665282D01*
Y1569635D02*
Y1587837D01*
Y1547737D02*
Y1564335D01*
Y1495155D02*
Y1505286D01*
X1962532Y1682215D02*
Y1706722D01*
Y1649404D02*
Y1662926D01*
Y1569632D02*
Y1587837D01*
Y1547720D02*
Y1564332D01*
Y1495648D02*
Y1505292D01*
X1961532Y1684012D02*
Y1706165D01*
Y1649407D02*
Y1661130D01*
Y1569630D02*
Y1587837D01*
Y1547396D02*
Y1564330D01*
Y1496153D02*
Y1505298D01*
X1960532Y1685485D02*
Y1705596D01*
Y1649409D02*
Y1659656D01*
Y1569627D02*
Y1587837D01*
Y1546534D02*
Y1564327D01*
Y1496670D02*
Y1505303D01*
X1959532Y1686736D02*
Y1705014D01*
Y1649412D02*
Y1658405D01*
Y1569625D02*
Y1587837D01*
Y1545534D02*
Y1564325D01*
Y1497199D02*
Y1505309D01*
X1958532Y1687820D02*
Y1704421D01*
Y1649415D02*
Y1657321D01*
Y1569622D02*
Y1587837D01*
Y1544533D02*
Y1564322D01*
Y1497740D02*
Y1505315D01*
X1957532Y1688771D02*
Y1703814D01*
Y1649418D02*
Y1656370D01*
Y1569620D02*
Y1587837D01*
Y1538323D02*
Y1564319D01*
Y1498294D02*
Y1505321D01*
X1956532Y1689610D02*
Y1703195D01*
Y1649421D02*
Y1655532D01*
Y1569617D02*
Y1587837D01*
Y1538065D02*
Y1564317D01*
Y1498860D02*
Y1505327D01*
X1955532Y1690353D02*
Y1702562D01*
Y1649424D02*
Y1654788D01*
Y1569614D02*
Y1587931D01*
Y1537737D02*
Y1564314D01*
Y1499439D02*
Y1505332D01*
X1954532Y1691012D02*
Y1701916D01*
Y1649427D02*
Y1654129D01*
Y1569612D02*
Y1588455D01*
Y1537737D02*
Y1564312D01*
Y1500031D02*
Y1505344D01*
X1953532Y1691596D02*
Y1701257D01*
Y1649429D02*
Y1653545D01*
Y1569609D02*
Y1589440D01*
Y1537737D02*
Y1564309D01*
Y1500637D02*
Y1505602D01*
X1952532Y1692112D02*
Y1700583D01*
Y1649929D02*
Y1653029D01*
Y1569607D02*
Y1590440D01*
Y1537689D02*
Y1564307D01*
Y1501256D02*
Y1506358D01*
X1951532Y1692564D02*
Y1699896D01*
Y1650244D02*
Y1652577D01*
Y1569604D02*
Y1591440D01*
Y1537271D02*
Y1564304D01*
Y1501889D02*
Y1507358D01*
X1950532Y1692958D02*
Y1699194D01*
Y1650294D02*
Y1652183D01*
Y1569602D02*
Y1592440D01*
Y1536334D02*
Y1564301D01*
Y1502536D02*
Y1508358D01*
X1949532Y1693296D02*
Y1698477D01*
Y1650089D02*
Y1651845D01*
Y1569599D02*
Y1593440D01*
Y1535334D02*
Y1564299D01*
Y1503197D02*
Y1509358D01*
X1948532Y1693580D02*
Y1697745D01*
Y1649582D02*
Y1651561D01*
Y1569596D02*
Y1594440D01*
Y1535237D02*
Y1564296D01*
Y1503873D02*
Y1510361D01*
X1947532Y1693814D02*
Y1696998D01*
Y1649137D02*
Y1651327D01*
Y1569594D02*
Y1595440D01*
Y1535237D02*
Y1564294D01*
Y1504563D02*
Y1522758D01*
X1946532Y1693999D02*
Y1696235D01*
Y1649137D02*
Y1651142D01*
Y1592814D02*
Y1595848D01*
Y1569591D02*
Y1586826D01*
Y1535237D02*
Y1564291D01*
Y1505269D02*
Y1523238D01*
X1945532Y1694136D02*
Y1695455D01*
Y1649137D02*
Y1651005D01*
Y1593832D02*
Y1595855D01*
Y1569589D02*
Y1585808D01*
Y1535237D02*
Y1564289D01*
Y1505991D02*
Y1523238D01*
X1944532Y1694226D02*
Y1694660D01*
Y1649137D02*
Y1650915D01*
Y1594428D02*
Y1595861D01*
Y1569586D02*
Y1585212D01*
Y1536799D02*
Y1564286D01*
Y1506728D02*
Y1523239D01*
X1943532Y1649137D02*
Y1650871D01*
Y1594756D02*
Y1595868D01*
Y1569583D02*
Y1584884D01*
Y1537345D02*
Y1564283D01*
Y1507482D02*
Y1522504D01*
X1942532Y1649137D02*
Y1650874D01*
Y1594870D02*
Y1595873D01*
Y1569581D02*
Y1584770D01*
Y1537393D02*
Y1564281D01*
Y1508252D02*
Y1521818D01*
X1941532Y1649137D02*
Y1650923D01*
Y1569578D02*
Y1584857D01*
Y1537393D02*
Y1564278D01*
Y1509040D02*
Y1521437D01*
X1940532Y1649137D02*
Y1651018D01*
Y1569576D02*
Y1585155D01*
Y1537393D02*
Y1564276D01*
Y1509845D02*
Y1521289D01*
X1939532Y1649137D02*
Y1651160D01*
Y1569573D02*
Y1585709D01*
Y1537393D02*
Y1564273D01*
Y1510667D02*
Y1521352D01*
X1938532Y1649137D02*
Y1651351D01*
Y1569571D02*
Y1581933D01*
Y1537393D02*
Y1564271D01*
Y1511509D02*
Y1521635D01*
X1937532Y1649137D02*
Y1651590D01*
Y1569568D02*
Y1580807D01*
Y1537392D02*
Y1564268D01*
Y1512369D02*
Y1522186D01*
X1936532Y1648956D02*
Y1651881D01*
Y1569565D02*
Y1580157D01*
Y1537107D02*
Y1564265D01*
Y1513249D02*
Y1523150D01*
X1935532Y1648317D02*
Y1652225D01*
Y1569563D02*
Y1579790D01*
Y1535485D02*
Y1564263D01*
Y1528941D02*
Y1529689D01*
Y1514150D02*
Y1523241D01*
X1934532Y1647317D02*
Y1652625D01*
Y1569560D02*
Y1579642D01*
Y1528941D02*
Y1564260D01*
Y1515070D02*
Y1523241D01*
X1933532Y1646313D02*
Y1653084D01*
Y1569558D02*
Y1579695D01*
Y1528941D02*
Y1564258D01*
Y1516013D02*
Y1523241D01*
X1932532Y1617192D02*
Y1653607D01*
Y1569555D02*
Y1579956D01*
Y1548702D02*
Y1564255D01*
Y1516977D02*
Y1523241D01*
X1931532Y1616011D02*
Y1654200D01*
Y1569553D02*
Y1580462D01*
Y1550119D02*
Y1564252D01*
Y1517965D02*
Y1523241D01*
X1930532Y1612026D02*
Y1654868D01*
Y1569550D02*
Y1577074D01*
Y1551119D02*
Y1564250D01*
Y1518976D02*
Y1523269D01*
X1929532Y1612663D02*
Y1655622D01*
Y1569547D02*
Y1575819D01*
Y1552118D02*
Y1564247D01*
Y1520011D02*
Y1523607D01*
X1928532Y1613021D02*
Y1656473D01*
Y1569545D02*
Y1575110D01*
Y1552756D02*
Y1564245D01*
Y1521072D02*
Y1524458D01*
X1927532Y1613160D02*
Y1657437D01*
Y1569542D02*
Y1574702D01*
Y1552937D02*
Y1564242D01*
Y1522160D02*
Y1525505D01*
X1926532Y1613099D02*
Y1658538D01*
Y1597109D02*
Y1597637D01*
Y1569632D02*
Y1574520D01*
Y1552937D02*
Y1564240D01*
Y1523276D02*
Y1547058D01*
X1925532Y1612830D02*
Y1659811D01*
Y1595983D02*
Y1597637D01*
Y1570628D02*
Y1574540D01*
Y1552937D02*
Y1564237D01*
Y1524420D02*
Y1547237D01*
X1924532Y1612312D02*
Y1661315D01*
Y1591789D02*
Y1597637D01*
Y1571623D02*
Y1574764D01*
Y1552937D02*
Y1564433D01*
Y1525594D02*
Y1547237D01*
X1923532Y1611433D02*
Y1663159D01*
Y1592438D02*
Y1597637D01*
Y1572619D02*
Y1575225D01*
Y1552937D02*
Y1565140D01*
Y1526800D02*
Y1547237D01*
X1922532Y1609664D02*
Y1665609D01*
Y1606294D02*
Y1606564D01*
Y1592806D02*
Y1597637D01*
Y1552937D02*
Y1566135D01*
Y1528039D02*
Y1547237D01*
X1921532Y1607120D02*
Y1670052D01*
Y1592953D02*
Y1597637D01*
Y1553383D02*
Y1567131D01*
Y1529312D02*
Y1546791D01*
X1920532Y1607607D02*
Y1669035D01*
Y1592900D02*
Y1597795D01*
Y1553890D02*
Y1568127D01*
Y1530623D02*
Y1546284D01*
X1919532Y1607852D02*
Y1667588D01*
Y1592639D02*
Y1597849D01*
Y1554094D02*
Y1569122D01*
Y1531971D02*
Y1546080D01*
X1918532Y1607891D02*
Y1666096D01*
Y1592133D02*
Y1597810D01*
Y1554044D02*
Y1569402D01*
Y1533361D02*
Y1546130D01*
X1917532Y1607729D02*
Y1664556D01*
Y1591272D02*
Y1597972D01*
Y1553728D02*
Y1569389D01*
Y1534794D02*
Y1546446D01*
X1916532Y1607344D02*
Y1662965D01*
Y1589574D02*
Y1598357D01*
Y1553062D02*
Y1569579D01*
Y1536274D02*
Y1547112D01*
X1915532Y1606670D02*
Y1661318D01*
Y1598783D02*
Y1599031D01*
Y1587783D02*
Y1594866D01*
Y1551653D02*
Y1569996D01*
Y1537803D02*
Y1548521D01*
X1914532Y1605493D02*
Y1659612D01*
Y1588629D02*
Y1594247D01*
Y1539385D02*
Y1570718D01*
X1913532Y1602014D02*
Y1657842D01*
Y1588759D02*
Y1593628D01*
Y1576838D02*
Y1577062D01*
Y1541024D02*
Y1572004D01*
X1912532Y1603359D02*
Y1656001D01*
Y1588363D02*
Y1593009D01*
Y1542725D02*
Y1576504D01*
X1911532Y1603754D02*
Y1654083D01*
Y1587734D02*
Y1592390D01*
Y1544493D02*
Y1576432D01*
X1910532Y1603616D02*
Y1652080D01*
Y1587106D02*
Y1591771D01*
Y1571732D02*
Y1576915D01*
X1909532Y1603031D02*
Y1609423D01*
Y1586477D02*
Y1591414D01*
Y1571732D02*
Y1578349D01*
X1908532Y1602411D02*
Y1609404D01*
Y1585848D02*
Y1591582D01*
Y1571732D02*
Y1579940D01*
X1907532Y1601792D02*
Y1609384D01*
Y1585218D02*
Y1592517D01*
Y1571732D02*
Y1581531D01*
X1906532Y1571732D02*
Y1590965D01*
X1905532Y1571732D02*
Y1588997D01*
X1938532Y1592987D02*
Y1593511D01*
X1937532Y1590899D02*
Y1593551D01*
Y1588620D02*
Y1588741D01*
X1936532Y1589216D02*
Y1593797D01*
X1935532Y1589584D02*
Y1594285D01*
X1934532Y1594899D02*
Y1595090D01*
Y1589732D02*
Y1591561D01*
X1933532Y1589678D02*
Y1589866D01*
X1856691Y1703571D02*
Y1542415D01*
X1904172*
X1904193Y1542373D02*
G03X1904701Y1658608I112614J57627D01*
G01X1904723Y1658650D02*
X1896849D01*
Y1703571*
X1856691*
X1904723Y1652390D02*
G03X1904723I-3937J0D01*
G01Y1640579D02*
G03X1904723I-3937J0D01*
G01Y1624831D02*
G03X1904723I-3937J0D01*
G01X1896849Y1614989D02*
X1904723D01*
Y1573650*
X1896849*
Y1614989*
X1904723Y1567745D02*
G03X1904723I-3937J0D01*
G01Y1551997D02*
G03X1904723I-3937J0D01*
G01X2005392Y1697666D02*
G03X2005392I-2953J0D01*
G01X2027046Y1707508D02*
G03X2027046I-1969J0D01*
G01X2037872Y1499201D02*
G03X2037872I-21653J0D01*
G01X1941515Y1588639D02*
G03X1941515I-1574J0D01*
G01X1915966Y1572915D02*
G03X1915966I-1574J0D01*
G01X1927758Y1591914D02*
G03X1927758I-1575J0D01*
G01X1919241Y1586672D02*
G03X1919241I-1574J0D01*
G01X1924483Y1578156D02*
G03X1924483I-1575J0D01*
G01X1910725Y1581431D02*
G03X1910725I-1575J0D01*
G01X1932999Y1583397D02*
G03X1932999I-1575J0D01*
G01X1936274Y1597155D02*
G03X1936274I-1575J0D01*
G01X2009329Y1707508D02*
G03X2009329I-1968J0D01*
G01X2032951Y1697666D02*
G03X2032951I-2953J0D01*
G01X2024683Y1499201D02*
G03X2024683I-8464J0D01*
G01X2002046Y1668640D02*
Y1686061D01*
X2026455Y1664703D02*
X2005983D01*
X2030392Y1686061D02*
Y1668640D01*
X2005983Y1689998D02*
X2026455D01*
X2002046Y1668640D02*
G03X2005983Y1664703I3937J0D01*
G01X2026455D02*
G03X2030392Y1668640I0J3937D01*
G01Y1686061D02*
G03X2026455Y1689998I-3937J0D01*
G01X2005983D02*
G03X2002046Y1686061I-0J-3937D01*
G01X2002727Y1680684D02*
X2002062Y1680503D01*
X1951848Y1671670D02*
G03X1951848I-8465J0D01*
G01X1965036D02*
G03X1965036I-21653J0D01*
G01X2097519D02*
G03X2097519I-8464J0D01*
G01X2110708D02*
G03X2110708I-21653J0D01*
G01X1880707Y1648453D02*
G03X1880707I-5512J0D01*
G54D11*
G01X2022233Y1527587D03*
X2028433D03*
X1973433Y1545087D03*
X1967233D03*
X2075933Y1525087D03*
X2069733D03*
X2075933Y1515087D03*
X2069733D03*
G54D13*
X2075333Y1582449D03*
Y1577725D03*
G54D15*
X2115333Y1559083D03*
Y1586583D03*
Y1611583D03*
X1940333Y1526091D03*
X2096829Y1527587D03*
G54D16*
X1911143Y1601029D02*
X1906891Y1598397D01*
X1906891D02*
X1909523Y1594146D01*
X1913775Y1596777*
X1911143Y1601029*
X1909250Y1594587D02*
X1910237D01*
X1908631Y1595587D02*
X1911852D01*
X1908012Y1596587D02*
X1913467D01*
X1907393Y1597587D02*
X1913273D01*
X1907199Y1598587D02*
X1912654D01*
X1908814Y1599587D02*
X1912035D01*
X1910430Y1600587D02*
X1911416D01*
X1906891Y1598397D02*
X1906891D01*
X1907891Y1596781D02*
Y1599016D01*
X1908891Y1595166D02*
Y1599635D01*
X1909891Y1594373D02*
Y1600254D01*
X1910891Y1594993D02*
Y1600873D01*
X1911891Y1595612D02*
Y1599819D01*
X1912891Y1596231D02*
Y1598204D01*
X1913619Y1586034D02*
X1909386Y1583373D01*
X1912047Y1579140*
X1916280Y1581801*
X1913619Y1586034*
X1911766Y1579587D02*
X1912758D01*
X1911137Y1580587D02*
X1914349D01*
X1910509Y1581587D02*
X1915940D01*
X1909880Y1582587D02*
X1915786D01*
X1909726Y1583587D02*
X1915157D01*
X1911317Y1584587D02*
X1914529D01*
X1912908Y1585587D02*
X1913900D01*
X1909386Y1583373D02*
X1909386D01*
X1910386Y1581782D02*
Y1584002D01*
X1911386Y1580191D02*
Y1584630D01*
X1912386Y1579353D02*
Y1585259D01*
X1913386Y1579982D02*
Y1585887D01*
X1914386Y1580610D02*
Y1584814D01*
X1915386Y1581239D02*
Y1583223D01*
G54D17*
X1918836Y1602851D03*
X1927338Y1608114D03*
X1935841Y1613377D03*
X1917966Y1574421D03*
X1921299Y1587909D03*
X1926133Y1579554D03*
X1929766Y1593230D03*
X1934299Y1584687D03*
X1938232Y1598552D03*
X1942465Y1589820D03*
X2030459Y1697745D03*
X2002900D03*
G54D20*
X2016233Y1499087D03*
X1943383Y1671687D03*
X2088983Y1671737D03*
G54D21*
X1872046Y1698354D03*
X1874605D03*
X1877164D03*
X1879723D03*
X1882282D03*
G54D22*
X1873227Y1687823D03*
X1881101D03*
X1865156D03*
X1889172D03*
G54D23*
X1867321Y1698453D03*
X1887007D03*
G54D24*
X1863384Y1687823D03*
X1890944D03*
G54D25*
X2025833Y1707587D03*
X2007526D03*
G54D28*
X1900786Y1652390D03*
Y1640579D03*
Y1567745D03*
Y1624831D03*
Y1551997D03*
Y1579556D03*
G54D29*
Y1603178D03*
G54D30*
X2016140Y1677193D03*
G54D31*
X1875195Y1648453D03*
G54D32*
Y1553965D03*
G54D33*
X1885038D03*
G54D34*
X1940333Y1532587D02*
X1950533D01*
X1953033Y1535087*
X1960333*
X1964939Y1512587D02*
X1967433D01*
X1968933Y1514087*
Y1528587*
X1970433Y1530087*
X1980333*
X1960333Y1535087D02*
X1960433Y1542687D01*
X1962833Y1545087*
X1967233*
X1980233Y1530087D02*
X1976033D01*
X1973333Y1532787*
X1973433Y1545087*
X1980333Y1525087D02*
X1990833Y1525187D01*
X2000333Y1541687D02*
X2005133D01*
X2007234Y1543788*
X2029733Y1543887*
X1996583Y1533687D02*
X1989433D01*
X1988033Y1535087*
X1980333*
X2039172Y1523867D02*
X2036133Y1523887D01*
X2034733Y1525287*
Y1531587*
X2032733Y1533587*
Y1535887*
X2039172Y1518748D02*
X2032833Y1518787D01*
X2027433Y1524187*
X2023733*
X2022233Y1525687*
Y1527587*
X2037833Y1540087D02*
X2033833D01*
X2032733Y1540887*
X2037833Y1535087D02*
X2033533D01*
X2032733Y1535887*
Y1540887*
X2039172Y1526426D02*
X2042633Y1526387D01*
X2044133Y1527887*
Y1533487*
X2045733Y1535087*
X2057833*
X2032733Y1546087D02*
Y1540887D01*
X2029733Y1543887*
X2069733Y1515087D02*
X2058033D01*
X2056494Y1516626*
Y1518748*
X2069733Y1525087D02*
Y1526987D01*
X2068733Y1527987*
X2063333Y1519787D02*
X2061833Y1521287D01*
X2056494Y1521307*
Y1526426D02*
X2064033Y1526387D01*
X2065633Y1527987*
X2068733*
X1875195Y1553965D02*
X1875333Y1580987D01*
X1862633Y1593687*
Y1649887*
X1872233Y1659387*
X1872133Y1693587*
X1917966Y1574421D02*
X1925533Y1566887D01*
X2041933Y1567187*
X2044833*
X2037833Y1545087D02*
X2034133D01*
X2032733Y1546087*
Y1549287*
X2033433Y1550087*
X2037833*
X1938232Y1598552D02*
X1934068D01*
X1932333Y1600287*
X1921433*
X1918836Y1602851*
X2040033Y1587887D02*
X2037433Y1590487D01*
X1956233*
X1948233Y1598487*
X1938232Y1598552*
X2038933Y1601587D02*
X2002133D01*
X1996433Y1607287*
X1996333Y1663187*
G54D35*
X1940333Y1526091D02*
X1930929D01*
X1929833Y1527187*
Y1547787*
X1927533Y1550087*
X1919233*
X1975333Y1512587D02*
X1984333D01*
X1985633Y1513887*
Y1518787*
X1984333Y1520087*
X1980333*
X1972033Y1508087D02*
X1954733Y1508187D01*
X1950633Y1512287*
X1950533Y1523787*
X1948233Y1526087*
X1940333Y1526091*
X1972033Y1508087D02*
X1974433D01*
X1975333Y1509087*
Y1512587*
X2004083Y1533687D02*
X2014733D01*
X2017133Y1536087*
Y1539287*
X2064233Y1523887D02*
X2056494Y1523867D01*
X2052333Y1524087*
X2050533Y1525887*
Y1528887*
X2051733Y1530087*
X2033633Y1521287D02*
X2031133Y1527587D01*
X2028433*
X2033633Y1521287D02*
X2039172Y1521307D01*
X2082933Y1515087D02*
X2075933D01*
Y1525087*
X2083233*
X2085733Y1527587*
X2090333*
X2057833Y1540087D02*
X2061533D01*
X2061703Y1540158*
X2062044Y1540300*
X2083433Y1535087D02*
Y1535085D01*
X2083233Y1538587*
X2081533Y1540187*
Y1545087*
X2096829Y1527587D02*
X2096833Y1533287D01*
X2095033Y1535087*
X2083433*
X2051733Y1530087D02*
X2062333Y1529987D01*
X2064633Y1532287*
Y1538687*
X2062044Y1540300*
X2095133Y1522387D02*
X2096733Y1524087D01*
X2096829Y1527587*
X2095133Y1522387D02*
X2089133Y1522487D01*
X2062044Y1540300D02*
X2062733Y1540587D01*
Y1545487*
X2085333Y1510487D02*
X2087833Y1512987D01*
X2087733Y1520987*
X2089133Y1522487*
X2085333Y1510487D02*
X2048833Y1510587D01*
X2046433Y1512987*
Y1519787*
X2044913Y1521307*
X2039172*
X2072433Y1521587D02*
X2066533D01*
X2064233Y1523887*
X2072433Y1521587D02*
X2075933Y1525087D01*
X2017233Y1549287D02*
Y1551887D01*
X2019833Y1554587*
X2025633*
X2063533Y1555187*
X2057833Y1545087D02*
X2062033D01*
X2062733Y1545487*
X2081533Y1545087D02*
X2097833Y1545187D01*
X2099133Y1546687*
Y1555087*
X2062733Y1545487D02*
Y1549187D01*
X2061833Y1550087*
X2057833*
X2093533Y1549887D02*
X2068833Y1549987D01*
X2065633Y1553087*
X2063533Y1555187*
X2099133Y1555087D02*
X2091633Y1555187D01*
X2089533Y1557287*
Y1572887*
X2091933Y1575187*
X2101733Y1575087D02*
X2091933Y1575187D01*
X2115333Y1580087D02*
X2108433D01*
X2106933Y1581587*
Y1588587*
X2105333Y1590187*
X2115333Y1552587D02*
X2119433D01*
X2121433Y1554587*
Y1578087*
X2119433Y1580087*
X2115333*
Y1552587D02*
X2113133Y1552687D01*
X2110633Y1555187*
X2110533Y1563687*
X2109133Y1565087*
X2101833Y1565187*
X1929766Y1588787D02*
X1928473D01*
X1922537Y1592387*
X1912685Y1593787*
X1910333Y1597587*
X1929766Y1588787D02*
X1931633D01*
X1932433Y1589087*
X1936833Y1589820*
X1942465*
X1935841Y1613377D02*
X1935633Y1644387D01*
X1937533Y1646287*
X1950833*
X2012033Y1595687D02*
X1965933Y1595587D01*
X1961733Y1599787*
X1961833Y1617587*
X1981533Y1584987D02*
X1947333Y1585087D01*
X1942465Y1589820*
X2079033Y1590087D02*
X2105333Y1590187D01*
X2101233Y1604987D02*
X2101333Y1636487D01*
X2105333Y1590187D02*
X2109633Y1594487D01*
X2113233*
X2115333Y1596587*
Y1605087*
X1950833Y1646287D02*
Y1646587D01*
X1985833Y1646487*
X1989533Y1650187*
X1989633Y1658387*
G54D38*
X2020075Y1552129D02*
X2018625Y1550679D01*
X2014392Y1552129D02*
X2015841Y1550679D01*
X2014292Y1536446D02*
X2015741Y1537895D01*
X2019975Y1536446D02*
X2018525Y1537895D01*
X2081875Y1592929D02*
X2080425Y1591479D01*
X2076192Y1592929D02*
X2077641Y1591479D01*
X2076192Y1587246D02*
X2077641Y1588695D01*
X2081875Y1587246D02*
X2080425Y1588695D01*
X1978692Y1582146D02*
X1980141Y1583595D01*
X1984375Y1582146D02*
X1982925Y1583595D01*
X2104675Y1568029D02*
X2103225Y1566579D01*
X2098992Y1568029D02*
X2100441Y1566579D01*
X2098992Y1562346D02*
X2100441Y1563795D01*
X2104675Y1562346D02*
X2103225Y1563795D01*
G54D39*
X2115333Y1552587D03*
Y1580087D03*
Y1605087D03*
X1940333Y1532587D03*
X2090333Y1527587D03*
G54D40*
X2004083Y1533687D03*
X1996583D03*
G54D41*
X2000333Y1541687D03*
G54D42*
X1980333Y1535087D03*
Y1530087D03*
Y1525087D03*
Y1520087D03*
X1960333D03*
Y1525087D03*
Y1530087D03*
Y1535087D03*
X2057833Y1550087D03*
Y1545087D03*
Y1540087D03*
Y1535087D03*
X2037833D03*
Y1540087D03*
Y1545087D03*
Y1550087D03*
G54D43*
X1975333Y1512587D03*
X1964939D03*
G54D44*
X2056494Y1526426D03*
Y1523867D03*
Y1521307D03*
Y1518748D03*
X2039172D03*
Y1521307D03*
Y1523867D03*
Y1526426D03*
G54D45*
X1980333Y1530087D02*
X1980233D01*
G54D46*
X1990833Y1525187D03*
X2017133Y1539287D03*
X2082933Y1515087D03*
X2063333Y1519787D03*
X2083433Y1535087D03*
X1919233Y1550087D03*
X2017233Y1549287D03*
X2044833Y1567187D03*
X2081533Y1545087D03*
X2093533Y1549887D03*
X2099133Y1555087D03*
X2101733Y1575087D03*
X2101833Y1565187D03*
X1961833Y1617587D03*
X1981533Y1584987D03*
X2012033Y1595687D03*
X2040033Y1587887D03*
X2038933Y1601587D03*
X2079033Y1590087D03*
X2101233Y1604987D03*
X1950833Y1646287D03*
X1996333Y1663187D03*
X1989633Y1658387D03*
X2101333Y1636487D03*
X1872133Y1693587D03*
G74*
X0Y0D02*
M02*
