*
*
G04 PADS 9.3 Build Number: 433611 generated Gerber (RS-274-X) file*
G04 PC Version=2.1*
*
%IN "Circuit_Board.pcb"*%
*
%MOIN*%
*
%FSLAX35Y35*%
*
*
*
*
G04 PC Standard Apertures*
*
*
G04 Thermal Relief Aperture macro.*
%AMTER*
1,1,$1,0,0*
1,0,$1-$2,0,0*
21,0,$3,$4,0,0,45*
21,0,$3,$4,0,0,135*
%
*
*
G04 Annular Aperture macro.*
%AMANN*
1,1,$1,0,0*
1,0,$2,0,0*
%
*
*
G04 Odd Aperture macro.*
%AMODD*
1,1,$1,0,0*
1,0,$1-0.005,0,0*
%
*
*
G04 PC Custom Aperture Macros*
*
*
*
*
*
*
G04 PC Aperture Table*
*
%ADD010C,0.001*%
%ADD016C,0.01*%
*
*
*
*
G04 PC Circuitry*
G04 Layer Name Circuit_Board.pcb - circuitry*
%LPD*%
*
*
G04 PC Custom Flashes*
G04 Layer Name Circuit_Board.pcb - flashes*
%LPD*%
*
*
G04 PC Circuitry*
G04 Layer Name Circuit_Board.pcb - circuitry*
%LPD*%
*
G54D10*
G01X1738333Y1547804D02*
Y1386648D01*
X1785813*
X1785835Y1386605D02*
G75*
G03X1786342Y1502840I112614J57627D01*
G01X1786364Y1502883D02*
X1778490D01*
Y1547804*
X1738333*
X1786364Y1496623D02*
G03X1786364I-3937J0D01*
G01Y1484812D02*
G03X1786364I-3937J0D01*
G01Y1469064D02*
G03X1786364I-3937J0D01*
G01X1778490Y1459221D02*
X1786364D01*
Y1417882*
X1778490*
Y1459221*
X1786364Y1411977D02*
G03X1786364I-3937J0D01*
G01Y1396229D02*
G03X1786364I-3937J0D01*
G01X1887034Y1541898D02*
G03X1887034I-2953J0D01*
G01X1908687Y1551741D02*
G03X1908687I-1968J0D01*
G01X1919514Y1343434D02*
G03X1919514I-21654J0D01*
G01X1823157Y1432871D02*
G03X1823157I-1575J0D01*
G01X1797608Y1417147D02*
G03X1797608I-1575J0D01*
G01X1809399Y1436146D02*
G03X1809399I-1574J0D01*
G01X1800883Y1430905D02*
G03X1800883I-1575J0D01*
G01X1806124Y1422388D02*
G03X1806124I-1575J0D01*
G01X1792367Y1425663D02*
G03X1792367I-1575J0D01*
G01X1814641Y1427630D02*
G03X1814641I-1575J0D01*
G01X1817916Y1441387D02*
G03X1817916I-1575J0D01*
G01X1890971Y1551741D02*
G03X1890971I-1969J0D01*
G01X1914593Y1541898D02*
G03X1914593I-2953J0D01*
G01X1906325Y1343434D02*
G03X1906325I-8465J0D01*
G01X1883687Y1512873D02*
Y1530294D01*
X1908097Y1508936D02*
X1887624D01*
X1912034Y1530294D02*
Y1512873D01*
X1887624Y1534231D02*
X1908097D01*
X1883687Y1512873D02*
G03X1887624Y1508936I3937J-0D01*
G01X1908097D02*
G03X1912034Y1512873I-0J3937D01*
G01Y1530294D02*
G03X1908097Y1534231I-3937J-0D01*
G01X1887624D02*
G03X1883687Y1530294I0J-3937D01*
G01X1884369Y1524917D02*
X1883703Y1524736D01*
X1833489Y1515902D02*
G03X1833489I-8464J0D01*
G01X1846678D02*
G03X1846678I-21653J0D01*
G01X1979161D02*
G03X1979161I-8465J0D01*
G01X1992350D02*
G03X1992350I-21654J0D01*
G01X1762349Y1492686D02*
G03X1762349I-5512J0D01*
G54D16*
G01X1778427Y1436878D02*
X1786427D01*
X1782427Y1432878D02*
Y1440878D01*
X1786132Y1441378D02*
X1786018Y1441691D01*
X1785791Y1442003*
X1785564Y1442160*
X1785109*
X1784882Y1442003*
X1784655Y1441691*
X1784541Y1441378*
X1784427Y1440910*
Y1440128*
X1784541Y1439660*
X1784655Y1439347*
X1784882Y1439035*
X1785109Y1438878*
X1785564*
X1785791Y1439035*
X1786018Y1439347*
X1786132Y1439660*
X1778427Y1457941D02*
X1786427D01*
X1782427Y1453941D02*
Y1461941D01*
X1786132Y1462441D02*
X1786018Y1462754D01*
X1785791Y1463066*
X1785564Y1463223*
X1785109*
X1784882Y1463066*
X1784655Y1462754*
X1784541Y1462441*
X1784427Y1461973*
Y1461191*
X1784541Y1460723*
X1784655Y1460410*
X1784882Y1460098*
X1785109Y1459941*
X1785564*
X1785791Y1460098*
X1786018Y1460410*
X1786132Y1460723*
X1778490Y1436878D02*
G03X1786364I3937J0D01*
G01Y1457941*
G03X1778490I-3937J0*
G01Y1436878*
X1892109Y1521426D02*
X1900109D01*
X1896109Y1517426D02*
Y1525426D01*
X1898109Y1526707D02*
Y1523426D01*
Y1526707D02*
X1898904D01*
X1899245Y1526551*
X1899472Y1526238*
X1899586Y1525926*
X1899699Y1525457*
Y1524676*
X1899586Y1524207*
X1899472Y1523894*
X1899245Y1523582*
X1898904Y1523426*
X1898109*
X1895455Y1521426D02*
X1903455D01*
X1899455Y1517426D02*
Y1525426D01*
X1901455Y1526707D02*
Y1523426D01*
Y1526707D02*
X1902250D01*
X1902591Y1526551*
X1902819Y1526238*
X1902932Y1525926*
X1903046Y1525457*
Y1524676*
X1902932Y1524207*
X1902819Y1523894*
X1902591Y1523582*
X1902250Y1523426*
X1901455*
X1896109Y1534221D02*
G03Y1508630I-0J-12795D01*
G01X1899455*
G03Y1534221I-0J12796*
G01X1896109*
X1752837Y1386190D02*
X1760837D01*
X1756837Y1382190D02*
Y1390190D01*
X1758837Y1391471D02*
Y1388190D01*
Y1391471D02*
X1760314D01*
X1758837Y1389908D02*
X1759746D01*
X1752837Y1410205D02*
X1760837D01*
X1756837Y1406205D02*
Y1414205D01*
X1758837Y1415487D02*
Y1412205D01*
Y1415487D02*
X1760314D01*
X1758837Y1413924D02*
X1759746D01*
X1754376Y1386190D02*
G03X1759297I2461J-0D01*
G01Y1410205*
G03X1754376I-2460J0*
G01Y1386190*
X1762679Y1386485D02*
X1770679D01*
X1766679Y1382485D02*
Y1390485D01*
X1770384Y1390985D02*
X1770270Y1391297D01*
X1770043Y1391610*
X1769816Y1391766*
X1769361*
X1769134Y1391610*
X1768907Y1391297*
X1768793Y1390985*
X1768679Y1390516*
Y1389735*
X1768793Y1389266*
X1768907Y1388954*
X1769134Y1388641*
X1769361Y1388485*
X1769816*
X1770043Y1388641*
X1770270Y1388954*
X1770384Y1389266*
Y1389735*
X1769816D02*
X1770384D01*
X1762679Y1409910D02*
X1770679D01*
X1766679Y1405910D02*
Y1413910D01*
X1770384Y1414410D02*
X1770270Y1414722D01*
X1770043Y1415035*
X1769816Y1415191*
X1769361*
X1769134Y1415035*
X1768907Y1414722*
X1768793Y1414410*
X1768679Y1413941*
Y1413160*
X1768793Y1412691*
X1768907Y1412379*
X1769134Y1412066*
X1769361Y1411910*
X1769816*
X1770043Y1412066*
X1770270Y1412379*
X1770384Y1412691*
Y1413160*
X1769816D02*
X1770384D01*
X1763923Y1386485D02*
G03X1769435I2756J-0D01*
G01Y1409910*
G03X1763923I-2756J-0*
G01Y1386485*
X1952975Y1426681D02*
X1960975D01*
X1956975Y1422681D02*
Y1430681D01*
X1952975Y1421957D02*
X1960975D01*
X1956975Y1417957D02*
Y1425957D01*
X1992975Y1392819D02*
X2000975Y1400819D01*
X1992975D02*
X2000975Y1392819D01*
X1992975Y1399315D02*
X2000975Y1407315D01*
X1992975D02*
X2000975Y1399315D01*
X1992975Y1420319D02*
X2000975Y1428319D01*
X1992975D02*
X2000975Y1420319D01*
X1992975Y1426815D02*
X2000975Y1434815D01*
X1992975D02*
X2000975Y1426815D01*
X1992975Y1445319D02*
X2000975Y1453319D01*
X1992975D02*
X2000975Y1445319D01*
X1992975Y1451815D02*
X2000975Y1459815D01*
X1992975D02*
X2000975Y1451815D01*
X1787975Y1437819D02*
X1795975D01*
Y1445819*
X1787975*
Y1437819*
X1791975Y1441819D02*
Y1445819D01*
X1796477Y1443083D02*
X1804477D01*
Y1451083*
X1796477*
Y1443083*
X1800477Y1447083D02*
Y1451083D01*
X1804980Y1448346D02*
X1812980D01*
Y1456346*
X1804980*
Y1448346*
X1808980Y1452346D02*
Y1456346D01*
X1813483Y1453610D02*
X1821483D01*
Y1461610*
X1813483*
Y1453610*
X1817483Y1457610D02*
Y1461610D01*
X1790475Y1422819D02*
X1798475D01*
Y1430819*
X1790475*
Y1422819*
X1794475Y1426819D02*
Y1430819D01*
X1795608Y1414653D02*
X1803608D01*
Y1422653*
X1795608*
Y1414653*
X1799608Y1418653D02*
Y1422653D01*
X1798941Y1428141D02*
X1806941D01*
Y1436141*
X1798941*
Y1428141*
X1802941Y1432141D02*
Y1436141D01*
X1803774Y1419786D02*
X1811774D01*
Y1427786*
X1803774*
Y1419786*
X1807774Y1423786D02*
Y1427786D01*
X1807407Y1433463D02*
X1815407D01*
Y1441463*
X1807407*
Y1433463*
X1811407Y1437463D02*
Y1441463D01*
X1811941Y1424919D02*
X1819941D01*
Y1432919*
X1811941*
Y1424919*
X1815941Y1428919D02*
Y1432919D01*
X1815874Y1438784D02*
X1823874D01*
Y1446784*
X1815874*
Y1438784*
X1819874Y1442784D02*
Y1446784D01*
X1820107Y1430052D02*
X1828107D01*
Y1438052*
X1820107*
Y1430052*
X1824107Y1434052D02*
Y1438052D01*
X1897875Y1339319D02*
X1901875Y1343319D01*
X1897875Y1347319*
X1893875Y1343319*
X1897875Y1339319*
Y1343319D02*
Y1347319D01*
X1825025Y1511919D02*
X1829025Y1515919D01*
X1825025Y1519919*
X1821025Y1515919*
X1825025Y1511919*
Y1515919D02*
Y1519919D01*
X1970625Y1511969D02*
X1974625Y1515969D01*
X1970625Y1519969*
X1966625Y1515969*
X1970625Y1511969*
Y1515969D02*
Y1519969D01*
X1744962Y1538686D02*
X1752962D01*
Y1546686*
X1744962*
Y1538686*
X1748962Y1542686D02*
Y1546686D01*
X1764648Y1538686D02*
X1772648D01*
Y1546686*
X1764648*
Y1538686*
X1768648Y1542686D02*
Y1546686D01*
X1741025Y1528056D02*
X1749025D01*
X1741025Y1536056*
X1749025*
X1741025Y1528056*
X1768585D02*
X1776585D01*
X1768585Y1536056*
X1776585*
X1768585Y1528056*
X1903475Y1547819D02*
X1911475Y1555819D01*
Y1547819*
X1903475Y1555819*
Y1547819*
X1885168D02*
X1893168Y1555819D01*
Y1547819*
X1885168Y1555819*
Y1547819*
X1908101Y1541977D02*
X1916101D01*
X1912101Y1537977D02*
Y1545977D01*
X1915010Y1547258D02*
X1914101Y1543977D01*
X1915010Y1547258D02*
X1915919Y1543977D01*
X1914442Y1545071D02*
X1915578D01*
X1880542Y1541977D02*
X1888542D01*
X1884542Y1537977D02*
Y1545977D01*
X1887451Y1547258D02*
X1886542Y1543977D01*
X1887451Y1547258D02*
X1888360Y1543977D01*
X1886882Y1545071D02*
X1888019D01*
X1817975Y1372819D02*
X1825975Y1380819D01*
X1817975D02*
X1825975Y1372819D01*
X1817975Y1366323D02*
X1825975Y1374323D01*
X1817975D02*
X1825975Y1366323D01*
X1967975Y1367819D02*
X1975975Y1375819D01*
X1967975D02*
X1975975Y1367819D01*
X1974471D02*
X1982471Y1375819D01*
X1974471D02*
X1982471Y1367819D01*
X1778427Y1496623D02*
X1786427D01*
X1782427Y1492623D02*
Y1500623D01*
X1784427Y1501904D02*
Y1498623D01*
Y1501904D02*
X1785450D01*
X1785791Y1501748*
X1785905Y1501591*
X1786018Y1501279*
Y1500966*
X1785905Y1500654*
X1785791Y1500498*
X1785450Y1500341*
X1784427D02*
X1785450D01*
X1785791Y1500185*
X1785905Y1500029*
X1786018Y1499716*
Y1499248*
X1785905Y1498935*
X1785791Y1498779*
X1785450Y1498623*
X1784427*
X1778427Y1484812D02*
X1786427D01*
X1782427Y1480812D02*
Y1488812D01*
X1784427Y1490093D02*
Y1486812D01*
Y1490093D02*
X1785450D01*
X1785791Y1489937*
X1785905Y1489780*
X1786018Y1489468*
Y1489155*
X1785905Y1488843*
X1785791Y1488687*
X1785450Y1488530*
X1784427D02*
X1785450D01*
X1785791Y1488374*
X1785905Y1488218*
X1786018Y1487905*
Y1487437*
X1785905Y1487124*
X1785791Y1486968*
X1785450Y1486812*
X1784427*
X1778427Y1411977D02*
X1786427D01*
X1782427Y1407977D02*
Y1415977D01*
X1784427Y1417258D02*
Y1413977D01*
Y1417258D02*
X1785450D01*
X1785791Y1417102*
X1785905Y1416946*
X1786018Y1416633*
Y1416321*
X1785905Y1416008*
X1785791Y1415852*
X1785450Y1415696*
X1784427D02*
X1785450D01*
X1785791Y1415539*
X1785905Y1415383*
X1786018Y1415071*
Y1414602*
X1785905Y1414289*
X1785791Y1414133*
X1785450Y1413977*
X1784427*
X1778427Y1469064D02*
X1786427D01*
X1782427Y1465064D02*
Y1473064D01*
X1784427Y1474345D02*
Y1471064D01*
Y1474345D02*
X1785450D01*
X1785791Y1474189*
X1785905Y1474032*
X1786018Y1473720*
Y1473407*
X1785905Y1473095*
X1785791Y1472939*
X1785450Y1472782*
X1784427D02*
X1785450D01*
X1785791Y1472626*
X1785905Y1472470*
X1786018Y1472157*
Y1471689*
X1785905Y1471376*
X1785791Y1471220*
X1785450Y1471064*
X1784427*
X1752837Y1492686D02*
X1760837D01*
X1756837Y1488686D02*
Y1496686D01*
X1758837Y1497967D02*
Y1494686D01*
Y1497967D02*
X1760314D01*
X1758837Y1496404D02*
X1759746D01*
X1758837Y1494686D02*
X1760314D01*
X1778427Y1396229D02*
X1786427D01*
X1782427Y1392229D02*
Y1400229D01*
X1784427Y1401510D02*
Y1398229D01*
Y1401510D02*
X1785450D01*
X1785791Y1401354*
X1785905Y1401198*
X1786018Y1400885*
Y1400573*
X1785905Y1400260*
X1785791Y1400104*
X1785450Y1399948*
X1784427D02*
X1785450D01*
X1785791Y1399791*
X1785905Y1399635*
X1786018Y1399323*
Y1398854*
X1785905Y1398541*
X1785791Y1398385*
X1785450Y1398229*
X1784427*
X1778427Y1423788D02*
X1786427D01*
X1782427Y1419788D02*
Y1427788D01*
X1784427Y1429069D02*
Y1425788D01*
Y1429069D02*
X1785450D01*
X1785791Y1428913*
X1785905Y1428757*
X1786018Y1428444*
Y1428132*
X1785905Y1427819*
X1785791Y1427663*
X1785450Y1427507*
X1784427D02*
X1785450D01*
X1785791Y1427350*
X1785905Y1427194*
X1786018Y1426882*
Y1426413*
X1785905Y1426100*
X1785791Y1425944*
X1785450Y1425788*
X1784427*
X1868475Y1369419D02*
X1876475D01*
X1872475Y1365419D02*
Y1373419D01*
X1874475Y1374701D02*
Y1371419D01*
X1876066Y1374701D02*
Y1371419D01*
X1874475Y1373138D02*
X1876066D01*
X1894775Y1383519D02*
X1902775D01*
X1898775Y1379519D02*
Y1387519D01*
X1900775Y1388801D02*
Y1385519D01*
X1902366Y1388801D02*
Y1385519D01*
X1900775Y1387238D02*
X1902366D01*
X1960575Y1359319D02*
X1968575D01*
X1964575Y1355319D02*
Y1363319D01*
X1966575Y1364601D02*
Y1361319D01*
X1968166Y1364601D02*
Y1361319D01*
X1966575Y1363038D02*
X1968166D01*
X1940975Y1364019D02*
X1948975D01*
X1944975Y1360019D02*
Y1368019D01*
X1946975Y1369301D02*
Y1366019D01*
X1948566Y1369301D02*
Y1366019D01*
X1946975Y1367738D02*
X1948566D01*
X1961075Y1379319D02*
X1969075D01*
X1965075Y1375319D02*
Y1383319D01*
X1967075Y1384601D02*
Y1381319D01*
X1968666Y1384601D02*
Y1381319D01*
X1967075Y1383038D02*
X1968666D01*
X1796875Y1394319D02*
X1804875D01*
X1800875Y1390319D02*
Y1398319D01*
X1802875Y1399601D02*
Y1396319D01*
X1804466Y1399601D02*
Y1396319D01*
X1802875Y1398038D02*
X1804466D01*
X1894875Y1393519D02*
X1902875D01*
X1898875Y1389519D02*
Y1397519D01*
X1900875Y1398801D02*
Y1395519D01*
X1902466Y1398801D02*
Y1395519D01*
X1900875Y1397238D02*
X1902466D01*
X1922475Y1411419D02*
X1930475D01*
X1926475Y1407419D02*
Y1415419D01*
X1928475Y1416701D02*
Y1413419D01*
X1930066Y1416701D02*
Y1413419D01*
X1928475Y1415138D02*
X1930066D01*
X1959175Y1389319D02*
X1967175D01*
X1963175Y1385319D02*
Y1393319D01*
X1965175Y1394601D02*
Y1391319D01*
X1966766Y1394601D02*
Y1391319D01*
X1965175Y1393038D02*
X1966766D01*
X1971175Y1394119D02*
X1979175D01*
X1975175Y1390119D02*
Y1398119D01*
X1977175Y1399401D02*
Y1396119D01*
X1978766Y1399401D02*
Y1396119D01*
X1977175Y1397838D02*
X1978766D01*
X1976775Y1399319D02*
X1984775D01*
X1980775Y1395319D02*
Y1403319D01*
X1982775Y1404601D02*
Y1401319D01*
X1984366Y1404601D02*
Y1401319D01*
X1982775Y1403038D02*
X1984366D01*
X1979375Y1419319D02*
X1987375D01*
X1983375Y1415319D02*
Y1423319D01*
X1985375Y1424601D02*
Y1421319D01*
X1986966Y1424601D02*
Y1421319D01*
X1985375Y1423038D02*
X1986966D01*
X1979475Y1409419D02*
X1987475D01*
X1983475Y1405419D02*
Y1413419D01*
X1985475Y1414701D02*
Y1411419D01*
X1987066Y1414701D02*
Y1411419D01*
X1985475Y1413138D02*
X1987066D01*
X1839475Y1461819D02*
X1847475D01*
X1843475Y1457819D02*
Y1465819D01*
X1845475Y1467101D02*
Y1463819D01*
X1847066Y1467101D02*
Y1463819D01*
X1845475Y1465538D02*
X1847066D01*
X1859175Y1429219D02*
X1867175D01*
X1863175Y1425219D02*
Y1433219D01*
X1865175Y1434501D02*
Y1431219D01*
X1866766Y1434501D02*
Y1431219D01*
X1865175Y1432938D02*
X1866766D01*
X1889675Y1439919D02*
X1897675D01*
X1893675Y1435919D02*
Y1443919D01*
X1895675Y1445201D02*
Y1441919D01*
X1897266Y1445201D02*
Y1441919D01*
X1895675Y1443638D02*
X1897266D01*
X1917675Y1432119D02*
X1925675D01*
X1921675Y1428119D02*
Y1436119D01*
X1923675Y1437401D02*
Y1434119D01*
X1925266Y1437401D02*
Y1434119D01*
X1923675Y1435838D02*
X1925266D01*
X1916575Y1445819D02*
X1924575D01*
X1920575Y1441819D02*
Y1449819D01*
X1922575Y1451101D02*
Y1447819D01*
X1924166Y1451101D02*
Y1447819D01*
X1922575Y1449538D02*
X1924166D01*
X1956675Y1434319D02*
X1964675D01*
X1960675Y1430319D02*
Y1438319D01*
X1962675Y1439601D02*
Y1436319D01*
X1964266Y1439601D02*
Y1436319D01*
X1962675Y1438038D02*
X1964266D01*
X1978875Y1449219D02*
X1986875D01*
X1982875Y1445219D02*
Y1453219D01*
X1984875Y1454501D02*
Y1451219D01*
X1986466Y1454501D02*
Y1451219D01*
X1984875Y1452938D02*
X1986466D01*
X1828475Y1490519D02*
X1836475D01*
X1832475Y1486519D02*
Y1494519D01*
X1834475Y1495801D02*
Y1492519D01*
X1836066Y1495801D02*
Y1492519D01*
X1834475Y1494238D02*
X1836066D01*
X1873975Y1507419D02*
X1881975D01*
X1877975Y1503419D02*
Y1511419D01*
X1879975Y1512701D02*
Y1509419D01*
X1881566Y1512701D02*
Y1509419D01*
X1879975Y1511138D02*
X1881566D01*
X1867275Y1502619D02*
X1875275D01*
X1871275Y1498619D02*
Y1506619D01*
X1873275Y1507901D02*
Y1504619D01*
X1874866Y1507901D02*
Y1504619D01*
X1873275Y1506338D02*
X1874866D01*
X1978975Y1480719D02*
X1986975D01*
X1982975Y1476719D02*
Y1484719D01*
X1984975Y1486001D02*
Y1482719D01*
X1986566Y1486001D02*
Y1482719D01*
X1984975Y1484438D02*
X1986566D01*
X1749775Y1537819D02*
X1757775D01*
X1753775Y1533819D02*
Y1541819D01*
X1755775Y1543101D02*
Y1539819D01*
X1757366Y1543101D02*
Y1539819D01*
X1755775Y1541538D02*
X1757366D01*
X2004475Y1881819D02*
X2262475D01*
X2004475Y1857819D02*
X2262475D01*
X2004475Y1833819D02*
X2262475D01*
X2004475Y1809819D02*
X2262475D01*
X2004475Y1785819D02*
X2262475D01*
X2004475Y1761819D02*
X2262475D01*
X2004475Y1737819D02*
X2262475D01*
X2004475Y1713819D02*
X2262475D01*
X2004475Y1689819D02*
X2262475D01*
X2004475Y1665819D02*
X2262475D01*
X2004475Y1641819D02*
X2262475D01*
X2004475Y1617819D02*
X2262475D01*
X2004475Y1593819D02*
X2262475D01*
X2004475Y1569819D02*
X2262475D01*
X2004475Y1545819D02*
X2262475D01*
X2004475Y1521819D02*
X2262475D01*
X2004475Y1881819D02*
Y1521819D01*
X2088475Y1881819D02*
Y1521819D01*
X2124475Y1881819D02*
Y1521819D01*
X2160475Y1881819D02*
Y1521819D01*
X2214475Y1881819D02*
Y1521819D01*
X2262475Y1881819D02*
Y1521819D01*
X2039975Y1870569D02*
X2039429Y1871319D01*
X2038611Y1871694*
X2037520*
X2036702Y1871319*
X2036156Y1870569*
Y1869819*
X2036429Y1869069*
X2036702Y1868694*
X2037247Y1868319*
X2038884Y1867569*
X2039429Y1867194*
X2039702Y1866819*
X2039975Y1866069*
Y1864944*
X2039429Y1864194*
X2038611Y1863819*
X2037520*
X2036702Y1864194*
X2036156Y1864944*
X2042429Y1871694D02*
Y1863819D01*
X2048702Y1871694D02*
X2044884Y1863819D01*
Y1871694D02*
X2048702D01*
X2044884Y1863819D02*
X2048702D01*
X2051156Y1871694D02*
Y1863819D01*
Y1871694D02*
X2054702D01*
X2051156Y1867944D02*
X2053338D01*
X2051156Y1863819D02*
X2054702D01*
X2098338Y1871694D02*
X2097793Y1871319D01*
X2097247Y1870569*
X2096975Y1869819*
X2096702Y1868694*
Y1866819*
X2096975Y1865694*
X2097247Y1864944*
X2097793Y1864194*
X2098338Y1863819*
X2099429*
X2099975Y1864194*
X2100520Y1864944*
X2100793Y1865694*
X2101066Y1866819*
Y1868694*
X2100793Y1869819*
X2100520Y1870569*
X2099975Y1871319*
X2099429Y1871694*
X2098338*
X2099156Y1865319D02*
X2100793Y1863069D01*
X2105429Y1871694D02*
Y1863819D01*
X2103520Y1871694D02*
X2107338D01*
X2109793D02*
X2111975Y1867944D01*
Y1863819*
X2114156Y1871694D02*
X2111975Y1867944D01*
X2136520Y1870569D02*
X2135975Y1871319D01*
X2135156Y1871694*
X2134066*
X2133247Y1871319*
X2132702Y1870569*
Y1869819*
X2132975Y1869069*
X2133247Y1868694*
X2133793Y1868319*
X2135429Y1867569*
X2135975Y1867194*
X2136247Y1866819*
X2136520Y1866069*
Y1864944*
X2135975Y1864194*
X2135156Y1863819*
X2134066*
X2133247Y1864194*
X2132702Y1864944*
X2138975Y1871694D02*
X2141156Y1867944D01*
Y1863819*
X2143338Y1871694D02*
X2141156Y1867944D01*
X2145793Y1871694D02*
Y1863819D01*
Y1871694D02*
X2147975Y1863819D01*
X2150156Y1871694D02*
X2147975Y1863819D01*
X2150156Y1871694D02*
Y1863819D01*
X2171975Y1871694D02*
Y1863819D01*
Y1871694D02*
X2174429D01*
X2175247Y1871319*
X2175520Y1870944*
X2175793Y1870194*
Y1869069*
X2175520Y1868319*
X2175247Y1867944*
X2174429Y1867569*
X2171975*
X2178247Y1871694D02*
Y1863819D01*
X2181520*
X2186156Y1871694D02*
X2183975Y1863819D01*
X2186156Y1871694D02*
X2188338Y1863819D01*
X2184793Y1866444D02*
X2187520D01*
X2192702Y1871694D02*
Y1863819D01*
X2190793Y1871694D02*
X2194611D01*
X2197066D02*
Y1863819D01*
Y1871694D02*
X2200611D01*
X2197066Y1867944D02*
X2199247D01*
X2197066Y1863819D02*
X2200611D01*
X2203066Y1871694D02*
Y1863819D01*
Y1871694D02*
X2204975D01*
X2205793Y1871319*
X2206338Y1870569*
X2206611Y1869819*
X2206884Y1868694*
Y1866819*
X2206611Y1865694*
X2206338Y1864944*
X2205793Y1864194*
X2204975Y1863819*
X2203066*
X2231156Y1871694D02*
Y1863819D01*
X2229247Y1871694D02*
X2233066D01*
X2237156D02*
X2236611Y1871319D01*
X2236066Y1870569*
X2235793Y1869819*
X2235520Y1868694*
Y1866819*
X2235793Y1865694*
X2236066Y1864944*
X2236611Y1864194*
X2237156Y1863819*
X2238247*
X2238793Y1864194*
X2239338Y1864944*
X2239611Y1865694*
X2239884Y1866819*
Y1868694*
X2239611Y1869819*
X2239338Y1870569*
X2238793Y1871319*
X2238247Y1871694*
X2237156*
X2242338D02*
Y1863819D01*
X2245611*
X2010475Y1846194D02*
X2011020Y1846569D01*
X2011838Y1847694*
Y1839819*
X2015656Y1847694D02*
X2014838Y1847319D01*
X2014566Y1846569*
Y1845819*
X2014838Y1845069*
X2015384Y1844694*
X2016475Y1844319*
X2017293Y1843944*
X2017838Y1843194*
X2018111Y1842444*
Y1841319*
X2017838Y1840569*
X2017566Y1840194*
X2016747Y1839819*
X2015656*
X2014838Y1840194*
X2014566Y1840569*
X2014293Y1841319*
Y1842444*
X2014566Y1843194*
X2015111Y1843944*
X2015929Y1844319*
X2017020Y1844694*
X2017566Y1845069*
X2017838Y1845819*
Y1846569*
X2017566Y1847319*
X2016747Y1847694*
X2015656*
X2020838Y1840569D02*
X2020566Y1840194D01*
X2020838Y1839819*
X2021111Y1840194*
X2020838Y1840569*
X2023566Y1846194D02*
X2024111Y1846569D01*
X2024929Y1847694*
Y1839819*
X2027384Y1846194D02*
X2027929Y1846569D01*
X2028747Y1847694*
Y1839819*
X2103793Y1845819D02*
Y1846194D01*
X2104066Y1846944*
X2104338Y1847319*
X2104884Y1847694*
X2105975*
X2106520Y1847319*
X2106793Y1846944*
X2107066Y1846194*
Y1845444*
X2106793Y1844694*
X2106247Y1843569*
X2103520Y1839819*
X2107338*
X2136475Y1845819D02*
X2148475D01*
X2142475Y1839819D02*
Y1851819D01*
X2169111Y1847694D02*
X2171293Y1843944D01*
Y1839819*
X2173475Y1847694D02*
X2171293Y1843944D01*
X2175929Y1847694D02*
Y1839819D01*
Y1847694D02*
X2179475D01*
X2175929Y1843944D02*
X2178111D01*
X2175929Y1839819D02*
X2179475D01*
X2185747Y1846569D02*
X2185202Y1847319D01*
X2184384Y1847694*
X2183293*
X2182475Y1847319*
X2181929Y1846569*
Y1845819*
X2182202Y1845069*
X2182475Y1844694*
X2183020Y1844319*
X2184656Y1843569*
X2185202Y1843194*
X2185475Y1842819*
X2185747Y1842069*
Y1840944*
X2185202Y1840194*
X2184384Y1839819*
X2183293*
X2182475Y1840194*
X2181929Y1840944*
X2222293Y1846569D02*
Y1839819D01*
X2219838Y1843194D02*
X2224747D01*
X2232111Y1849194D02*
X2227202Y1837194D01*
X2234566Y1843194D02*
X2239475D01*
X2243566Y1847694D02*
X2242747Y1847319D01*
X2242202Y1846194*
X2241929Y1844319*
Y1843194*
X2242202Y1841319*
X2242747Y1840194*
X2243566Y1839819*
X2244111*
X2244929Y1840194*
X2245475Y1841319*
X2245747Y1843194*
Y1844319*
X2245475Y1846194*
X2244929Y1847319*
X2244111Y1847694*
X2243566*
X2248475Y1840569D02*
X2248202Y1840194D01*
X2248475Y1839819*
X2248747Y1840194*
X2248475Y1840569*
X2252838Y1847694D02*
X2252020Y1847319D01*
X2251475Y1846194*
X2251202Y1844319*
Y1843194*
X2251475Y1841319*
X2252020Y1840194*
X2252838Y1839819*
X2253384*
X2254202Y1840194*
X2254747Y1841319*
X2255020Y1843194*
Y1844319*
X2254747Y1846194*
X2254202Y1847319*
X2253384Y1847694*
X2252838*
X2011020Y1823694D02*
X2014020D01*
X2012384Y1820694*
X2013202*
X2013747Y1820319*
X2014020Y1819944*
X2014293Y1818819*
Y1818069*
X2014020Y1816944*
X2013475Y1816194*
X2012656Y1815819*
X2011838*
X2011020Y1816194*
X2010747Y1816569*
X2010475Y1817319*
X2020293Y1823694D02*
X2017566D01*
X2017293Y1820319*
X2017566Y1820694*
X2018384Y1821069*
X2019202*
X2020020Y1820694*
X2020566Y1819944*
X2020838Y1818819*
X2020566Y1818069*
X2020293Y1816944*
X2019747Y1816194*
X2018929Y1815819*
X2018111*
X2017293Y1816194*
X2017020Y1816569*
X2016747Y1817319*
X2023566Y1816569D02*
X2023293Y1816194D01*
X2023566Y1815819*
X2023838Y1816194*
X2023566Y1816569*
X2029020Y1823694D02*
X2026293Y1818444D01*
X2030384*
X2029020Y1823694D02*
Y1815819D01*
X2033384Y1823694D02*
X2036384D01*
X2034747Y1820694*
X2035566*
X2036111Y1820319*
X2036384Y1819944*
X2036656Y1818819*
Y1818069*
X2036384Y1816944*
X2035838Y1816194*
X2035020Y1815819*
X2034202*
X2033384Y1816194*
X2033111Y1816569*
X2032838Y1817319*
X2101611Y1822194D02*
X2102156Y1822569D01*
X2102975Y1823694*
Y1815819*
X2107066Y1823694D02*
X2106247Y1823319D01*
X2105702Y1822194*
X2105429Y1820319*
Y1819194*
X2105702Y1817319*
X2106247Y1816194*
X2107066Y1815819*
X2107611*
X2108429Y1816194*
X2108975Y1817319*
X2109247Y1819194*
Y1820319*
X2108975Y1822194*
X2108429Y1823319*
X2107611Y1823694*
X2107066*
X2136475Y1815819D02*
X2148475Y1827819D01*
X2136475D02*
X2148475Y1815819D01*
X2169111Y1823694D02*
X2171293Y1819944D01*
Y1815819*
X2173475Y1823694D02*
X2171293Y1819944D01*
X2175929Y1823694D02*
Y1815819D01*
Y1823694D02*
X2179475D01*
X2175929Y1819944D02*
X2178111D01*
X2175929Y1815819D02*
X2179475D01*
X2185747Y1822569D02*
X2185202Y1823319D01*
X2184384Y1823694*
X2183293*
X2182475Y1823319*
X2181929Y1822569*
Y1821819*
X2182202Y1821069*
X2182475Y1820694*
X2183020Y1820319*
X2184656Y1819569*
X2185202Y1819194*
X2185475Y1818819*
X2185747Y1818069*
Y1816944*
X2185202Y1816194*
X2184384Y1815819*
X2183293*
X2182475Y1816194*
X2181929Y1816944*
X2222293Y1822569D02*
Y1815819D01*
X2219838Y1819194D02*
X2224747D01*
X2232111Y1825194D02*
X2227202Y1813194D01*
X2234566Y1819194D02*
X2239475D01*
X2243566Y1823694D02*
X2242747Y1823319D01*
X2242202Y1822194*
X2241929Y1820319*
Y1819194*
X2242202Y1817319*
X2242747Y1816194*
X2243566Y1815819*
X2244111*
X2244929Y1816194*
X2245475Y1817319*
X2245747Y1819194*
Y1820319*
X2245475Y1822194*
X2244929Y1823319*
X2244111Y1823694*
X2243566*
X2248475Y1816569D02*
X2248202Y1816194D01*
X2248475Y1815819*
X2248747Y1816194*
X2248475Y1816569*
X2252838Y1823694D02*
X2252020Y1823319D01*
X2251475Y1822194*
X2251202Y1820319*
Y1819194*
X2251475Y1817319*
X2252020Y1816194*
X2252838Y1815819*
X2253384*
X2254202Y1816194*
X2254747Y1817319*
X2255020Y1819194*
Y1820319*
X2254747Y1822194*
X2254202Y1823319*
X2253384Y1823694*
X2252838*
X2011020Y1799694D02*
X2014020D01*
X2012384Y1796694*
X2013202*
X2013747Y1796319*
X2014020Y1795944*
X2014293Y1794819*
Y1794069*
X2014020Y1792944*
X2013475Y1792194*
X2012656Y1791819*
X2011838*
X2011020Y1792194*
X2010747Y1792569*
X2010475Y1793319*
X2020293Y1799694D02*
X2017566D01*
X2017293Y1796319*
X2017566Y1796694*
X2018384Y1797069*
X2019202*
X2020020Y1796694*
X2020566Y1795944*
X2020838Y1794819*
X2020566Y1794069*
X2020293Y1792944*
X2019747Y1792194*
X2018929Y1791819*
X2018111*
X2017293Y1792194*
X2017020Y1792569*
X2016747Y1793319*
X2101475Y1798194D02*
X2102020Y1798569D01*
X2102838Y1799694*
Y1791819*
X2108020Y1799694D02*
X2105293Y1794444D01*
X2109384*
X2108020Y1799694D02*
Y1791819D01*
X2136475D02*
X2148475D01*
Y1803819*
X2136475*
Y1791819*
X2142475Y1797819D02*
Y1803819D01*
X2169111Y1799694D02*
X2171293Y1795944D01*
Y1791819*
X2173475Y1799694D02*
X2171293Y1795944D01*
X2175929Y1799694D02*
Y1791819D01*
Y1799694D02*
X2179475D01*
X2175929Y1795944D02*
X2178111D01*
X2175929Y1791819D02*
X2179475D01*
X2185747Y1798569D02*
X2185202Y1799319D01*
X2184384Y1799694*
X2183293*
X2182475Y1799319*
X2181929Y1798569*
Y1797819*
X2182202Y1797069*
X2182475Y1796694*
X2183020Y1796319*
X2184656Y1795569*
X2185202Y1795194*
X2185475Y1794819*
X2185747Y1794069*
Y1792944*
X2185202Y1792194*
X2184384Y1791819*
X2183293*
X2182475Y1792194*
X2181929Y1792944*
X2222293Y1798569D02*
Y1791819D01*
X2219838Y1795194D02*
X2224747D01*
X2232111Y1801194D02*
X2227202Y1789194D01*
X2234566Y1795194D02*
X2239475D01*
X2243566Y1799694D02*
X2242747Y1799319D01*
X2242202Y1798194*
X2241929Y1796319*
Y1795194*
X2242202Y1793319*
X2242747Y1792194*
X2243566Y1791819*
X2244111*
X2244929Y1792194*
X2245475Y1793319*
X2245747Y1795194*
Y1796319*
X2245475Y1798194*
X2244929Y1799319*
X2244111Y1799694*
X2243566*
X2248475Y1792569D02*
X2248202Y1792194D01*
X2248475Y1791819*
X2248747Y1792194*
X2248475Y1792569*
X2252838Y1799694D02*
X2252020Y1799319D01*
X2251475Y1798194*
X2251202Y1796319*
Y1795194*
X2251475Y1793319*
X2252020Y1792194*
X2252838Y1791819*
X2253384*
X2254202Y1792194*
X2254747Y1793319*
X2255020Y1795194*
Y1796319*
X2254747Y1798194*
X2254202Y1799319*
X2253384Y1799694*
X2252838*
X2010475Y1774194D02*
X2011020Y1774569D01*
X2011838Y1775694*
Y1767819*
X2017566Y1774569D02*
X2017293Y1775319D01*
X2016475Y1775694*
X2015929*
X2015111Y1775319*
X2014566Y1774194*
X2014293Y1772319*
Y1770444*
X2014566Y1768944*
X2015111Y1768194*
X2015929Y1767819*
X2016202*
X2017020Y1768194*
X2017566Y1768944*
X2017838Y1770069*
Y1770444*
X2017566Y1771569*
X2017020Y1772319*
X2016202Y1772694*
X2015929*
X2015111Y1772319*
X2014566Y1771569*
X2014293Y1770444*
X2023838Y1775694D02*
X2021111D01*
X2020838Y1772319*
X2021111Y1772694*
X2021929Y1773069*
X2022747*
X2023566Y1772694*
X2024111Y1771944*
X2024384Y1770819*
X2024111Y1770069*
X2023838Y1768944*
X2023293Y1768194*
X2022475Y1767819*
X2021656*
X2020838Y1768194*
X2020566Y1768569*
X2020293Y1769319*
X2027111Y1768569D02*
X2026838Y1768194D01*
X2027111Y1767819*
X2027384Y1768194*
X2027111Y1768569*
X2030384Y1775694D02*
X2033384D01*
X2031747Y1772694*
X2032566*
X2033111Y1772319*
X2033384Y1771944*
X2033656Y1770819*
Y1770069*
X2033384Y1768944*
X2032838Y1768194*
X2032020Y1767819*
X2031202*
X2030384Y1768194*
X2030111Y1768569*
X2029838Y1769319*
X2039656Y1775694D02*
X2036929D01*
X2036656Y1772319*
X2036929Y1772694*
X2037747Y1773069*
X2038566*
X2039384Y1772694*
X2039929Y1771944*
X2040202Y1770819*
X2039929Y1770069*
X2039656Y1768944*
X2039111Y1768194*
X2038293Y1767819*
X2037475*
X2036656Y1768194*
X2036384Y1768569*
X2036111Y1769319*
X2104066Y1775694D02*
X2107066D01*
X2105429Y1772694*
X2106247*
X2106793Y1772319*
X2107066Y1771944*
X2107338Y1770819*
Y1770069*
X2107066Y1768944*
X2106520Y1768194*
X2105702Y1767819*
X2104884*
X2104066Y1768194*
X2103793Y1768569*
X2103520Y1769319*
X2142475Y1767819D02*
X2148475Y1773819D01*
X2142475Y1779819*
X2136475Y1773819*
X2142475Y1767819*
Y1773819D02*
Y1779819D01*
X2169111Y1775694D02*
X2171293Y1771944D01*
Y1767819*
X2173475Y1775694D02*
X2171293Y1771944D01*
X2175929Y1775694D02*
Y1767819D01*
Y1775694D02*
X2179475D01*
X2175929Y1771944D02*
X2178111D01*
X2175929Y1767819D02*
X2179475D01*
X2185747Y1774569D02*
X2185202Y1775319D01*
X2184384Y1775694*
X2183293*
X2182475Y1775319*
X2181929Y1774569*
Y1773819*
X2182202Y1773069*
X2182475Y1772694*
X2183020Y1772319*
X2184656Y1771569*
X2185202Y1771194*
X2185475Y1770819*
X2185747Y1770069*
Y1768944*
X2185202Y1768194*
X2184384Y1767819*
X2183293*
X2182475Y1768194*
X2181929Y1768944*
X2222293Y1774569D02*
Y1767819D01*
X2219838Y1771194D02*
X2224747D01*
X2232111Y1777194D02*
X2227202Y1765194D01*
X2234566Y1771194D02*
X2239475D01*
X2243566Y1775694D02*
X2242747Y1775319D01*
X2242202Y1774194*
X2241929Y1772319*
Y1771194*
X2242202Y1769319*
X2242747Y1768194*
X2243566Y1767819*
X2244111*
X2244929Y1768194*
X2245475Y1769319*
X2245747Y1771194*
Y1772319*
X2245475Y1774194*
X2244929Y1775319*
X2244111Y1775694*
X2243566*
X2248475Y1768569D02*
X2248202Y1768194D01*
X2248475Y1767819*
X2248747Y1768194*
X2248475Y1768569*
X2252838Y1775694D02*
X2252020Y1775319D01*
X2251475Y1774194*
X2251202Y1772319*
Y1771194*
X2251475Y1769319*
X2252020Y1768194*
X2252838Y1767819*
X2253384*
X2254202Y1768194*
X2254747Y1769319*
X2255020Y1771194*
Y1772319*
X2254747Y1774194*
X2254202Y1775319*
X2253384Y1775694*
X2252838*
X2013202Y1751694D02*
X2010475Y1746444D01*
X2014566*
X2013202Y1751694D02*
Y1743819D01*
X2020838Y1751694D02*
X2018111Y1743819D01*
X2017020Y1751694D02*
X2020838D01*
X2103793Y1749819D02*
Y1750194D01*
X2104066Y1750944*
X2104338Y1751319*
X2104884Y1751694*
X2105975*
X2106520Y1751319*
X2106793Y1750944*
X2107066Y1750194*
Y1749444*
X2106793Y1748694*
X2106247Y1747569*
X2103520Y1743819*
X2107338*
X2136475D02*
X2148475D01*
X2136475Y1755819*
X2148475*
X2136475Y1743819*
X2169111Y1751694D02*
X2171293Y1747944D01*
Y1743819*
X2173475Y1751694D02*
X2171293Y1747944D01*
X2175929Y1751694D02*
Y1743819D01*
Y1751694D02*
X2179475D01*
X2175929Y1747944D02*
X2178111D01*
X2175929Y1743819D02*
X2179475D01*
X2185747Y1750569D02*
X2185202Y1751319D01*
X2184384Y1751694*
X2183293*
X2182475Y1751319*
X2181929Y1750569*
Y1749819*
X2182202Y1749069*
X2182475Y1748694*
X2183020Y1748319*
X2184656Y1747569*
X2185202Y1747194*
X2185475Y1746819*
X2185747Y1746069*
Y1744944*
X2185202Y1744194*
X2184384Y1743819*
X2183293*
X2182475Y1744194*
X2181929Y1744944*
X2222293Y1750569D02*
Y1743819D01*
X2219838Y1747194D02*
X2224747D01*
X2232111Y1753194D02*
X2227202Y1741194D01*
X2234566Y1747194D02*
X2239475D01*
X2243566Y1751694D02*
X2242747Y1751319D01*
X2242202Y1750194*
X2241929Y1748319*
Y1747194*
X2242202Y1745319*
X2242747Y1744194*
X2243566Y1743819*
X2244111*
X2244929Y1744194*
X2245475Y1745319*
X2245747Y1747194*
Y1748319*
X2245475Y1750194*
X2244929Y1751319*
X2244111Y1751694*
X2243566*
X2248475Y1744569D02*
X2248202Y1744194D01*
X2248475Y1743819*
X2248747Y1744194*
X2248475Y1744569*
X2252838Y1751694D02*
X2252020Y1751319D01*
X2251475Y1750194*
X2251202Y1748319*
Y1747194*
X2251475Y1745319*
X2252020Y1744194*
X2252838Y1743819*
X2253384*
X2254202Y1744194*
X2254747Y1745319*
X2255020Y1747194*
Y1748319*
X2254747Y1750194*
X2254202Y1751319*
X2253384Y1751694*
X2252838*
X2011020Y1727694D02*
X2014020D01*
X2012384Y1724694*
X2013202*
X2013747Y1724319*
X2014020Y1723944*
X2014293Y1722819*
Y1722069*
X2014020Y1720944*
X2013475Y1720194*
X2012656Y1719819*
X2011838*
X2011020Y1720194*
X2010747Y1720569*
X2010475Y1721319*
X2020293Y1725069D02*
X2020020Y1723944D01*
X2019475Y1723194*
X2018656Y1722819*
X2018384*
X2017566Y1723194*
X2017020Y1723944*
X2016747Y1725069*
Y1725444*
X2017020Y1726569*
X2017566Y1727319*
X2018384Y1727694*
X2018656*
X2019475Y1727319*
X2020020Y1726569*
X2020293Y1725069*
Y1723194*
X2020020Y1721319*
X2019475Y1720194*
X2018656Y1719819*
X2018111*
X2017293Y1720194*
X2017020Y1720944*
X2023020Y1720569D02*
X2022747Y1720194D01*
X2023020Y1719819*
X2023293Y1720194*
X2023020Y1720569*
X2026293Y1727694D02*
X2029293D01*
X2027656Y1724694*
X2028475*
X2029020Y1724319*
X2029293Y1723944*
X2029566Y1722819*
Y1722069*
X2029293Y1720944*
X2028747Y1720194*
X2027929Y1719819*
X2027111*
X2026293Y1720194*
X2026020Y1720569*
X2025747Y1721319*
X2035838Y1727694D02*
X2033111Y1719819D01*
X2032020Y1727694D02*
X2035838D01*
X2103793Y1725819D02*
Y1726194D01*
X2104066Y1726944*
X2104338Y1727319*
X2104884Y1727694*
X2105975*
X2106520Y1727319*
X2106793Y1726944*
X2107066Y1726194*
Y1725444*
X2106793Y1724694*
X2106247Y1723569*
X2103520Y1719819*
X2107338*
X2136475D02*
X2148475Y1731819D01*
Y1719819*
X2136475Y1731819*
Y1719819*
X2169111Y1727694D02*
X2171293Y1723944D01*
Y1719819*
X2173475Y1727694D02*
X2171293Y1723944D01*
X2175929Y1727694D02*
Y1719819D01*
Y1727694D02*
X2179475D01*
X2175929Y1723944D02*
X2178111D01*
X2175929Y1719819D02*
X2179475D01*
X2185747Y1726569D02*
X2185202Y1727319D01*
X2184384Y1727694*
X2183293*
X2182475Y1727319*
X2181929Y1726569*
Y1725819*
X2182202Y1725069*
X2182475Y1724694*
X2183020Y1724319*
X2184656Y1723569*
X2185202Y1723194*
X2185475Y1722819*
X2185747Y1722069*
Y1720944*
X2185202Y1720194*
X2184384Y1719819*
X2183293*
X2182475Y1720194*
X2181929Y1720944*
X2222293Y1726569D02*
Y1719819D01*
X2219838Y1723194D02*
X2224747D01*
X2232111Y1729194D02*
X2227202Y1717194D01*
X2234566Y1723194D02*
X2239475D01*
X2243566Y1727694D02*
X2242747Y1727319D01*
X2242202Y1726194*
X2241929Y1724319*
Y1723194*
X2242202Y1721319*
X2242747Y1720194*
X2243566Y1719819*
X2244111*
X2244929Y1720194*
X2245475Y1721319*
X2245747Y1723194*
Y1724319*
X2245475Y1726194*
X2244929Y1727319*
X2244111Y1727694*
X2243566*
X2248475Y1720569D02*
X2248202Y1720194D01*
X2248475Y1719819*
X2248747Y1720194*
X2248475Y1720569*
X2252838Y1727694D02*
X2252020Y1727319D01*
X2251475Y1726194*
X2251202Y1724319*
Y1723194*
X2251475Y1721319*
X2252020Y1720194*
X2252838Y1719819*
X2253384*
X2254202Y1720194*
X2254747Y1721319*
X2255020Y1723194*
Y1724319*
X2254747Y1726194*
X2254202Y1727319*
X2253384Y1727694*
X2252838*
X2014020Y1703694D02*
X2011293D01*
X2011020Y1700319*
X2011293Y1700694*
X2012111Y1701069*
X2012929*
X2013747Y1700694*
X2014293Y1699944*
X2014566Y1698819*
X2014293Y1698069*
X2014020Y1696944*
X2013475Y1696194*
X2012656Y1695819*
X2011838*
X2011020Y1696194*
X2010747Y1696569*
X2010475Y1697319*
X2017020Y1702194D02*
X2017566Y1702569D01*
X2018384Y1703694*
Y1695819*
X2021111Y1696569D02*
X2020838Y1696194D01*
X2021111Y1695819*
X2021384Y1696194*
X2021111Y1696569*
X2023838Y1702194D02*
X2024384Y1702569D01*
X2025202Y1703694*
Y1695819*
X2029020Y1703694D02*
X2028202Y1703319D01*
X2027929Y1702569*
Y1701819*
X2028202Y1701069*
X2028747Y1700694*
X2029838Y1700319*
X2030656Y1699944*
X2031202Y1699194*
X2031475Y1698444*
Y1697319*
X2031202Y1696569*
X2030929Y1696194*
X2030111Y1695819*
X2029020*
X2028202Y1696194*
X2027929Y1696569*
X2027656Y1697319*
Y1698444*
X2027929Y1699194*
X2028475Y1699944*
X2029293Y1700319*
X2030384Y1700694*
X2030929Y1701069*
X2031202Y1701819*
Y1702569*
X2030929Y1703319*
X2030111Y1703694*
X2029020*
X2103793Y1701819D02*
Y1702194D01*
X2104066Y1702944*
X2104338Y1703319*
X2104884Y1703694*
X2105975*
X2106520Y1703319*
X2106793Y1702944*
X2107066Y1702194*
Y1701444*
X2106793Y1700694*
X2106247Y1699569*
X2103520Y1695819*
X2107338*
X2136475Y1701819D02*
X2148475D01*
X2142475Y1695819D02*
Y1707819D01*
X2147220Y1711119D02*
X2145475Y1704819D01*
X2147220Y1711119D02*
X2148966Y1704819D01*
X2146129Y1706919D02*
X2148311D01*
X2169111Y1703694D02*
X2171293Y1699944D01*
Y1695819*
X2173475Y1703694D02*
X2171293Y1699944D01*
X2175929Y1703694D02*
Y1695819D01*
Y1703694D02*
X2179475D01*
X2175929Y1699944D02*
X2178111D01*
X2175929Y1695819D02*
X2179475D01*
X2185747Y1702569D02*
X2185202Y1703319D01*
X2184384Y1703694*
X2183293*
X2182475Y1703319*
X2181929Y1702569*
Y1701819*
X2182202Y1701069*
X2182475Y1700694*
X2183020Y1700319*
X2184656Y1699569*
X2185202Y1699194*
X2185475Y1698819*
X2185747Y1698069*
Y1696944*
X2185202Y1696194*
X2184384Y1695819*
X2183293*
X2182475Y1696194*
X2181929Y1696944*
X2222293Y1702569D02*
Y1695819D01*
X2219838Y1699194D02*
X2224747D01*
X2232111Y1705194D02*
X2227202Y1693194D01*
X2234566Y1699194D02*
X2239475D01*
X2243566Y1703694D02*
X2242747Y1703319D01*
X2242202Y1702194*
X2241929Y1700319*
Y1699194*
X2242202Y1697319*
X2242747Y1696194*
X2243566Y1695819*
X2244111*
X2244929Y1696194*
X2245475Y1697319*
X2245747Y1699194*
Y1700319*
X2245475Y1702194*
X2244929Y1703319*
X2244111Y1703694*
X2243566*
X2248475Y1696569D02*
X2248202Y1696194D01*
X2248475Y1695819*
X2248747Y1696194*
X2248475Y1696569*
X2252838Y1703694D02*
X2252020Y1703319D01*
X2251475Y1702194*
X2251202Y1700319*
Y1699194*
X2251475Y1697319*
X2252020Y1696194*
X2252838Y1695819*
X2253384*
X2254202Y1696194*
X2254747Y1697319*
X2255020Y1699194*
Y1700319*
X2254747Y1702194*
X2254202Y1703319*
X2253384Y1703694*
X2252838*
X2014293Y1679694D02*
X2011566Y1671819D01*
X2010475Y1679694D02*
X2014293D01*
X2018111D02*
X2017293Y1679319D01*
X2017020Y1678569*
Y1677819*
X2017293Y1677069*
X2017838Y1676694*
X2018929Y1676319*
X2019747Y1675944*
X2020293Y1675194*
X2020566Y1674444*
Y1673319*
X2020293Y1672569*
X2020020Y1672194*
X2019202Y1671819*
X2018111*
X2017293Y1672194*
X2017020Y1672569*
X2016747Y1673319*
Y1674444*
X2017020Y1675194*
X2017566Y1675944*
X2018384Y1676319*
X2019475Y1676694*
X2020020Y1677069*
X2020293Y1677819*
Y1678569*
X2020020Y1679319*
X2019202Y1679694*
X2018111*
X2023293Y1672569D02*
X2023020Y1672194D01*
X2023293Y1671819*
X2023566Y1672194*
X2023293Y1672569*
X2029838Y1679694D02*
X2027111Y1671819D01*
X2026020Y1679694D02*
X2029838D01*
X2035020D02*
X2032293Y1674444D01*
X2036384*
X2035020Y1679694D02*
Y1671819D01*
X2106929Y1678569D02*
X2106656Y1679319D01*
X2105838Y1679694*
X2105293*
X2104475Y1679319*
X2103929Y1678194*
X2103656Y1676319*
Y1674444*
X2103929Y1672944*
X2104475Y1672194*
X2105293Y1671819*
X2105566*
X2106384Y1672194*
X2106929Y1672944*
X2107202Y1674069*
Y1674444*
X2106929Y1675569*
X2106384Y1676319*
X2105566Y1676694*
X2105293*
X2104475Y1676319*
X2103929Y1675569*
X2103656Y1674444*
X2136475Y1677819D02*
X2148475D01*
X2142475Y1671819D02*
Y1683819D01*
X2145475Y1687119D02*
Y1680819D01*
Y1687119D02*
X2147438D01*
X2148093Y1686819*
X2148311Y1686519*
X2148529Y1685919*
Y1685319*
X2148311Y1684719*
X2148093Y1684419*
X2147438Y1684119*
X2145475D02*
X2147438D01*
X2148093Y1683819*
X2148311Y1683519*
X2148529Y1682919*
Y1682019*
X2148311Y1681419*
X2148093Y1681119*
X2147438Y1680819*
X2145475*
X2172111Y1679694D02*
Y1671819D01*
Y1679694D02*
X2175929Y1671819D01*
Y1679694D02*
Y1671819D01*
X2180020Y1679694D02*
X2179475Y1679319D01*
X2178929Y1678569*
X2178656Y1677819*
X2178384Y1676694*
Y1674819*
X2178656Y1673694*
X2178929Y1672944*
X2179475Y1672194*
X2180020Y1671819*
X2181111*
X2181656Y1672194*
X2182202Y1672944*
X2182475Y1673694*
X2182747Y1674819*
Y1676694*
X2182475Y1677819*
X2182202Y1678569*
X2181656Y1679319*
X2181111Y1679694*
X2180020*
X2222293Y1678569D02*
Y1671819D01*
X2219838Y1675194D02*
X2224747D01*
X2232111Y1681194D02*
X2227202Y1669194D01*
X2234566Y1675194D02*
X2239475D01*
X2243566Y1679694D02*
X2242747Y1679319D01*
X2242202Y1678194*
X2241929Y1676319*
Y1675194*
X2242202Y1673319*
X2242747Y1672194*
X2243566Y1671819*
X2244111*
X2244929Y1672194*
X2245475Y1673319*
X2245747Y1675194*
Y1676319*
X2245475Y1678194*
X2244929Y1679319*
X2244111Y1679694*
X2243566*
X2248475Y1672569D02*
X2248202Y1672194D01*
X2248475Y1671819*
X2248747Y1672194*
X2248475Y1672569*
X2252838Y1679694D02*
X2252020Y1679319D01*
X2251475Y1678194*
X2251202Y1676319*
Y1675194*
X2251475Y1673319*
X2252020Y1672194*
X2252838Y1671819*
X2253384*
X2254202Y1672194*
X2254747Y1673319*
X2255020Y1675194*
Y1676319*
X2254747Y1678194*
X2254202Y1679319*
X2253384Y1679694*
X2252838*
X2014293Y1655694D02*
X2011566Y1647819D01*
X2010475Y1655694D02*
X2014293D01*
X2018111D02*
X2017293Y1655319D01*
X2017020Y1654569*
Y1653819*
X2017293Y1653069*
X2017838Y1652694*
X2018929Y1652319*
X2019747Y1651944*
X2020293Y1651194*
X2020566Y1650444*
Y1649319*
X2020293Y1648569*
X2020020Y1648194*
X2019202Y1647819*
X2018111*
X2017293Y1648194*
X2017020Y1648569*
X2016747Y1649319*
Y1650444*
X2017020Y1651194*
X2017566Y1651944*
X2018384Y1652319*
X2019475Y1652694*
X2020020Y1653069*
X2020293Y1653819*
Y1654569*
X2020020Y1655319*
X2019202Y1655694*
X2018111*
X2023293Y1648569D02*
X2023020Y1648194D01*
X2023293Y1647819*
X2023566Y1648194*
X2023293Y1648569*
X2029838Y1655694D02*
X2027111Y1647819D01*
X2026020Y1655694D02*
X2029838D01*
X2035020D02*
X2032293Y1650444D01*
X2036384*
X2035020Y1655694D02*
Y1647819D01*
X2045111Y1653069D02*
X2048111Y1647819D01*
Y1653069D02*
X2045111Y1647819D01*
X2057111Y1653819D02*
Y1654194D01*
X2057384Y1654944*
X2057656Y1655319*
X2058202Y1655694*
X2059293*
X2059838Y1655319*
X2060111Y1654944*
X2060384Y1654194*
Y1653444*
X2060111Y1652694*
X2059566Y1651569*
X2056838Y1647819*
X2060656*
X2064475Y1655694D02*
X2063656Y1655319D01*
X2063384Y1654569*
Y1653819*
X2063656Y1653069*
X2064202Y1652694*
X2065293Y1652319*
X2066111Y1651944*
X2066656Y1651194*
X2066929Y1650444*
Y1649319*
X2066656Y1648569*
X2066384Y1648194*
X2065566Y1647819*
X2064475*
X2063656Y1648194*
X2063384Y1648569*
X2063111Y1649319*
Y1650444*
X2063384Y1651194*
X2063929Y1651944*
X2064747Y1652319*
X2065838Y1652694*
X2066384Y1653069*
X2066656Y1653819*
Y1654569*
X2066384Y1655319*
X2065566Y1655694*
X2064475*
X2072929Y1653069D02*
X2072656Y1651944D01*
X2072111Y1651194*
X2071293Y1650819*
X2071020*
X2070202Y1651194*
X2069656Y1651944*
X2069384Y1653069*
Y1653444*
X2069656Y1654569*
X2070202Y1655319*
X2071020Y1655694*
X2071293*
X2072111Y1655319*
X2072656Y1654569*
X2072929Y1653069*
Y1651194*
X2072656Y1649319*
X2072111Y1648194*
X2071293Y1647819*
X2070747*
X2069929Y1648194*
X2069656Y1648944*
X2075656Y1648569D02*
X2075384Y1648194D01*
X2075656Y1647819*
X2075929Y1648194*
X2075656Y1648569*
X2078929Y1655694D02*
X2081929D01*
X2080293Y1652694*
X2081111*
X2081656Y1652319*
X2081929Y1651944*
X2082202Y1650819*
Y1650069*
X2081929Y1648944*
X2081384Y1648194*
X2080566Y1647819*
X2079747*
X2078929Y1648194*
X2078656Y1648569*
X2078384Y1649319*
X2088475Y1655694D02*
X2085747Y1647819D01*
X2084656Y1655694D02*
X2088475D01*
X2104747Y1654194D02*
X2105293Y1654569D01*
X2106111Y1655694*
Y1647819*
X2136475Y1653819D02*
X2148475D01*
X2142475Y1647819D02*
Y1659819D01*
X2148747Y1661619D02*
X2148529Y1662219D01*
X2148093Y1662819*
X2147656Y1663119*
X2146784*
X2146347Y1662819*
X2145911Y1662219*
X2145693Y1661619*
X2145475Y1660719*
Y1659219*
X2145693Y1658319*
X2145911Y1657719*
X2146347Y1657119*
X2146784Y1656819*
X2147656*
X2148093Y1657119*
X2148529Y1657719*
X2148747Y1658319*
X2172111Y1655694D02*
Y1647819D01*
Y1655694D02*
X2175929Y1647819D01*
Y1655694D02*
Y1647819D01*
X2180020Y1655694D02*
X2179475Y1655319D01*
X2178929Y1654569*
X2178656Y1653819*
X2178384Y1652694*
Y1650819*
X2178656Y1649694*
X2178929Y1648944*
X2179475Y1648194*
X2180020Y1647819*
X2181111*
X2181656Y1648194*
X2182202Y1648944*
X2182475Y1649694*
X2182747Y1650819*
Y1652694*
X2182475Y1653819*
X2182202Y1654569*
X2181656Y1655319*
X2181111Y1655694*
X2180020*
X2222293Y1654569D02*
Y1647819D01*
X2219838Y1651194D02*
X2224747D01*
X2232111Y1657194D02*
X2227202Y1645194D01*
X2234566Y1651194D02*
X2239475D01*
X2243566Y1655694D02*
X2242747Y1655319D01*
X2242202Y1654194*
X2241929Y1652319*
Y1651194*
X2242202Y1649319*
X2242747Y1648194*
X2243566Y1647819*
X2244111*
X2244929Y1648194*
X2245475Y1649319*
X2245747Y1651194*
Y1652319*
X2245475Y1654194*
X2244929Y1655319*
X2244111Y1655694*
X2243566*
X2248475Y1648569D02*
X2248202Y1648194D01*
X2248475Y1647819*
X2248747Y1648194*
X2248475Y1648569*
X2252838Y1655694D02*
X2252020Y1655319D01*
X2251475Y1654194*
X2251202Y1652319*
Y1651194*
X2251475Y1649319*
X2252020Y1648194*
X2252838Y1647819*
X2253384*
X2254202Y1648194*
X2254747Y1649319*
X2255020Y1651194*
Y1652319*
X2254747Y1654194*
X2254202Y1655319*
X2253384Y1655694*
X2252838*
X2010747Y1629819D02*
Y1630194D01*
X2011020Y1630944*
X2011293Y1631319*
X2011838Y1631694*
X2012929*
X2013475Y1631319*
X2013747Y1630944*
X2014020Y1630194*
Y1629444*
X2013747Y1628694*
X2013202Y1627569*
X2010475Y1623819*
X2014293*
X2020293Y1631694D02*
X2017566D01*
X2017293Y1628319*
X2017566Y1628694*
X2018384Y1629069*
X2019202*
X2020020Y1628694*
X2020566Y1627944*
X2020838Y1626819*
X2020566Y1626069*
X2020293Y1624944*
X2019747Y1624194*
X2018929Y1623819*
X2018111*
X2017293Y1624194*
X2017020Y1624569*
X2016747Y1625319*
X2026838Y1631694D02*
X2024111D01*
X2023838Y1628319*
X2024111Y1628694*
X2024929Y1629069*
X2025747*
X2026566Y1628694*
X2027111Y1627944*
X2027384Y1626819*
X2027111Y1626069*
X2026838Y1624944*
X2026293Y1624194*
X2025475Y1623819*
X2024656*
X2023838Y1624194*
X2023566Y1624569*
X2023293Y1625319*
X2030111Y1624569D02*
X2029838Y1624194D01*
X2030111Y1623819*
X2030384Y1624194*
X2030111Y1624569*
X2036384Y1629069D02*
X2036111Y1627944D01*
X2035566Y1627194*
X2034747Y1626819*
X2034475*
X2033656Y1627194*
X2033111Y1627944*
X2032838Y1629069*
Y1629444*
X2033111Y1630569*
X2033656Y1631319*
X2034475Y1631694*
X2034747*
X2035566Y1631319*
X2036111Y1630569*
X2036384Y1629069*
Y1627194*
X2036111Y1625319*
X2035566Y1624194*
X2034747Y1623819*
X2034202*
X2033384Y1624194*
X2033111Y1624944*
X2038838Y1630194D02*
X2039384Y1630569D01*
X2040202Y1631694*
Y1623819*
X2048929Y1629069D02*
X2051929Y1623819D01*
Y1629069D02*
X2048929Y1623819D01*
X2060929Y1629819D02*
Y1630194D01*
X2061202Y1630944*
X2061475Y1631319*
X2062020Y1631694*
X2063111*
X2063656Y1631319*
X2063929Y1630944*
X2064202Y1630194*
Y1629444*
X2063929Y1628694*
X2063384Y1627569*
X2060656Y1623819*
X2064475*
X2068293Y1631694D02*
X2067475Y1631319D01*
X2067202Y1630569*
Y1629819*
X2067475Y1629069*
X2068020Y1628694*
X2069111Y1628319*
X2069929Y1627944*
X2070475Y1627194*
X2070747Y1626444*
Y1625319*
X2070475Y1624569*
X2070202Y1624194*
X2069384Y1623819*
X2068293*
X2067475Y1624194*
X2067202Y1624569*
X2066929Y1625319*
Y1626444*
X2067202Y1627194*
X2067747Y1627944*
X2068566Y1628319*
X2069656Y1628694*
X2070202Y1629069*
X2070475Y1629819*
Y1630569*
X2070202Y1631319*
X2069384Y1631694*
X2068293*
X2076747Y1629069D02*
X2076475Y1627944D01*
X2075929Y1627194*
X2075111Y1626819*
X2074838*
X2074020Y1627194*
X2073475Y1627944*
X2073202Y1629069*
Y1629444*
X2073475Y1630569*
X2074020Y1631319*
X2074838Y1631694*
X2075111*
X2075929Y1631319*
X2076475Y1630569*
X2076747Y1629069*
Y1627194*
X2076475Y1625319*
X2075929Y1624194*
X2075111Y1623819*
X2074566*
X2073747Y1624194*
X2073475Y1624944*
X2079475Y1624569D02*
X2079202Y1624194D01*
X2079475Y1623819*
X2079747Y1624194*
X2079475Y1624569*
X2082747Y1631694D02*
X2085747D01*
X2084111Y1628694*
X2084929*
X2085475Y1628319*
X2085747Y1627944*
X2086020Y1626819*
Y1626069*
X2085747Y1624944*
X2085202Y1624194*
X2084384Y1623819*
X2083566*
X2082747Y1624194*
X2082475Y1624569*
X2082202Y1625319*
X2092293Y1631694D02*
X2089566Y1623819D01*
X2088475Y1631694D02*
X2092293D01*
X2104747Y1630194D02*
X2105293Y1630569D01*
X2106111Y1631694*
Y1623819*
X2136475Y1629819D02*
X2148475D01*
X2142475Y1623819D02*
Y1635819D01*
X2145475Y1639119D02*
Y1632819D01*
Y1639119D02*
X2147002D01*
X2147656Y1638819*
X2148093Y1638219*
X2148311Y1637619*
X2148529Y1636719*
Y1635219*
X2148311Y1634319*
X2148093Y1633719*
X2147656Y1633119*
X2147002Y1632819*
X2145475*
X2169111Y1631694D02*
X2171293Y1627944D01*
Y1623819*
X2173475Y1631694D02*
X2171293Y1627944D01*
X2175929Y1631694D02*
Y1623819D01*
Y1631694D02*
X2179475D01*
X2175929Y1627944D02*
X2178111D01*
X2175929Y1623819D02*
X2179475D01*
X2185747Y1630569D02*
X2185202Y1631319D01*
X2184384Y1631694*
X2183293*
X2182475Y1631319*
X2181929Y1630569*
Y1629819*
X2182202Y1629069*
X2182475Y1628694*
X2183020Y1628319*
X2184656Y1627569*
X2185202Y1627194*
X2185475Y1626819*
X2185747Y1626069*
Y1624944*
X2185202Y1624194*
X2184384Y1623819*
X2183293*
X2182475Y1624194*
X2181929Y1624944*
X2222293Y1630569D02*
Y1623819D01*
X2219838Y1627194D02*
X2224747D01*
X2232111Y1633194D02*
X2227202Y1621194D01*
X2234566Y1627194D02*
X2239475D01*
X2243566Y1631694D02*
X2242747Y1631319D01*
X2242202Y1630194*
X2241929Y1628319*
Y1627194*
X2242202Y1625319*
X2242747Y1624194*
X2243566Y1623819*
X2244111*
X2244929Y1624194*
X2245475Y1625319*
X2245747Y1627194*
Y1628319*
X2245475Y1630194*
X2244929Y1631319*
X2244111Y1631694*
X2243566*
X2248475Y1624569D02*
X2248202Y1624194D01*
X2248475Y1623819*
X2248747Y1624194*
X2248475Y1624569*
X2252838Y1631694D02*
X2252020Y1631319D01*
X2251475Y1630194*
X2251202Y1628319*
Y1627194*
X2251475Y1625319*
X2252020Y1624194*
X2252838Y1623819*
X2253384*
X2254202Y1624194*
X2254747Y1625319*
X2255020Y1627194*
Y1628319*
X2254747Y1630194*
X2254202Y1631319*
X2253384Y1631694*
X2252838*
X2014020Y1605069D02*
X2013747Y1603944D01*
X2013202Y1603194*
X2012384Y1602819*
X2012111*
X2011293Y1603194*
X2010747Y1603944*
X2010475Y1605069*
Y1605444*
X2010747Y1606569*
X2011293Y1607319*
X2012111Y1607694*
X2012384*
X2013202Y1607319*
X2013747Y1606569*
X2014020Y1605069*
Y1603194*
X2013747Y1601319*
X2013202Y1600194*
X2012384Y1599819*
X2011838*
X2011020Y1600194*
X2010747Y1600944*
X2018111Y1607694D02*
X2017293Y1607319D01*
X2016747Y1606194*
X2016475Y1604319*
Y1603194*
X2016747Y1601319*
X2017293Y1600194*
X2018111Y1599819*
X2018656*
X2019475Y1600194*
X2020020Y1601319*
X2020293Y1603194*
Y1604319*
X2020020Y1606194*
X2019475Y1607319*
X2018656Y1607694*
X2018111*
X2023020Y1600569D02*
X2022747Y1600194D01*
X2023020Y1599819*
X2023293Y1600194*
X2023020Y1600569*
X2029293Y1607694D02*
X2026566D01*
X2026293Y1604319*
X2026566Y1604694*
X2027384Y1605069*
X2028202*
X2029020Y1604694*
X2029566Y1603944*
X2029838Y1602819*
X2029566Y1602069*
X2029293Y1600944*
X2028747Y1600194*
X2027929Y1599819*
X2027111*
X2026293Y1600194*
X2026020Y1600569*
X2025747Y1601319*
X2035838Y1607694D02*
X2033111D01*
X2032838Y1604319*
X2033111Y1604694*
X2033929Y1605069*
X2034747*
X2035566Y1604694*
X2036111Y1603944*
X2036384Y1602819*
X2036111Y1602069*
X2035838Y1600944*
X2035293Y1600194*
X2034475Y1599819*
X2033656*
X2032838Y1600194*
X2032566Y1600569*
X2032293Y1601319*
X2104747Y1606194D02*
X2105293Y1606569D01*
X2106111Y1607694*
Y1599819*
X2136475Y1605819D02*
X2148475D01*
X2142475Y1599819D02*
Y1611819D01*
X2145475Y1615119D02*
Y1608819D01*
Y1615119D02*
X2148311D01*
X2145475Y1612119D02*
X2147220D01*
X2145475Y1608819D02*
X2148311D01*
X2169111Y1607694D02*
X2171293Y1603944D01*
Y1599819*
X2173475Y1607694D02*
X2171293Y1603944D01*
X2175929Y1607694D02*
Y1599819D01*
Y1607694D02*
X2179475D01*
X2175929Y1603944D02*
X2178111D01*
X2175929Y1599819D02*
X2179475D01*
X2185747Y1606569D02*
X2185202Y1607319D01*
X2184384Y1607694*
X2183293*
X2182475Y1607319*
X2181929Y1606569*
Y1605819*
X2182202Y1605069*
X2182475Y1604694*
X2183020Y1604319*
X2184656Y1603569*
X2185202Y1603194*
X2185475Y1602819*
X2185747Y1602069*
Y1600944*
X2185202Y1600194*
X2184384Y1599819*
X2183293*
X2182475Y1600194*
X2181929Y1600944*
X2222293Y1606569D02*
Y1599819D01*
X2219838Y1603194D02*
X2224747D01*
X2232111Y1609194D02*
X2227202Y1597194D01*
X2234566Y1603194D02*
X2239475D01*
X2243566Y1607694D02*
X2242747Y1607319D01*
X2242202Y1606194*
X2241929Y1604319*
Y1603194*
X2242202Y1601319*
X2242747Y1600194*
X2243566Y1599819*
X2244111*
X2244929Y1600194*
X2245475Y1601319*
X2245747Y1603194*
Y1604319*
X2245475Y1606194*
X2244929Y1607319*
X2244111Y1607694*
X2243566*
X2248475Y1600569D02*
X2248202Y1600194D01*
X2248475Y1599819*
X2248747Y1600194*
X2248475Y1600569*
X2252838Y1607694D02*
X2252020Y1607319D01*
X2251475Y1606194*
X2251202Y1604319*
Y1603194*
X2251475Y1601319*
X2252020Y1600194*
X2252838Y1599819*
X2253384*
X2254202Y1600194*
X2254747Y1601319*
X2255020Y1603194*
Y1604319*
X2254747Y1606194*
X2254202Y1607319*
X2253384Y1607694*
X2252838*
X2013202Y1583694D02*
X2010475Y1578444D01*
X2014566*
X2013202Y1583694D02*
Y1575819D01*
X2020566Y1581069D02*
X2020293Y1579944D01*
X2019747Y1579194*
X2018929Y1578819*
X2018656*
X2017838Y1579194*
X2017293Y1579944*
X2017020Y1581069*
Y1581444*
X2017293Y1582569*
X2017838Y1583319*
X2018656Y1583694*
X2018929*
X2019747Y1583319*
X2020293Y1582569*
X2020566Y1581069*
Y1579194*
X2020293Y1577319*
X2019747Y1576194*
X2018929Y1575819*
X2018384*
X2017566Y1576194*
X2017293Y1576944*
X2023293Y1576569D02*
X2023020Y1576194D01*
X2023293Y1575819*
X2023566Y1576194*
X2023293Y1576569*
X2026293Y1581819D02*
Y1582194D01*
X2026566Y1582944*
X2026838Y1583319*
X2027384Y1583694*
X2028475*
X2029020Y1583319*
X2029293Y1582944*
X2029566Y1582194*
Y1581444*
X2029293Y1580694*
X2028747Y1579569*
X2026020Y1575819*
X2029838*
X2032293Y1582194D02*
X2032838Y1582569D01*
X2033656Y1583694*
Y1575819*
X2042384Y1581069D02*
X2045384Y1575819D01*
Y1581069D02*
X2042384Y1575819D01*
X2054384Y1581819D02*
Y1582194D01*
X2054656Y1582944*
X2054929Y1583319*
X2055475Y1583694*
X2056566*
X2057111Y1583319*
X2057384Y1582944*
X2057656Y1582194*
Y1581444*
X2057384Y1580694*
X2056838Y1579569*
X2054111Y1575819*
X2057929*
X2061747Y1583694D02*
X2060929Y1583319D01*
X2060656Y1582569*
Y1581819*
X2060929Y1581069*
X2061475Y1580694*
X2062566Y1580319*
X2063384Y1579944*
X2063929Y1579194*
X2064202Y1578444*
Y1577319*
X2063929Y1576569*
X2063656Y1576194*
X2062838Y1575819*
X2061747*
X2060929Y1576194*
X2060656Y1576569*
X2060384Y1577319*
Y1578444*
X2060656Y1579194*
X2061202Y1579944*
X2062020Y1580319*
X2063111Y1580694*
X2063656Y1581069*
X2063929Y1581819*
Y1582569*
X2063656Y1583319*
X2062838Y1583694*
X2061747*
X2070202Y1581069D02*
X2069929Y1579944D01*
X2069384Y1579194*
X2068566Y1578819*
X2068293*
X2067475Y1579194*
X2066929Y1579944*
X2066656Y1581069*
Y1581444*
X2066929Y1582569*
X2067475Y1583319*
X2068293Y1583694*
X2068566*
X2069384Y1583319*
X2069929Y1582569*
X2070202Y1581069*
Y1579194*
X2069929Y1577319*
X2069384Y1576194*
X2068566Y1575819*
X2068020*
X2067202Y1576194*
X2066929Y1576944*
X2072929Y1576569D02*
X2072656Y1576194D01*
X2072929Y1575819*
X2073202Y1576194*
X2072929Y1576569*
X2076202Y1583694D02*
X2079202D01*
X2077566Y1580694*
X2078384*
X2078929Y1580319*
X2079202Y1579944*
X2079475Y1578819*
Y1578069*
X2079202Y1576944*
X2078656Y1576194*
X2077838Y1575819*
X2077020*
X2076202Y1576194*
X2075929Y1576569*
X2075656Y1577319*
X2085747Y1583694D02*
X2083020Y1575819D01*
X2081929Y1583694D02*
X2085747D01*
X2104747Y1582194D02*
X2105293Y1582569D01*
X2106111Y1583694*
Y1575819*
X2136475Y1581819D02*
X2148475D01*
X2142475Y1575819D02*
Y1587819D01*
X2145475Y1591119D02*
Y1584819D01*
Y1591119D02*
X2148311D01*
X2145475Y1588119D02*
X2147220D01*
X2169111Y1583694D02*
X2171293Y1579944D01*
Y1575819*
X2173475Y1583694D02*
X2171293Y1579944D01*
X2175929Y1583694D02*
Y1575819D01*
Y1583694D02*
X2179475D01*
X2175929Y1579944D02*
X2178111D01*
X2175929Y1575819D02*
X2179475D01*
X2185747Y1582569D02*
X2185202Y1583319D01*
X2184384Y1583694*
X2183293*
X2182475Y1583319*
X2181929Y1582569*
Y1581819*
X2182202Y1581069*
X2182475Y1580694*
X2183020Y1580319*
X2184656Y1579569*
X2185202Y1579194*
X2185475Y1578819*
X2185747Y1578069*
Y1576944*
X2185202Y1576194*
X2184384Y1575819*
X2183293*
X2182475Y1576194*
X2181929Y1576944*
X2222293Y1582569D02*
Y1575819D01*
X2219838Y1579194D02*
X2224747D01*
X2232111Y1585194D02*
X2227202Y1573194D01*
X2234566Y1579194D02*
X2239475D01*
X2243566Y1583694D02*
X2242747Y1583319D01*
X2242202Y1582194*
X2241929Y1580319*
Y1579194*
X2242202Y1577319*
X2242747Y1576194*
X2243566Y1575819*
X2244111*
X2244929Y1576194*
X2245475Y1577319*
X2245747Y1579194*
Y1580319*
X2245475Y1582194*
X2244929Y1583319*
X2244111Y1583694*
X2243566*
X2248475Y1576569D02*
X2248202Y1576194D01*
X2248475Y1575819*
X2248747Y1576194*
X2248475Y1576569*
X2252838Y1583694D02*
X2252020Y1583319D01*
X2251475Y1582194*
X2251202Y1580319*
Y1579194*
X2251475Y1577319*
X2252020Y1576194*
X2252838Y1575819*
X2253384*
X2254202Y1576194*
X2254747Y1577319*
X2255020Y1579194*
Y1580319*
X2254747Y1582194*
X2254202Y1583319*
X2253384Y1583694*
X2252838*
X2014020Y1559694D02*
X2011293D01*
X2011020Y1556319*
X2011293Y1556694*
X2012111Y1557069*
X2012929*
X2013747Y1556694*
X2014293Y1555944*
X2014566Y1554819*
X2014293Y1554069*
X2014020Y1552944*
X2013475Y1552194*
X2012656Y1551819*
X2011838*
X2011020Y1552194*
X2010747Y1552569*
X2010475Y1553319*
X2020566Y1559694D02*
X2017838D01*
X2017566Y1556319*
X2017838Y1556694*
X2018656Y1557069*
X2019475*
X2020293Y1556694*
X2020838Y1555944*
X2021111Y1554819*
X2020838Y1554069*
X2020566Y1552944*
X2020020Y1552194*
X2019202Y1551819*
X2018384*
X2017566Y1552194*
X2017293Y1552569*
X2017020Y1553319*
X2023838Y1552569D02*
X2023566Y1552194D01*
X2023838Y1551819*
X2024111Y1552194*
X2023838Y1552569*
X2026566Y1558194D02*
X2027111Y1558569D01*
X2027929Y1559694*
Y1551819*
X2030656Y1557819D02*
Y1558194D01*
X2030929Y1558944*
X2031202Y1559319*
X2031747Y1559694*
X2032838*
X2033384Y1559319*
X2033656Y1558944*
X2033929Y1558194*
Y1557444*
X2033656Y1556694*
X2033111Y1555569*
X2030384Y1551819*
X2034202*
X2042929Y1557069D02*
X2045929Y1551819D01*
Y1557069D02*
X2042929Y1551819D01*
X2054929Y1557819D02*
Y1558194D01*
X2055202Y1558944*
X2055475Y1559319*
X2056020Y1559694*
X2057111*
X2057656Y1559319*
X2057929Y1558944*
X2058202Y1558194*
Y1557444*
X2057929Y1556694*
X2057384Y1555569*
X2054656Y1551819*
X2058475*
X2062293Y1559694D02*
X2061475Y1559319D01*
X2061202Y1558569*
Y1557819*
X2061475Y1557069*
X2062020Y1556694*
X2063111Y1556319*
X2063929Y1555944*
X2064475Y1555194*
X2064747Y1554444*
Y1553319*
X2064475Y1552569*
X2064202Y1552194*
X2063384Y1551819*
X2062293*
X2061475Y1552194*
X2061202Y1552569*
X2060929Y1553319*
Y1554444*
X2061202Y1555194*
X2061747Y1555944*
X2062566Y1556319*
X2063656Y1556694*
X2064202Y1557069*
X2064475Y1557819*
Y1558569*
X2064202Y1559319*
X2063384Y1559694*
X2062293*
X2070747Y1557069D02*
X2070475Y1555944D01*
X2069929Y1555194*
X2069111Y1554819*
X2068838*
X2068020Y1555194*
X2067475Y1555944*
X2067202Y1557069*
Y1557444*
X2067475Y1558569*
X2068020Y1559319*
X2068838Y1559694*
X2069111*
X2069929Y1559319*
X2070475Y1558569*
X2070747Y1557069*
Y1555194*
X2070475Y1553319*
X2069929Y1552194*
X2069111Y1551819*
X2068566*
X2067747Y1552194*
X2067475Y1552944*
X2073475Y1552569D02*
X2073202Y1552194D01*
X2073475Y1551819*
X2073747Y1552194*
X2073475Y1552569*
X2076747Y1559694D02*
X2079747D01*
X2078111Y1556694*
X2078929*
X2079475Y1556319*
X2079747Y1555944*
X2080020Y1554819*
Y1554069*
X2079747Y1552944*
X2079202Y1552194*
X2078384Y1551819*
X2077566*
X2076747Y1552194*
X2076475Y1552569*
X2076202Y1553319*
X2086293Y1559694D02*
X2083566Y1551819D01*
X2082475Y1559694D02*
X2086293D01*
X2104747Y1558194D02*
X2105293Y1558569D01*
X2106111Y1559694*
Y1551819*
X2136475Y1557819D02*
X2148475D01*
X2142475Y1551819D02*
Y1563819D01*
X2148747Y1565619D02*
X2148529Y1566219D01*
X2148093Y1566819*
X2147656Y1567119*
X2146784*
X2146347Y1566819*
X2145911Y1566219*
X2145693Y1565619*
X2145475Y1564719*
Y1563219*
X2145693Y1562319*
X2145911Y1561719*
X2146347Y1561119*
X2146784Y1560819*
X2147656*
X2148093Y1561119*
X2148529Y1561719*
X2148747Y1562319*
Y1563219*
X2147656D02*
X2148747D01*
X2169111Y1559694D02*
X2171293Y1555944D01*
Y1551819*
X2173475Y1559694D02*
X2171293Y1555944D01*
X2175929Y1559694D02*
Y1551819D01*
Y1559694D02*
X2179475D01*
X2175929Y1555944D02*
X2178111D01*
X2175929Y1551819D02*
X2179475D01*
X2185747Y1558569D02*
X2185202Y1559319D01*
X2184384Y1559694*
X2183293*
X2182475Y1559319*
X2181929Y1558569*
Y1557819*
X2182202Y1557069*
X2182475Y1556694*
X2183020Y1556319*
X2184656Y1555569*
X2185202Y1555194*
X2185475Y1554819*
X2185747Y1554069*
Y1552944*
X2185202Y1552194*
X2184384Y1551819*
X2183293*
X2182475Y1552194*
X2181929Y1552944*
X2222293Y1558569D02*
Y1551819D01*
X2219838Y1555194D02*
X2224747D01*
X2232111Y1561194D02*
X2227202Y1549194D01*
X2234566Y1555194D02*
X2239475D01*
X2243566Y1559694D02*
X2242747Y1559319D01*
X2242202Y1558194*
X2241929Y1556319*
Y1555194*
X2242202Y1553319*
X2242747Y1552194*
X2243566Y1551819*
X2244111*
X2244929Y1552194*
X2245475Y1553319*
X2245747Y1555194*
Y1556319*
X2245475Y1558194*
X2244929Y1559319*
X2244111Y1559694*
X2243566*
X2248475Y1552569D02*
X2248202Y1552194D01*
X2248475Y1551819*
X2248747Y1552194*
X2248475Y1552569*
X2252838Y1559694D02*
X2252020Y1559319D01*
X2251475Y1558194*
X2251202Y1556319*
Y1555194*
X2251475Y1553319*
X2252020Y1552194*
X2252838Y1551819*
X2253384*
X2254202Y1552194*
X2254747Y1553319*
X2255020Y1555194*
Y1556319*
X2254747Y1558194*
X2254202Y1559319*
X2253384Y1559694*
X2252838*
X2010475Y1534194D02*
X2011020Y1534569D01*
X2011838Y1535694*
Y1527819*
X2017838Y1535694D02*
X2015111D01*
X2014838Y1532319*
X2015111Y1532694*
X2015929Y1533069*
X2016747*
X2017566Y1532694*
X2018111Y1531944*
X2018384Y1530819*
X2018111Y1530069*
X2017838Y1528944*
X2017293Y1528194*
X2016475Y1527819*
X2015656*
X2014838Y1528194*
X2014566Y1528569*
X2014293Y1529319*
X2021111Y1528569D02*
X2020838Y1528194D01*
X2021111Y1527819*
X2021384Y1528194*
X2021111Y1528569*
X2027656Y1535694D02*
X2024929Y1527819D01*
X2023838Y1535694D02*
X2027656D01*
X2033656D02*
X2030929D01*
X2030656Y1532319*
X2030929Y1532694*
X2031747Y1533069*
X2032566*
X2033384Y1532694*
X2033929Y1531944*
X2034202Y1530819*
X2033929Y1530069*
X2033656Y1528944*
X2033111Y1528194*
X2032293Y1527819*
X2031475*
X2030656Y1528194*
X2030384Y1528569*
X2030111Y1529319*
X2100520Y1533819D02*
Y1534194D01*
X2100793Y1534944*
X2101066Y1535319*
X2101611Y1535694*
X2102702*
X2103247Y1535319*
X2103520Y1534944*
X2103793Y1534194*
Y1533444*
X2103520Y1532694*
X2102975Y1531569*
X2100247Y1527819*
X2104066*
X2110066Y1535694D02*
X2107338D01*
X2107066Y1532319*
X2107338Y1532694*
X2108156Y1533069*
X2108975*
X2109793Y1532694*
X2110338Y1531944*
X2110611Y1530819*
X2110338Y1530069*
X2110066Y1528944*
X2109520Y1528194*
X2108702Y1527819*
X2107884*
X2107066Y1528194*
X2106793Y1528569*
X2106520Y1529319*
X2136475Y1533819D02*
X2148475D01*
X2142475Y1527819D02*
Y1539819D01*
X2145475Y1543119D02*
Y1536819D01*
X2148529Y1543119D02*
Y1536819D01*
X2145475Y1540119D02*
X2148529D01*
X2169111Y1535694D02*
X2171293Y1531944D01*
Y1527819*
X2173475Y1535694D02*
X2171293Y1531944D01*
X2175929Y1535694D02*
Y1527819D01*
Y1535694D02*
X2179475D01*
X2175929Y1531944D02*
X2178111D01*
X2175929Y1527819D02*
X2179475D01*
X2185747Y1534569D02*
X2185202Y1535319D01*
X2184384Y1535694*
X2183293*
X2182475Y1535319*
X2181929Y1534569*
Y1533819*
X2182202Y1533069*
X2182475Y1532694*
X2183020Y1532319*
X2184656Y1531569*
X2185202Y1531194*
X2185475Y1530819*
X2185747Y1530069*
Y1528944*
X2185202Y1528194*
X2184384Y1527819*
X2183293*
X2182475Y1528194*
X2181929Y1528944*
X2222293Y1534569D02*
Y1527819D01*
X2219838Y1531194D02*
X2224747D01*
X2232111Y1537194D02*
X2227202Y1525194D01*
X2234566Y1531194D02*
X2239475D01*
X2243566Y1535694D02*
X2242747Y1535319D01*
X2242202Y1534194*
X2241929Y1532319*
Y1531194*
X2242202Y1529319*
X2242747Y1528194*
X2243566Y1527819*
X2244111*
X2244929Y1528194*
X2245475Y1529319*
X2245747Y1531194*
Y1532319*
X2245475Y1534194*
X2244929Y1535319*
X2244111Y1535694*
X2243566*
X2248475Y1528569D02*
X2248202Y1528194D01*
X2248475Y1527819*
X2248747Y1528194*
X2248475Y1528569*
X2252838Y1535694D02*
X2252020Y1535319D01*
X2251475Y1534194*
X2251202Y1532319*
Y1531194*
X2251475Y1529319*
X2252020Y1528194*
X2252838Y1527819*
X2253384*
X2254202Y1528194*
X2254747Y1529319*
X2255020Y1531194*
Y1532319*
X2254747Y1534194*
X2254202Y1535319*
X2253384Y1535694*
X2252838*
G74*
X0Y0D02*
M02*
