%
T1C.01575F095S3
X-00036Y00725
X0039Y014
X0028Y01687
X-00507Y0216
X00735Y01856
X00668Y01808
X00892Y01181
X00587Y01074
X0068Y00476
X01405Y00422
X00943Y00617
X00944Y00717
X0122Y00896
X01172Y01103
X01161Y0124
X01785Y01589
X01784Y01274
X01562Y01125
X01789Y00975
X0179Y00876
X01763Y00775
X01707Y00723
X01587Y00675
X01606Y00575
X01601Y00375
T2C.01811F095S3
X01525Y010014
X01525Y010486
T3C.035F197S55
X-000487Y009683
X00033Y010197
X-001Y0105
X001147Y01071
X-000153Y011032
X000693Y011564
X-00125Y012
X00154Y012097
X-0004Y012526
X000451Y013053
X001301Y013579
X-003583Y022087
X-005551Y022087
X001963Y011223
T4C.03543F197S55
X00175Y00485
X00175Y0055
X01675Y005
X0174Y005
X01925Y0075
X01925Y00815
X01925Y01025
X01925Y0109
X01925Y01275
X01925Y0134
T5C.03937F197S55
X008469Y023
X0103Y023
T6C.047F139S55
X-005945Y021024
X-003189Y021024
T7C.04921F139S55
X-004764Y006437G85X-004764Y008839
T8C.05118F107S55
X008007Y022016
X010763Y022016
T9C.05512F107S55
X-00378Y006467G85X-00378Y008809
T10C.07874F081S55
X-002205Y007441
X-002205Y009016
X-002205Y010197
X-002205Y014724
X-002205Y016299
X-002205Y01748
X-002205Y011506G85X-002205Y013612
T11C.09055F066S55
X-004764Y017087
T12C.16535F035S1033
X00934Y00215
X002055Y01941
X016615Y019415
T13C.25591F0S0
X009163Y019961G85X009498Y019961
M30
