*
*
G04 PADS 9.3 Build Number: 433611 generated Gerber (RS-274-X) file*
G04 PC Version=2.1*
*
%IN "Circuit_Board.pcb"*%
*
%MOIN*%
*
%FSLAX35Y35*%
*
*
*
*
G04 PC Standard Apertures*
*
*
G04 Thermal Relief Aperture macro.*
%AMTER*
1,1,$1,0,0*
1,0,$1-$2,0,0*
21,0,$3,$4,0,0,45*
21,0,$3,$4,0,0,135*
%
*
*
G04 Annular Aperture macro.*
%AMANN*
1,1,$1,0,0*
1,0,$2,0,0*
%
*
*
G04 Odd Aperture macro.*
%AMODD*
1,1,$1,0,0*
1,0,$1-0.005,0,0*
%
*
*
G04 PC Custom Aperture Macros*
*
*
*
*
*
*
G04 PC Aperture Table*
*
%ADD010C,0.001*%
%ADD011R,0.038X0.03*%
%ADD021R,0.01772X0.05315*%
%ADD022R,0.05906X0.06102*%
%ADD040R,0.036X0.036*%
%ADD041R,0.036X0.05*%
%ADD042O,0.074X0.024*%
%ADD043R,0.01969X0.05512*%
%ADD044R,0.05709X0.01772*%
*
*
*
*
G04 PC Circuitry*
G04 Layer Name Circuit_Board.pcb - circuitry*
%LPD*%
*
*
G04 PC Custom Flashes*
G04 Layer Name Circuit_Board.pcb - flashes*
%LPD*%
*
*
G04 PC Circuitry*
G04 Layer Name Circuit_Board.pcb - circuitry*
%LPD*%
*
G54D10*
G01X1856691Y1703571D02*
Y1542415D01*
X1904172*
X1904193Y1542373D02*
G75*
G03X1904701Y1658608I112614J57627D01*
G01X1904723Y1658650D02*
X1896849D01*
Y1703571*
X1856691*
X1904723Y1652390D02*
G03X1904723I-3937J0D01*
G01Y1640579D02*
G03X1904723I-3937J0D01*
G01Y1624831D02*
G03X1904723I-3937J0D01*
G01X1896849Y1614989D02*
X1904723D01*
Y1573650*
X1896849*
Y1614989*
X1904723Y1567745D02*
G03X1904723I-3937J0D01*
G01Y1551997D02*
G03X1904723I-3937J0D01*
G01X2005392Y1697666D02*
G03X2005392I-2953J0D01*
G01X2027046Y1707508D02*
G03X2027046I-1969J0D01*
G01X2037872Y1499201D02*
G03X2037872I-21653J0D01*
G01X1941515Y1588639D02*
G03X1941515I-1574J0D01*
G01X1915966Y1572915D02*
G03X1915966I-1574J0D01*
G01X1927758Y1591914D02*
G03X1927758I-1575J0D01*
G01X1919241Y1586672D02*
G03X1919241I-1574J0D01*
G01X1924483Y1578156D02*
G03X1924483I-1575J0D01*
G01X1910725Y1581431D02*
G03X1910725I-1575J0D01*
G01X1932999Y1583397D02*
G03X1932999I-1575J0D01*
G01X1936274Y1597155D02*
G03X1936274I-1575J0D01*
G01X2009329Y1707508D02*
G03X2009329I-1968J0D01*
G01X2032951Y1697666D02*
G03X2032951I-2953J0D01*
G01X2024683Y1499201D02*
G03X2024683I-8464J0D01*
G01X2002046Y1668640D02*
Y1686061D01*
X2026455Y1664703D02*
X2005983D01*
X2030392Y1686061D02*
Y1668640D01*
X2005983Y1689998D02*
X2026455D01*
X2002046Y1668640D02*
G03X2005983Y1664703I3937J0D01*
G01X2026455D02*
G03X2030392Y1668640I0J3937D01*
G01Y1686061D02*
G03X2026455Y1689998I-3937J0D01*
G01X2005983D02*
G03X2002046Y1686061I-0J-3937D01*
G01X2002727Y1680684D02*
X2002062Y1680503D01*
X1951848Y1671670D02*
G03X1951848I-8465J0D01*
G01X1965036D02*
G03X1965036I-21653J0D01*
G01X2097519D02*
G03X2097519I-8464J0D01*
G01X2110708D02*
G03X2110708I-21653J0D01*
G01X1880707Y1648453D02*
G03X1880707I-5512J0D01*
G54D11*
G01X2022233Y1527587D03*
X2028433D03*
X1973433Y1545087D03*
X1967233D03*
X2075933Y1525087D03*
X2069733D03*
X2075933Y1515087D03*
X2069733D03*
G54D21*
X1872046Y1698354D03*
X1874605D03*
X1877164D03*
X1879723D03*
X1882282D03*
G54D22*
X1873227Y1687823D03*
X1881101D03*
X1865156D03*
X1889172D03*
G54D40*
X2004083Y1533687D03*
X1996583D03*
G54D41*
X2000333Y1541687D03*
G54D42*
X1980333Y1535087D03*
Y1530087D03*
Y1525087D03*
Y1520087D03*
X1960333D03*
Y1525087D03*
Y1530087D03*
Y1535087D03*
X2057833Y1550087D03*
Y1545087D03*
Y1540087D03*
Y1535087D03*
X2037833D03*
Y1540087D03*
Y1545087D03*
Y1550087D03*
G54D43*
X1975333Y1512587D03*
X1964939D03*
G54D44*
X2056494Y1526426D03*
Y1523867D03*
Y1521307D03*
Y1518748D03*
X2039172D03*
Y1521307D03*
Y1523867D03*
Y1526426D03*
G74*
X0Y0D02*
M02*
