*
*
G04 PADS 9.3 Build Number: 433611 generated Gerber (RS-274-X) file*
G04 PC Version=2.1*
*
%IN "Circuit_Board.pcb"*%
*
%MOIN*%
*
%FSLAX35Y35*%
*
*
*
*
G04 PC Standard Apertures*
*
*
G04 Thermal Relief Aperture macro.*
%AMTER*
1,1,$1,0,0*
1,0,$1-$2,0,0*
21,0,$3,$4,0,0,45*
21,0,$3,$4,0,0,135*
%
*
*
G04 Annular Aperture macro.*
%AMANN*
1,1,$1,0,0*
1,0,$2,0,0*
%
*
*
G04 Odd Aperture macro.*
%AMODD*
1,1,$1,0,0*
1,0,$1-0.005,0,0*
%
*
*
G04 PC Custom Aperture Macros*
*
*
*
*
*
*
G04 PC Aperture Table*
*
%ADD010C,0.001*%
%ADD016C,0.01*%
%ADD051R,0.048X0.04*%
%ADD052R,0.04X0.048*%
%ADD053C,0.06512*%
%ADD054C,0.07*%
%ADD055O,0.07X0.02*%
%ADD056O,0.02X0.07*%
%ADD057C,0.18717*%
%ADD058C,0.06906*%
%ADD059C,0.08087*%
%ADD060R,0.07693X0.04937*%
%ADD061C,0.08874*%
%ADD062O,0.08874X0.29937*%
%ADD063R,0.30528X0.26591*%
%ADD064C,0.12024*%
%ADD065R,0.08087X0.31709*%
%ADD066R,0.08874X0.32496*%
%ADD067C,0.02693*%
%ADD068R,0.1911X0.06512*%
%ADD069R,0.02772X0.06315*%
%ADD070R,0.06906X0.07102*%
%ADD071C,0.03772*%
%ADD072C,0.04543*%
*
*
*
*
G04 PC Circuitry*
G04 Layer Name Circuit_Board.pcb - circuitry*
%LPD*%
*
*
G04 PC Custom Flashes*
G04 Layer Name Circuit_Board.pcb - flashes*
%LPD*%
*
*
G04 PC Circuitry*
G04 Layer Name Circuit_Board.pcb - circuitry*
%LPD*%
*
G54D10*
G01X1856691Y1703571D02*
Y1542415D01*
X1904172*
X1904193Y1542373D02*
G75*
G03X1904701Y1658608I112614J57627D01*
G01X1904723Y1658650D02*
X1896849D01*
Y1703571*
X1856691*
X1904723Y1652390D02*
G03X1904723I-3937J0D01*
G01Y1640579D02*
G03X1904723I-3937J0D01*
G01Y1624831D02*
G03X1904723I-3937J0D01*
G01X1896849Y1614989D02*
X1904723D01*
Y1573650*
X1896849*
Y1614989*
X1904723Y1567745D02*
G03X1904723I-3937J0D01*
G01Y1551997D02*
G03X1904723I-3937J0D01*
G01X2005392Y1697666D02*
G03X2005392I-2953J0D01*
G01X2027046Y1707508D02*
G03X2027046I-1969J0D01*
G01X2037872Y1499201D02*
G03X2037872I-21653J0D01*
G01X1941515Y1588639D02*
G03X1941515I-1574J0D01*
G01X1915966Y1572915D02*
G03X1915966I-1574J0D01*
G01X1927758Y1591914D02*
G03X1927758I-1575J0D01*
G01X1919241Y1586672D02*
G03X1919241I-1574J0D01*
G01X1924483Y1578156D02*
G03X1924483I-1575J0D01*
G01X1910725Y1581431D02*
G03X1910725I-1575J0D01*
G01X1932999Y1583397D02*
G03X1932999I-1575J0D01*
G01X1936274Y1597155D02*
G03X1936274I-1575J0D01*
G01X2009329Y1707508D02*
G03X2009329I-1968J0D01*
G01X2032951Y1697666D02*
G03X2032951I-2953J0D01*
G01X2024683Y1499201D02*
G03X2024683I-8464J0D01*
G01X2002046Y1668640D02*
Y1686061D01*
X2026455Y1664703D02*
X2005983D01*
X2030392Y1686061D02*
Y1668640D01*
X2005983Y1689998D02*
X2026455D01*
X2002046Y1668640D02*
G03X2005983Y1664703I3937J0D01*
G01X2026455D02*
G03X2030392Y1668640I0J3937D01*
G01Y1686061D02*
G03X2026455Y1689998I-3937J0D01*
G01X2005983D02*
G03X2002046Y1686061I-0J-3937D01*
G01X2002727Y1680684D02*
X2002062Y1680503D01*
X1951848Y1671670D02*
G03X1951848I-8465J0D01*
G01X1965036D02*
G03X1965036I-21653J0D01*
G01X2097519D02*
G03X2097519I-8464J0D01*
G01X2110708D02*
G03X2110708I-21653J0D01*
G01X1880707Y1648453D02*
G03X1880707I-5512J0D01*
G54D16*
G01X1911305Y1601717D02*
X1906203Y1598559D01*
X1909361Y1593457*
X1914463Y1596615*
X1911305Y1601717*
X1909281Y1593587D02*
X1909571D01*
X1908662Y1594587D02*
X1911186D01*
X1908043Y1595587D02*
X1912802D01*
X1907424Y1596587D02*
X1914417D01*
X1906805Y1597587D02*
X1913861D01*
X1906249Y1598587D02*
X1913242D01*
X1907864Y1599587D02*
X1912623D01*
X1909480Y1600587D02*
X1912004D01*
X1911095Y1601587D02*
X1911385D01*
X1906203Y1598559D02*
X1906203D01*
X1907203Y1596943D02*
Y1599178D01*
X1908203Y1595328D02*
Y1599797D01*
X1909203Y1593713D02*
Y1600416D01*
X1910203Y1593978D02*
Y1601035D01*
X1911203Y1594597D02*
Y1601654D01*
X1912203Y1595216D02*
Y1600266D01*
X1913203Y1595835D02*
Y1598650D01*
X1914203Y1596455D02*
Y1597035D01*
X1913776Y1586723D02*
X1908697Y1583530D01*
X1911890Y1578451*
X1916969Y1581644*
X1913776Y1586723*
X1911804Y1578587D02*
X1912107D01*
X1911175Y1579587D02*
X1913698D01*
X1910547Y1580587D02*
X1915289D01*
X1909918Y1581587D02*
X1916879D01*
X1909290Y1582587D02*
X1916376D01*
X1908787Y1583587D02*
X1915748D01*
X1910378Y1584587D02*
X1915119D01*
X1911968Y1585587D02*
X1914491D01*
X1913559Y1586587D02*
X1913862D01*
X1908697Y1583530D02*
X1908697D01*
X1909697Y1581940D02*
Y1584159D01*
X1910697Y1580349D02*
Y1584788D01*
X1911697Y1578758D02*
Y1585416D01*
X1912697Y1578958D02*
Y1586045D01*
X1913697Y1579586D02*
Y1586673D01*
X1914697Y1580215D02*
Y1585260D01*
X1915697Y1580844D02*
Y1583669D01*
X1916697Y1581472D02*
Y1582078D01*
X1918910Y1578557D02*
X1913830Y1575364D01*
X1917023Y1570284*
X1922103Y1573477*
X1918910Y1578557*
X1917023Y1570284D02*
X1917023D01*
X1916394Y1571284D02*
X1918614D01*
X1915766Y1572284D02*
X1920205D01*
X1915137Y1573284D02*
X1921796D01*
X1914508Y1574284D02*
X1921595D01*
X1913880Y1575284D02*
X1920967D01*
X1915294Y1576284D02*
X1920338D01*
X1916885Y1577284D02*
X1919710D01*
X1918476Y1578284D02*
X1919081D01*
X1913830Y1575364D02*
X1913830D01*
X1914830Y1573773D02*
Y1575993D01*
X1915830Y1572182D02*
Y1576621D01*
X1916830Y1570591D02*
Y1577250D01*
X1917830Y1570791D02*
Y1577878D01*
X1918830Y1571420D02*
Y1578507D01*
X1919830Y1572049D02*
Y1577093D01*
X1920830Y1572677D02*
Y1575502D01*
X1921830Y1573306D02*
Y1573911D01*
X1927076Y1583690D02*
X1921996Y1580497D01*
X1925189Y1575417*
X1930269Y1578610*
X1927076Y1583690*
X1925189Y1575417D02*
X1925189D01*
X1924561Y1576417D02*
X1926780D01*
X1923932Y1577417D02*
X1928371D01*
X1923303Y1578417D02*
X1929962D01*
X1922675Y1579417D02*
X1929762D01*
X1922046Y1580417D02*
X1929133D01*
X1923460Y1581417D02*
X1928505D01*
X1925051Y1582417D02*
X1927876D01*
X1926642Y1583417D02*
X1927247D01*
X1921996Y1580497D02*
X1921996D01*
X1922996Y1578906D02*
Y1581126D01*
X1923996Y1577315D02*
Y1581754D01*
X1924996Y1575724D02*
Y1582383D01*
X1925996Y1575925D02*
Y1583011D01*
X1926996Y1576553D02*
Y1583640D01*
X1927996Y1577182D02*
Y1582226D01*
X1928996Y1577810D02*
Y1580635D01*
X1929996Y1578439D02*
Y1579044D01*
X1935242Y1588823D02*
X1930163Y1585630D01*
X1933356Y1580550*
X1938435Y1583743*
X1935242Y1588823*
X1933333Y1580587D02*
X1933414D01*
X1932704Y1581587D02*
X1935005D01*
X1932075Y1582587D02*
X1936596D01*
X1931447Y1583587D02*
X1938187D01*
X1930818Y1584587D02*
X1937905D01*
X1930190Y1585587D02*
X1937277D01*
X1931685Y1586587D02*
X1936648D01*
X1933276Y1587587D02*
X1936019D01*
X1934867Y1588587D02*
X1935391D01*
X1930163Y1585630D02*
X1930163D01*
X1931163Y1584039D02*
Y1586259D01*
X1932163Y1582448D02*
Y1586887D01*
X1933163Y1580858D02*
Y1587516D01*
X1934163Y1581058D02*
Y1588145D01*
X1935163Y1581686D02*
Y1588773D01*
X1936163Y1582315D02*
Y1587359D01*
X1937163Y1582943D02*
Y1585768D01*
X1938163Y1583572D02*
Y1584178D01*
X1943409Y1593956D02*
X1938329Y1590763D01*
X1941522Y1585684*
X1946602Y1588877*
X1943409Y1593956*
X1940954Y1586587D02*
X1942959D01*
X1940325Y1587587D02*
X1944550D01*
X1939697Y1588587D02*
X1946141D01*
X1939068Y1589587D02*
X1946155D01*
X1938440Y1590587D02*
X1945527D01*
X1939639Y1591587D02*
X1944898D01*
X1941230Y1592587D02*
X1944269D01*
X1942821Y1593587D02*
X1943641D01*
X1938329Y1590763D02*
X1938329D01*
X1939329Y1589172D02*
Y1591392D01*
X1940329Y1587582D02*
Y1592021D01*
X1941329Y1585991D02*
Y1592649D01*
X1942329Y1586191D02*
Y1593278D01*
X1943329Y1586819D02*
Y1593906D01*
X1944329Y1587448D02*
Y1592492D01*
X1945329Y1588077D02*
Y1590902D01*
X1946329Y1588705D02*
Y1589311D01*
G54D51*
X2075933Y1555087D03*
X2069733D03*
X1973433Y1592587D03*
X1967233D03*
X2017233Y1545087D03*
X2023433D03*
X1973433Y1572587D03*
X1967233D03*
X2034733Y1545087D03*
X2040933D03*
X1973433Y1560087D03*
X1967233D03*
X1973433Y1612587D03*
X1967233D03*
X2069733Y1565087D03*
X2075933D03*
X2087233Y1585087D03*
X2093433D03*
X2087233Y1595087D03*
X2093433D03*
X2110933Y1645087D03*
X2104733D03*
X2059733D03*
X2065933D03*
X2069733Y1515087D03*
X2075933D03*
Y1535087D03*
X2069733D03*
X1955933Y1572587D03*
X1949733D03*
Y1612587D03*
X1955933D03*
X1967233Y1602587D03*
X1973433D03*
X2040933Y1535087D03*
X2034733D03*
X2055933D03*
X2049733D03*
X2075933Y1545087D03*
X2069733D03*
X2087233D03*
X2093433D03*
X2087233Y1555087D03*
X2093433D03*
X2087233Y1565087D03*
X2093433D03*
X2087233Y1575087D03*
X2093433D03*
X2067233Y1590087D03*
X2073433D03*
X2093433Y1605087D03*
X2087233D03*
G54D52*
X1990333Y1705687D03*
Y1699487D03*
X2045333Y1634487D03*
Y1640687D03*
X2017833Y1634487D03*
Y1640687D03*
X2032833Y1658187D03*
Y1651987D03*
X2007833Y1658187D03*
Y1651987D03*
Y1634487D03*
Y1640687D03*
X2032833Y1634487D03*
Y1640687D03*
G54D53*
X2115333Y1552587D03*
Y1559083D03*
Y1580087D03*
Y1586583D03*
Y1605087D03*
Y1611583D03*
X1940333Y1532587D03*
Y1526091D03*
X2090333Y1527587D03*
X2096829D03*
G54D54*
X1918836Y1602851D03*
X1927338Y1608114D03*
X1935841Y1613377D03*
X1921299Y1587909D03*
X1929766Y1593230D03*
X1938232Y1598552D03*
G54D55*
X2050833Y1563947D03*
Y1565917D03*
Y1567887D03*
Y1569857D03*
Y1571827D03*
Y1573797D03*
Y1575767D03*
Y1577737D03*
Y1579707D03*
Y1581677D03*
Y1583647D03*
Y1585617D03*
Y1587587D03*
Y1589557D03*
Y1591527D03*
Y1593497D03*
Y1595467D03*
Y1597437D03*
Y1599407D03*
Y1601377D03*
Y1603347D03*
Y1605317D03*
Y1607287D03*
Y1609257D03*
Y1611227D03*
X1989833D03*
Y1609257D03*
Y1607287D03*
Y1605317D03*
Y1603347D03*
Y1601377D03*
Y1599407D03*
Y1597437D03*
Y1595467D03*
Y1593497D03*
Y1591527D03*
Y1589557D03*
Y1587587D03*
Y1585617D03*
Y1583647D03*
Y1581677D03*
Y1579707D03*
Y1577737D03*
Y1575767D03*
Y1573797D03*
Y1571827D03*
Y1569857D03*
Y1567887D03*
Y1565917D03*
Y1563947D03*
G54D56*
X2043973Y1618087D03*
X2042003D03*
X2040033D03*
X2038063D03*
X2036093D03*
X2034123D03*
X2032153D03*
X2030183D03*
X2028213D03*
X2026243D03*
X2024273D03*
X2022303D03*
X2020333D03*
X2018363D03*
X2016393D03*
X2014423D03*
X2012453D03*
X2010483D03*
X2008513D03*
X2006543D03*
X2004573D03*
X2002603D03*
X2000633D03*
X1998663D03*
X1996693D03*
Y1557087D03*
X1998663D03*
X2000633D03*
X2002603D03*
X2004573D03*
X2006543D03*
X2008513D03*
X2010483D03*
X2012453D03*
X2014423D03*
X2016393D03*
X2018363D03*
X2020333D03*
X2022303D03*
X2024273D03*
X2026243D03*
X2028213D03*
X2030183D03*
X2032153D03*
X2034123D03*
X2036093D03*
X2038063D03*
X2040033D03*
X2042003D03*
X2043973D03*
G54D57*
X2016233Y1499087D03*
X1943383Y1671687D03*
X2088983Y1671737D03*
G54D58*
X2025833Y1707587D03*
X2007526D03*
G54D59*
X2030459Y1697745D03*
X2002900D03*
G54D60*
X1947833Y1636587D03*
X1929723D03*
X1947833Y1625563D03*
X1929723D03*
X1957833Y1625087D03*
X1975943D03*
X1957833Y1636111D03*
X1975943D03*
G54D61*
X1900786Y1652390D03*
Y1640579D03*
Y1567745D03*
Y1624831D03*
Y1551997D03*
Y1579556D03*
G54D62*
Y1603178D03*
G54D63*
X2016140Y1677193D03*
G54D64*
X1875195Y1648453D03*
G54D65*
Y1553965D03*
G54D66*
X1885038D03*
G54D67*
X2075333Y1582449D03*
Y1577725D03*
G54D68*
X2110943Y1630087D03*
X2074723D03*
G54D69*
X1872046Y1698354D03*
X1874605D03*
X1877164D03*
X1879723D03*
X1882282D03*
G54D70*
X1873227Y1687823D03*
X1881101D03*
X1865156D03*
X1889172D03*
G54D71*
X1867321Y1698453D03*
X1887007D03*
G54D72*
X1863384Y1687823D03*
X1890944D03*
G74*
X0Y0D02*
M02*
