*
*
G04 PADS 9.3 Build Number: 433611 generated Gerber (RS-274-X) file*
G04 PC Version=2.1*
*
%IN "Circuit_Board.pcb"*%
*
%MOIN*%
*
%FSLAX35Y35*%
*
*
*
*
G04 PC Standard Apertures*
*
*
G04 Thermal Relief Aperture macro.*
%AMTER*
1,1,$1,0,0*
1,0,$1-$2,0,0*
21,0,$3,$4,0,0,45*
21,0,$3,$4,0,0,135*
%
*
*
G04 Annular Aperture macro.*
%AMANN*
1,1,$1,0,0*
1,0,$2,0,0*
%
*
*
G04 Odd Aperture macro.*
%AMODD*
1,1,$1,0,0*
1,0,$1-0.005,0,0*
%
*
*
G04 PC Custom Aperture Macros*
*
*
*
*
*
*
G04 PC Aperture Table*
*
%ADD010C,0.001*%
%ADD016C,0.01*%
%ADD036C,0.008*%
%ADD048C,0.005*%
%ADD050C,0.007*%
*
*
*
*
G04 PC Circuitry*
G04 Layer Name Circuit_Board.pcb - circuitry*
%LPD*%
*
*
G04 PC Custom Flashes*
G04 Layer Name Circuit_Board.pcb - flashes*
%LPD*%
*
*
G04 PC Circuitry*
G04 Layer Name Circuit_Board.pcb - circuitry*
%LPD*%
*
G54D10*
G01X1856691Y1703571D02*
Y1542415D01*
X1904172*
X1904193Y1542373D02*
G75*
G03X1904701Y1658608I112614J57627D01*
G01X1904723Y1658650D02*
X1896849D01*
Y1703571*
X1856691*
X1904723Y1652390D02*
G03X1904723I-3937J0D01*
G01Y1640579D02*
G03X1904723I-3937J0D01*
G01Y1624831D02*
G03X1904723I-3937J0D01*
G01X1896849Y1614989D02*
X1904723D01*
Y1573650*
X1896849*
Y1614989*
X1904723Y1567745D02*
G03X1904723I-3937J0D01*
G01Y1551997D02*
G03X1904723I-3937J0D01*
G01X2005392Y1697666D02*
G03X2005392I-2953J0D01*
G01X2027046Y1707508D02*
G03X2027046I-1969J0D01*
G01X2037872Y1499201D02*
G03X2037872I-21653J0D01*
G01X1941515Y1588639D02*
G03X1941515I-1574J0D01*
G01X1915966Y1572915D02*
G03X1915966I-1574J0D01*
G01X1927758Y1591914D02*
G03X1927758I-1575J0D01*
G01X1919241Y1586672D02*
G03X1919241I-1574J0D01*
G01X1924483Y1578156D02*
G03X1924483I-1575J0D01*
G01X1910725Y1581431D02*
G03X1910725I-1575J0D01*
G01X1932999Y1583397D02*
G03X1932999I-1575J0D01*
G01X1936274Y1597155D02*
G03X1936274I-1575J0D01*
G01X2009329Y1707508D02*
G03X2009329I-1968J0D01*
G01X2032951Y1697666D02*
G03X2032951I-2953J0D01*
G01X2024683Y1499201D02*
G03X2024683I-8464J0D01*
G01X2002046Y1668640D02*
Y1686061D01*
X2026455Y1664703D02*
X2005983D01*
X2030392Y1686061D02*
Y1668640D01*
X2005983Y1689998D02*
X2026455D01*
X2002046Y1668640D02*
G03X2005983Y1664703I3937J0D01*
G01X2026455D02*
G03X2030392Y1668640I0J3937D01*
G01Y1686061D02*
G03X2026455Y1689998I-3937J0D01*
G01X2005983D02*
G03X2002046Y1686061I-0J-3937D01*
G01X2002727Y1680684D02*
X2002062Y1680503D01*
X1951848Y1671670D02*
G03X1951848I-8465J0D01*
G01X1965036D02*
G03X1965036I-21653J0D01*
G01X2097519D02*
G03X2097519I-8464J0D01*
G01X2110708D02*
G03X2110708I-21653J0D01*
G01X1880707Y1648453D02*
G03X1880707I-5512J0D01*
G54D16*
G01X2024133Y1524087D02*
X2018333D01*
Y1531087*
X2024133*
X2026533Y1524087D02*
X2032333D01*
Y1531087*
X2026533*
X1908713Y1590704D02*
X1942724Y1611758D01*
X1937461Y1620261*
X1903450Y1599207*
X1908713Y1590704*
X1916582Y1567227D02*
X1950448Y1588513D01*
X1939805Y1605446*
X1905939Y1584159*
X1916582Y1567227*
X1971533Y1548587D02*
X1977333D01*
Y1541587*
X1971533*
X1969133Y1548587D02*
X1963333D01*
Y1541587*
X1969133*
X2003333D02*
X2005833D01*
Y1536587*
X1997333Y1541587D02*
X1994833D01*
Y1536587*
X2000833Y1532587D02*
X1999833D01*
X2074033Y1528587D02*
X2079833D01*
Y1521587*
X2074033*
X2071633Y1528587D02*
X2065833D01*
Y1521587*
X2071633*
X2074033Y1518587D02*
X2079833D01*
Y1511587*
X2074033*
X2071633Y1518587D02*
X2065833D01*
Y1511587*
X2071633*
X2011724Y1528987D02*
X2011951Y1529612D01*
X2012406Y1530237*
X2012860Y1530550*
X2013769*
X2014224Y1530237*
X2014678Y1529612*
X2014906Y1528987*
X2015133Y1528050*
Y1526487*
X2014906Y1525550*
X2014678Y1524925*
X2014224Y1524300*
X2013769Y1523987*
X2012860*
X2012406Y1524300*
X2011951Y1524925*
X2011724Y1525550*
X2009678Y1529300D02*
X2009224Y1529612D01*
X2008542Y1530550*
Y1523987*
X2003769Y1529612D02*
X2003997Y1530237D01*
X2004678Y1530550*
X2005133*
X2005815Y1530237*
X2006269Y1529300*
X2006497Y1527737*
Y1526175*
X2006269Y1524925*
X2005815Y1524300*
X2005133Y1523987*
X2004906*
X2004224Y1524300*
X2003769Y1524925*
X2003542Y1525862*
Y1526175*
X2003769Y1527112*
X2004224Y1527737*
X2004906Y1528050*
X2005133*
X2005815Y1527737*
X2006269Y1527112*
X2006497Y1526175*
X2095406Y1601237D02*
Y1594675D01*
Y1601237D02*
X2093360D01*
X2092678Y1600925*
X2092451Y1600612*
X2092224Y1599987*
Y1599362*
X2092451Y1598737*
X2092678Y1598425*
X2093360Y1598112*
X2095406*
X2093815D02*
X2092224Y1594675D01*
X2090178Y1597175D02*
X2087451D01*
Y1597800*
X2087678Y1598425*
X2087906Y1598737*
X2088360Y1599050*
X2089042*
X2089497Y1598737*
X2089951Y1598112*
X2090178Y1597175*
Y1596550*
X2089951Y1595612*
X2089497Y1594987*
X2089042Y1594675*
X2088360*
X2087906Y1594987*
X2087451Y1595612*
X2083588Y1601237D02*
X2084042D01*
X2084497Y1600925*
X2084724Y1599987*
Y1594675*
X2085406Y1599050D02*
X2083815D01*
X2081315Y1595300D02*
X2081542Y1594987D01*
X2081315Y1594675*
X2081088Y1594987*
X2081315Y1595300*
X2079042Y1601237D02*
Y1594675D01*
Y1601237D02*
X2077451D01*
X2076769Y1600925*
X2076315Y1600300*
X2076088Y1599675*
X2075860Y1598737*
Y1597175*
X2076088Y1596237*
X2076315Y1595612*
X2076769Y1594987*
X2077451Y1594675*
X2079042*
X2073815Y1597175D02*
X2071088D01*
Y1597800*
X2071315Y1598425*
X2071542Y1598737*
X2071997Y1599050*
X2072678*
X2073133Y1598737*
X2073588Y1598112*
X2073815Y1597175*
Y1596550*
X2073588Y1595612*
X2073133Y1594987*
X2072678Y1594675*
X2071997*
X2071542Y1594987*
X2071088Y1595612*
X2066542Y1598112D02*
X2066769Y1598737D01*
X2067451Y1599050*
X2068133*
X2068815Y1598737*
X2069042Y1598112*
X2068815Y1597487*
X2068360Y1597175*
X2067224Y1596862*
X2066769Y1596550*
X2066542Y1595925*
Y1595612*
X2066769Y1594987*
X2067451Y1594675*
X2068133*
X2068815Y1594987*
X2069042Y1595612*
X2064269Y1595300D02*
X2064497Y1594987D01*
X2064269Y1594675*
X2064042Y1594987*
X2064269Y1595300*
X2061997Y1598425D02*
X2057906D01*
X2061997Y1596550D02*
X2057906D01*
X2054497Y1601237D02*
X2054951Y1600925D01*
X2055406Y1600300*
X2055633Y1599675*
X2055860Y1598737*
Y1597175*
X2055633Y1596237*
X2055406Y1595612*
X2054951Y1594987*
X2054497Y1594675*
X2053588*
X2053133Y1594987*
X2052678Y1595612*
X2052451Y1596237*
X2052224Y1597175*
Y1598737*
X2052451Y1599675*
X2052678Y1600300*
X2053133Y1600925*
X2053588Y1601237*
X2054497*
X2053815Y1595925D02*
X2052451Y1594050D01*
X2050178Y1599987D02*
X2049724Y1600300D01*
X2049042Y1601237*
Y1594675*
X2098460Y1563050D02*
Y1558050D01*
X2098688Y1557112*
X2098915Y1556800*
X2099369Y1556487*
X2099824*
X2100278Y1556800*
X2100506Y1557112*
X2100733Y1558050*
Y1558675*
X2096415Y1561800D02*
X2095960Y1562112D01*
X2095278Y1563050*
Y1556487*
X2099460Y1585450D02*
Y1580450D01*
X2099688Y1579512*
X2099915Y1579200*
X2100369Y1578887*
X2100824*
X2101278Y1579200*
X2101506Y1579512*
X2101733Y1580450*
Y1581075*
X2097188Y1583887D02*
Y1584200D01*
X2096960Y1584825*
X2096733Y1585137*
X2096278Y1585450*
X2095369*
X2094915Y1585137*
X2094688Y1584825*
X2094460Y1584200*
Y1583575*
X2094688Y1582950*
X2095142Y1582012*
X2097415Y1578887*
X2094233*
X2096160Y1614550D02*
Y1609550D01*
X2096388Y1608612*
X2096615Y1608300*
X2097069Y1607987*
X2097524*
X2097978Y1608300*
X2098206Y1608612*
X2098433Y1609550*
Y1610175*
X2093660Y1614550D02*
X2091160D01*
X2092524Y1612050*
X2091842*
X2091388Y1611737*
X2091160Y1611425*
X2090933Y1610487*
Y1609862*
X2091160Y1608925*
X2091615Y1608300*
X2092297Y1607987*
X2092978*
X2093660Y1608300*
X2093888Y1608612*
X2094115Y1609237*
X1949560Y1620350D02*
Y1615350D01*
X1949788Y1614412*
X1950015Y1614100*
X1950469Y1613787*
X1950924*
X1951378Y1614100*
X1951606Y1614412*
X1951833Y1615350*
Y1615975*
X1944560Y1620350D02*
X1946833D01*
X1947060Y1617537*
X1946833Y1617850*
X1946151Y1618162*
X1945469*
X1944788Y1617850*
X1944333Y1617225*
X1944106Y1616287*
X1944333Y1615662*
X1944560Y1614725*
X1945015Y1614100*
X1945697Y1613787*
X1946378*
X1947060Y1614100*
X1947288Y1614412*
X1947515Y1615037*
X1949160Y1582550D02*
Y1577550D01*
X1949388Y1576612*
X1949615Y1576300*
X1950069Y1575987*
X1950524*
X1950978Y1576300*
X1951206Y1576612*
X1951433Y1577550*
Y1578175*
X1944842Y1582550D02*
X1947115Y1578175D01*
X1943706*
X1944842Y1582550D02*
Y1575987D01*
X1976933Y1561050D02*
Y1554487D01*
Y1561050D02*
X1974888D01*
X1974206Y1560737*
X1973978Y1560425*
X1973751Y1559800*
Y1559175*
X1973978Y1558550*
X1974206Y1558237*
X1974888Y1557925*
X1976933*
X1975342D02*
X1973751Y1554487D01*
X1971706Y1559800D02*
X1971251Y1560112D01*
X1970569Y1561050*
Y1554487*
X1965797Y1560112D02*
X1966024Y1560737D01*
X1966706Y1561050*
X1967160*
X1967842Y1560737*
X1968297Y1559800*
X1968524Y1558237*
Y1556675*
X1968297Y1555425*
X1967842Y1554800*
X1967160Y1554487*
X1966933*
X1966251Y1554800*
X1965797Y1555425*
X1965569Y1556362*
Y1556675*
X1965797Y1557612*
X1966251Y1558237*
X1966933Y1558550*
X1967160*
X1967842Y1558237*
X1968297Y1557612*
X1968524Y1556675*
X2002069Y1557050D02*
X2002524Y1556737D01*
X2002978Y1556112*
X2003206Y1555487*
X2003433Y1554550*
Y1552987*
X2003206Y1552050*
X2002978Y1551425*
X2002524Y1550800*
X2002069Y1550487*
X2001160*
X2000706Y1550800*
X2000251Y1551425*
X2000024Y1552050*
X1999797Y1552987*
Y1554550*
X2000024Y1555487*
X2000251Y1556112*
X2000706Y1556737*
X2001160Y1557050*
X2002069*
X2001388Y1551737D02*
X2000024Y1549862D01*
X1997297Y1557050D02*
X1994797D01*
X1996160Y1554550*
X1995478*
X1995024Y1554237*
X1994797Y1553925*
X1994569Y1552987*
Y1552362*
X1994797Y1551425*
X1995251Y1550800*
X1995933Y1550487*
X1996615*
X1997297Y1550800*
X1997524Y1551112*
X1997751Y1551737*
X1988533Y1547250D02*
Y1542562D01*
X1988306Y1541625*
X1987851Y1541000*
X1987169Y1540687*
X1986715*
X1986033Y1541000*
X1985578Y1541625*
X1985351Y1542562*
Y1547250*
X1980124D02*
X1982397Y1540687D01*
X1983306Y1547250D02*
X1980124D01*
X1986733Y1507950D02*
Y1501387D01*
Y1507950D02*
X1985142D01*
X1984460Y1507637*
X1984006Y1507012*
X1983778Y1506387*
X1983551Y1505450*
Y1503887*
X1983778Y1502950*
X1984006Y1502325*
X1984460Y1501700*
X1985142Y1501387*
X1986733*
X1979233Y1507950D02*
X1981506Y1503575D01*
X1978097*
X1979233Y1507950D02*
Y1501387D01*
X1945160Y1551950D02*
Y1546950D01*
X1945388Y1546012*
X1945615Y1545700*
X1946069Y1545387*
X1946524*
X1946978Y1545700*
X1947206Y1546012*
X1947433Y1546950*
Y1547575*
X1940388Y1551012D02*
X1940615Y1551637D01*
X1941297Y1551950*
X1941751*
X1942433Y1551637*
X1942888Y1550700*
X1943115Y1549137*
Y1547575*
X1942888Y1546325*
X1942433Y1545700*
X1941751Y1545387*
X1941524*
X1940842Y1545700*
X1940388Y1546325*
X1940160Y1547262*
Y1547575*
X1940388Y1548512*
X1940842Y1549137*
X1941524Y1549450*
X1941751*
X1942433Y1549137*
X1942888Y1548512*
X1943115Y1547575*
X2094660Y1547950D02*
Y1542950D01*
X2094888Y1542012*
X2095115Y1541700*
X2095569Y1541387*
X2096024*
X2096478Y1541700*
X2096706Y1542012*
X2096933Y1542950*
Y1543575*
X2089433Y1547950D02*
X2091706Y1541387D01*
X2092615Y1547950D02*
X2089433D01*
X2056233Y1565450D02*
Y1560762D01*
X2056006Y1559825*
X2055551Y1559200*
X2054869Y1558887*
X2054415*
X2053733Y1559200*
X2053278Y1559825*
X2053051Y1560762*
Y1565450*
X2048278Y1564512D02*
X2048506Y1565137D01*
X2049188Y1565450*
X2049642*
X2050324Y1565137*
X2050778Y1564200*
X2051006Y1562637*
Y1561075*
X2050778Y1559825*
X2050324Y1559200*
X2049642Y1558887*
X2049415*
X2048733Y1559200*
X2048278Y1559825*
X2048051Y1560762*
Y1561075*
X2048278Y1562012*
X2048733Y1562637*
X2049415Y1562950*
X2049642*
X2050324Y1562637*
X2050778Y1562012*
X2051006Y1561075*
X2087533Y1512350D02*
Y1505787D01*
Y1512350D02*
X2085488D01*
X2084806Y1512037*
X2084578Y1511725*
X2084351Y1511100*
Y1510475*
X2084578Y1509850*
X2084806Y1509537*
X2085488Y1509225*
X2087533*
X2085942D02*
X2084351Y1505787D01*
X2082306Y1508287D02*
X2079578D01*
Y1508912*
X2079806Y1509537*
X2080033Y1509850*
X2080488Y1510162*
X2081169*
X2081624Y1509850*
X2082078Y1509225*
X2082306Y1508287*
Y1507662*
X2082078Y1506725*
X2081624Y1506100*
X2081169Y1505787*
X2080488*
X2080033Y1506100*
X2079578Y1506725*
X2075715Y1512350D02*
X2076169D01*
X2076624Y1512037*
X2076851Y1511100*
Y1505787*
X2077533Y1510162D02*
X2075942D01*
X2073442Y1506412D02*
X2073669Y1506100D01*
X2073442Y1505787*
X2073215Y1506100*
X2073442Y1506412*
X2071169Y1512350D02*
Y1505787D01*
Y1512350D02*
X2069578D01*
X2068897Y1512037*
X2068442Y1511412*
X2068215Y1510787*
X2067988Y1509850*
Y1508287*
X2068215Y1507350*
X2068442Y1506725*
X2068897Y1506100*
X2069578Y1505787*
X2071169*
X2065942Y1508287D02*
X2063215D01*
Y1508912*
X2063442Y1509537*
X2063669Y1509850*
X2064124Y1510162*
X2064806*
X2065260Y1509850*
X2065715Y1509225*
X2065942Y1508287*
Y1507662*
X2065715Y1506725*
X2065260Y1506100*
X2064806Y1505787*
X2064124*
X2063669Y1506100*
X2063215Y1506725*
X2058669Y1509225D02*
X2058897Y1509850D01*
X2059578Y1510162*
X2060260*
X2060942Y1509850*
X2061169Y1509225*
X2060942Y1508600*
X2060488Y1508287*
X2059351Y1507975*
X2058897Y1507662*
X2058669Y1507037*
Y1506725*
X2058897Y1506100*
X2059578Y1505787*
X2060260*
X2060942Y1506100*
X2061169Y1506725*
X2056397Y1506412D02*
X2056624Y1506100D01*
X2056397Y1505787*
X2056169Y1506100*
X2056397Y1506412*
X2054124Y1509537D02*
X2050033D01*
X2054124Y1507662D02*
X2050033D01*
X2047988Y1512350D02*
Y1507662D01*
X2047760Y1506725*
X2047306Y1506100*
X2046624Y1505787*
X2046169*
X2045488Y1506100*
X2045033Y1506725*
X2044806Y1507662*
Y1512350*
X2042533Y1510787D02*
Y1511100D01*
X2042306Y1511725*
X2042078Y1512037*
X2041624Y1512350*
X2040715*
X2040260Y1512037*
X2040033Y1511725*
X2039806Y1511100*
Y1510475*
X2040033Y1509850*
X2040488Y1508912*
X2042760Y1505787*
X2039578*
X2079133Y1539250D02*
Y1532687D01*
Y1539250D02*
X2077088D01*
X2076406Y1538937*
X2076178Y1538625*
X2075951Y1538000*
Y1537375*
X2076178Y1536750*
X2076406Y1536437*
X2077088Y1536125*
X2079133*
X2077542D02*
X2075951Y1532687D01*
X2073906Y1538000D02*
X2073451Y1538312D01*
X2072769Y1539250*
Y1532687*
X2067542Y1539250D02*
X2069815Y1532687D01*
X2070724Y1539250D02*
X2067542D01*
X2067833Y1503550D02*
Y1496987D01*
Y1503550D02*
X2065788D01*
X2065106Y1503237*
X2064878Y1502925*
X2064651Y1502300*
Y1501675*
X2064878Y1501050*
X2065106Y1500737*
X2065788Y1500425*
X2067833*
X2066242D02*
X2064651Y1496987D01*
X2062606Y1502300D02*
X2062151Y1502612D01*
X2061469Y1503550*
Y1496987*
X2058288Y1503550D02*
X2058969Y1503237D01*
X2059197Y1502612*
Y1501987*
X2058969Y1501362*
X2058515Y1501050*
X2057606Y1500737*
X2056924Y1500425*
X2056469Y1499800*
X2056242Y1499175*
Y1498237*
X2056469Y1497612*
X2056697Y1497300*
X2057378Y1496987*
X2058288*
X2058969Y1497300*
X2059197Y1497612*
X2059424Y1498237*
Y1499175*
X2059197Y1499800*
X2058742Y1500425*
X2058060Y1500737*
X2057151Y1501050*
X2056697Y1501362*
X2056469Y1501987*
Y1502612*
X2056697Y1503237*
X2057378Y1503550*
X2058288*
G54D36*
X2052361Y1516681D02*
X2043305D01*
Y1528493*
X2052361*
Y1516681*
G54D48*
X2077223Y1576347D02*
G03Y1583827I-1989J3740D01*
G01X2073443D02*
G03Y1576347I1989J-3740D01*
G54D50*
G01X1975833Y1537087D02*
Y1518087D01*
X1964833*
Y1537087*
X1975833*
X2053333Y1552087D02*
Y1533087D01*
X2042333*
Y1552087*
X2053333*
G74*
X0Y0D02*
M02*
