*
*
G04 PADS 9.3 Build Number: 433611 generated Gerber (RS-274-X) file*
G04 PC Version=2.1*
*
%IN "Circuit_Board.pcb"*%
*
%MOIN*%
*
%FSLAX35Y35*%
*
*
*
*
G04 PC Standard Apertures*
*
*
G04 Thermal Relief Aperture macro.*
%AMTER*
1,1,$1,0,0*
1,0,$1-$2,0,0*
21,0,$3,$4,0,0,45*
21,0,$3,$4,0,0,135*
%
*
*
G04 Annular Aperture macro.*
%AMANN*
1,1,$1,0,0*
1,0,$2,0,0*
%
*
*
G04 Odd Aperture macro.*
%AMODD*
1,1,$1,0,0*
1,0,$1-0.005,0,0*
%
*
*
G04 PC Custom Aperture Macros*
*
*
*
*
*
*
G04 PC Aperture Table*
*
%ADD010C,0.001*%
%ADD016C,0.01*%
%ADD047C,0.00787*%
%ADD048C,0.005*%
%ADD049C,0.00501*%
*
*
*
*
G04 PC Circuitry*
G04 Layer Name Circuit_Board.pcb - circuitry*
%LPD*%
*
*
G04 PC Custom Flashes*
G04 Layer Name Circuit_Board.pcb - flashes*
%LPD*%
*
*
G04 PC Circuitry*
G04 Layer Name Circuit_Board.pcb - circuitry*
%LPD*%
*
G54D10*
G01X1856890Y1703571D02*
Y1542415D01*
X1904370*
X1904392Y1542373D02*
G75*
G03X1904899Y1658608I112613J57627D01*
G01X1904921Y1658650D02*
X1897047D01*
Y1703571*
X1856890*
X1904921Y1652390D02*
G03X1904921I-3937J0D01*
G01Y1640579D02*
G03X1904921I-3937J0D01*
G01Y1624831D02*
G03X1904921I-3937J0D01*
G01X1897047Y1614989D02*
X1904921D01*
Y1573650*
X1897047*
Y1614989*
X1904921Y1567745D02*
G03X1904921I-3937J0D01*
G01Y1551997D02*
G03X1904921I-3937J0D01*
G01X2005590Y1697666D02*
G03X2005590I-2952J0D01*
G01X2027244Y1707508D02*
G03X2027244I-1969J0D01*
G01X2038071Y1499201D02*
G03X2038071I-21654J0D01*
G01X1941714Y1588639D02*
G03X1941714I-1575J0D01*
G01X1916165Y1572915D02*
G03X1916165I-1575J0D01*
G01X1927956Y1591914D02*
G03X1927956I-1575J0D01*
G01X1919440Y1586672D02*
G03X1919440I-1575J0D01*
G01X1924681Y1578156D02*
G03X1924681I-1575J0D01*
G01X1910923Y1581431D02*
G03X1910923I-1575J0D01*
G01X1933197Y1583397D02*
G03X1933197I-1574J0D01*
G01X1936472Y1597155D02*
G03X1936472I-1574J0D01*
G01X2009527Y1707508D02*
G03X2009527I-1968J0D01*
G01X2033149Y1697666D02*
G03X2033149I-2952J0D01*
G01X2024882Y1499201D02*
G03X2024882I-8465J0D01*
G01X2002244Y1668640D02*
Y1686061D01*
X2026653Y1664703D02*
X2006181D01*
X2030590Y1686061D02*
Y1668640D01*
X2006181Y1689998D02*
X2026653D01*
X2002244Y1668640D02*
G03X2006181Y1664703I3937J0D01*
G01X2026653D02*
G03X2030590Y1668640I0J3937D01*
G01Y1686061D02*
G03X2026653Y1689998I-3937J0D01*
G01X2006181D02*
G03X2002244Y1686061I-0J-3937D01*
G01X2002926Y1680684D02*
X2002260Y1680503D01*
X1952046Y1671670D02*
G03X1952046I-8465J0D01*
G01X1965235D02*
G03X1965235I-21654J0D01*
G01X2097718D02*
G03X2097718I-8465J0D01*
G01X2110907D02*
G03X2110907I-21654J0D01*
G01X1880905Y1648453D02*
G03X1880905I-5511J0D01*
G54D16*
G01X2074231Y1551587D02*
X2080031D01*
Y1558587*
X2074231*
X2071831Y1551587D02*
X2066031D01*
Y1558587*
X2071831*
X1971731Y1589087D02*
X1977531D01*
Y1596087*
X1971731*
X1969331Y1589087D02*
X1963531D01*
Y1596087*
X1969331*
X2019331Y1548587D02*
X2013531D01*
Y1541587*
X2019331*
X2021731Y1548587D02*
X2027531D01*
Y1541587*
X2021731*
X1971731Y1569087D02*
X1977531D01*
Y1576087*
X1971731*
X1969331Y1569087D02*
X1963531D01*
Y1576087*
X1969331*
X2036831Y1548587D02*
X2031031D01*
Y1541587*
X2036831*
X2039231Y1548587D02*
X2045031D01*
Y1541587*
X2039231*
X1971731Y1556587D02*
X1977531D01*
Y1563587*
X1971731*
X1969331Y1556587D02*
X1963531D01*
Y1563587*
X1969331*
X1971731Y1609087D02*
X1977531D01*
Y1616087*
X1971731*
X1969331Y1609087D02*
X1963531D01*
Y1616087*
X1969331*
X2071831Y1568587D02*
X2066031D01*
Y1561587*
X2071831*
X2074231Y1568587D02*
X2080031D01*
Y1561587*
X2074231*
X2089331Y1588587D02*
X2083531D01*
Y1581587*
X2089331*
X2091731Y1588587D02*
X2097531D01*
Y1581587*
X2091731*
X2089331Y1598587D02*
X2083531D01*
Y1591587*
X2089331*
X2091731Y1598587D02*
X2097531D01*
Y1591587*
X2091731*
X1994031Y1703787D02*
Y1709587D01*
X1987031*
Y1703787*
X1994031Y1701387D02*
Y1695587D01*
X1987031*
Y1701387*
X2109231Y1641587D02*
X2115031D01*
Y1648587*
X2109231*
X2106831Y1641587D02*
X2101031D01*
Y1648587*
X2106831*
X2061831D02*
X2056031D01*
Y1641587*
X2061831*
X2064231Y1648587D02*
X2070031D01*
Y1641587*
X2064231*
X2042031Y1636387D02*
Y1630587D01*
X2049031*
Y1636387*
X2042031Y1638787D02*
Y1644587D01*
X2049031*
Y1638787*
X2014531Y1636387D02*
Y1630587D01*
X2021531*
Y1636387*
X2014531Y1638787D02*
Y1644587D01*
X2021531*
Y1638787*
X2036531Y1656287D02*
Y1662087D01*
X2029531*
Y1656287*
X2036531Y1653887D02*
Y1648087D01*
X2029531*
Y1653887*
X2011531Y1656287D02*
Y1662087D01*
X2004531*
Y1656287*
X2011531Y1653887D02*
Y1648087D01*
X2004531*
Y1653887*
X2071831Y1518587D02*
X2066031D01*
Y1511587*
X2071831*
X2074231Y1518587D02*
X2080031D01*
Y1511587*
X2074231*
X2046531Y1555587D02*
X2048531D01*
X2052531Y1559587*
Y1561587*
Y1613587D02*
Y1619587D01*
X2046531*
X1994531D02*
X1988531D01*
Y1613587*
Y1561587D02*
Y1555587D01*
X1994531*
X2074231Y1531587D02*
X2080031D01*
Y1538587*
X2074231*
X2071831Y1531587D02*
X2066031D01*
Y1538587*
X2071831*
X2004531Y1636387D02*
Y1630587D01*
X2011531*
Y1636387*
X2004531Y1638787D02*
Y1644587D01*
X2011531*
Y1638787*
X1954231Y1569087D02*
X1960031D01*
Y1576087*
X1954231*
X1951831Y1569087D02*
X1946031D01*
Y1576087*
X1951831*
Y1616087D02*
X1946031D01*
Y1609087*
X1951831*
X1954231Y1616087D02*
X1960031D01*
Y1609087*
X1954231*
X1969331Y1606087D02*
X1963531D01*
Y1599087*
X1969331*
X1971731Y1606087D02*
X1977531D01*
Y1599087*
X1971731*
X2039231Y1531587D02*
X2045031D01*
Y1538587*
X2039231*
X2036831Y1531587D02*
X2031031D01*
Y1538587*
X2036831*
X2054231Y1531587D02*
X2060031D01*
Y1538587*
X2054231*
X2051831Y1531587D02*
X2046031D01*
Y1538587*
X2051831*
X2074231Y1541587D02*
X2080031D01*
Y1548587*
X2074231*
X2071831Y1541587D02*
X2066031D01*
Y1548587*
X2071831*
X2089331D02*
X2083531D01*
Y1541587*
X2089331*
X2091731Y1548587D02*
X2097531D01*
Y1541587*
X2091731*
X2089331Y1558587D02*
X2083531D01*
Y1551587*
X2089331*
X2091731Y1558587D02*
X2097531D01*
Y1551587*
X2091731*
X2089331Y1568587D02*
X2083531D01*
Y1561587*
X2089331*
X2091731Y1568587D02*
X2097531D01*
Y1561587*
X2091731*
X2089331Y1578587D02*
X2083531D01*
Y1571587*
X2089331*
X2091731Y1578587D02*
X2097531D01*
Y1571587*
X2091731*
X2069331Y1593587D02*
X2063531D01*
Y1586587*
X2069331*
X2071731Y1593587D02*
X2077531D01*
Y1586587*
X2071731*
X2091731Y1601587D02*
X2097531D01*
Y1608587*
X2091731*
X2089331Y1601587D02*
X2083531D01*
Y1608587*
X2089331*
X2029531Y1636387D02*
Y1630587D01*
X2036531*
Y1636387*
X2029531Y1638787D02*
Y1644587D01*
X2036531*
Y1638787*
X2061440Y1561587D02*
X2061213Y1562212D01*
X2060759Y1562837*
X2060304Y1563150*
X2059395*
X2058940Y1562837*
X2058486Y1562212*
X2058259Y1561587*
X2058031Y1560650*
Y1559087*
X2058259Y1558150*
X2058486Y1557525*
X2058940Y1556900*
X2059395Y1556587*
X2060304*
X2060759Y1556900*
X2061213Y1557525*
X2061440Y1558150*
X2063486Y1561900D02*
X2063940Y1562212D01*
X2064622Y1563150*
Y1556587*
X1953240Y1592787D02*
X1953013Y1593412D01*
X1952559Y1594037*
X1952104Y1594350*
X1951195*
X1950740Y1594037*
X1950286Y1593412*
X1950059Y1592787*
X1949831Y1591850*
Y1590287*
X1950059Y1589350*
X1950286Y1588725*
X1950740Y1588100*
X1951195Y1587787*
X1952104*
X1952559Y1588100*
X1953013Y1588725*
X1953240Y1589350*
X1955286Y1593100D02*
X1955740Y1593412D01*
X1956422Y1594350*
Y1587787*
X1959831Y1594350D02*
X1959149Y1594037D01*
X1959149D02*
X1958695Y1593100D01*
X1958468Y1591537*
Y1590600*
X1958695Y1589037*
X1959149Y1588100*
X1959149D02*
X1959831Y1587787D01*
X1960286*
X1960968Y1588100*
X1961422Y1589037*
X1961649Y1590600*
X1961649D02*
Y1591537D01*
X1961649D02*
X1961422Y1593100D01*
X1960968Y1594037*
X1960286Y1594350*
X1959831*
X2006940Y1537187D02*
X2006713Y1537812D01*
X2006259Y1538437*
X2005804Y1538750*
X2004895*
X2004440Y1538437*
X2003986Y1537812*
X2003759Y1537187*
X2003531Y1536250*
Y1534687*
X2003759Y1533750*
X2003986Y1533125*
X2004440Y1532500*
X2004895Y1532187*
X2005804*
X2006259Y1532500*
X2006713Y1533125*
X2006940Y1533750*
X2008986Y1537500D02*
X2009440Y1537812D01*
X2010122Y1538750*
Y1532187*
X2012168Y1537500D02*
X2012622Y1537812D01*
X2013304Y1538750*
Y1532187*
X1967940Y1583587D02*
X1967713Y1584212D01*
X1967259Y1584837*
X1966804Y1585150*
X1965895*
X1965440Y1584837*
X1964986Y1584212*
X1964759Y1583587*
X1964531Y1582650*
Y1581087*
X1964759Y1580150*
X1964986Y1579525*
X1965440Y1578900*
X1965895Y1578587*
X1966804*
X1967259Y1578900*
X1967713Y1579525*
X1967940Y1580150*
X1969986Y1583900D02*
X1970440Y1584212D01*
X1971122Y1585150*
Y1578587*
X1973395Y1583587D02*
Y1583900D01*
X1973622Y1584525*
X1973849Y1584837*
X1973849D02*
X1974304Y1585150D01*
X1975213*
X1975668Y1584837*
X1975895Y1584525*
X1976122Y1583900*
Y1583275*
X1975895Y1582650*
X1975440Y1581712*
X1973168Y1578587*
X1976349*
X2047340Y1552387D02*
X2047113Y1553012D01*
X2046659Y1553637*
X2046204Y1553950*
X2045295*
X2044840Y1553637*
X2044386Y1553012*
X2044159Y1552387*
X2043931Y1551450*
Y1549887*
X2044159Y1548950*
X2044386Y1548325*
X2044840Y1547700*
X2045295Y1547387*
X2046204*
X2046659Y1547700*
X2047113Y1548325*
X2047340Y1548950*
X2049386Y1552700D02*
X2049840Y1553012D01*
X2050522Y1553950*
Y1547387*
X2053022Y1553950D02*
X2055522D01*
X2054159Y1551450*
X2054840*
X2055295Y1551137*
X2055522Y1550825*
X2055749Y1549887*
X2055749D02*
Y1549262D01*
X2055749D02*
X2055522Y1548325D01*
X2055068Y1547700*
X2054386Y1547387*
X2053704*
X2053022Y1547700*
X2052795Y1548012*
X2052568Y1548637*
X1972540Y1551987D02*
X1972313Y1552612D01*
X1971859Y1553237*
X1971404Y1553550*
X1970495*
X1970040Y1553237*
X1969586Y1552612*
X1969359Y1551987*
X1969131Y1551050*
Y1549487*
X1969359Y1548550*
X1969586Y1547925*
X1970040Y1547300*
X1970495Y1546987*
X1971404*
X1971859Y1547300*
X1972313Y1547925*
X1972540Y1548550*
X1974586Y1552300D02*
X1975040Y1552612D01*
X1975722Y1553550*
Y1546987*
X1980040Y1553550D02*
X1977768Y1549175D01*
X1981177*
X1980040Y1553550D02*
Y1546987D01*
X1986540Y1626987D02*
X1986313Y1627612D01*
X1985859Y1628237*
X1985404Y1628550*
X1984495*
X1984040Y1628237*
X1983586Y1627612*
X1983359Y1626987*
X1983131Y1626050*
Y1624487*
X1983359Y1623550*
X1983586Y1622925*
X1984040Y1622300*
X1984495Y1621987*
X1985404*
X1985859Y1622300*
X1986313Y1622925*
X1986540Y1623550*
X1988586Y1627300D02*
X1989040Y1627612D01*
X1989722Y1628550*
Y1621987*
X1994722Y1628550D02*
X1992449D01*
X1992449D02*
X1992222Y1625737D01*
X1992449Y1626050*
X1992449D02*
X1993131Y1626362D01*
X1993813*
X1994495Y1626050*
X1994949Y1625425*
X1994949D02*
X1995177Y1624487D01*
X1994949Y1623862*
X1994949D02*
X1994722Y1622925D01*
X1994268Y1622300*
X1993586Y1621987*
X1992904*
X1992222Y1622300*
X1991995Y1622612*
X1991768Y1623237*
X2065640Y1575487D02*
X2065413Y1576112D01*
X2064959Y1576737*
X2064504Y1577050*
X2063595*
X2063140Y1576737*
X2062686Y1576112*
X2062459Y1575487*
X2062231Y1574550*
Y1572987*
X2062459Y1572050*
X2062686Y1571425*
X2063140Y1570800*
X2063595Y1570487*
X2064504*
X2064959Y1570800*
X2065413Y1571425*
X2065640Y1572050*
X2067913Y1575487D02*
Y1575800D01*
X2068140Y1576425*
X2068368Y1576737*
X2068822Y1577050*
X2069731*
X2070186Y1576737*
X2070413Y1576425*
X2070640Y1575800*
Y1575175*
X2070413Y1574550*
X2069959Y1573612*
X2067686Y1570487*
X2070868*
X2106640Y1587287D02*
X2106413Y1587912D01*
X2105959Y1588537*
X2105504Y1588850*
X2104595*
X2104140Y1588537*
X2103686Y1587912*
X2103459Y1587287*
X2103231Y1586350*
Y1584787*
X2103459Y1583850*
X2103686Y1583225*
X2104140Y1582600*
X2104595Y1582287*
X2105504*
X2105959Y1582600*
X2106413Y1583225*
X2106640Y1583850*
X2109140Y1588850D02*
X2111640D01*
X2110277Y1586350*
X2110959*
X2111413Y1586037*
X2111640Y1585725*
X2111868Y1584787*
Y1584162*
X2111640Y1583225*
X2111186Y1582600*
X2110504Y1582287*
X2109822*
X2109140Y1582600*
X2108913Y1582912*
X2108686Y1583537*
X2105940Y1597487D02*
X2105713Y1598112D01*
X2105259Y1598737*
X2104804Y1599050*
X2103895*
X2103440Y1598737*
X2102986Y1598112*
X2102759Y1597487*
X2102531Y1596550*
Y1594987*
X2102759Y1594050*
X2102986Y1593425*
X2103440Y1592800*
X2103895Y1592487*
X2104804*
X2105259Y1592800*
X2105713Y1593425*
X2105940Y1594050*
X2110259Y1599050D02*
X2107986Y1594675D01*
X2111395*
X2110259Y1599050D02*
Y1592487D01*
X1979340Y1709587D02*
X1979113Y1710212D01*
X1978659Y1710837*
X1978204Y1711150*
X1977295*
X1976840Y1710837*
X1976386Y1710212*
X1976159Y1709587*
X1975931Y1708650*
Y1707087*
X1976159Y1706150*
X1976386Y1705525*
X1976840Y1704900*
X1977295Y1704587*
X1978204*
X1978659Y1704900*
X1979113Y1705525*
X1979340Y1706150*
X1984340Y1711150D02*
X1982068D01*
X1981840Y1708337*
X1982068Y1708650*
X1982749Y1708962*
X1982749D02*
X1983431D01*
X1984113Y1708650*
X1984568Y1708025*
X1984795Y1707087*
X1984568Y1706462*
X1984340Y1705525*
X1983886Y1704900*
X1983204Y1704587*
X1982522*
X1981840Y1704900*
X1981613Y1705212*
X1981386Y1705837*
X2110340Y1655887D02*
X2110113Y1656512D01*
X2109659Y1657137*
X2109204Y1657450*
X2108295*
X2107840Y1657137*
X2107386Y1656512*
X2107159Y1655887*
X2106931Y1654950*
Y1653387*
X2107159Y1652450*
X2107386Y1651825*
X2107840Y1651200*
X2108295Y1650887*
X2109204*
X2109659Y1651200*
X2110113Y1651825*
X2110340Y1652450*
X2115113Y1656512D02*
X2114886Y1657137D01*
X2114204Y1657450*
X2113749*
X2113749D02*
X2113068Y1657137D01*
X2112613Y1656200*
X2112386Y1654637*
Y1653075*
X2112613Y1651825*
X2113068Y1651200*
X2113749Y1650887*
X2113749D02*
X2113977D01*
X2114659Y1651200*
X2115113Y1651825*
X2115340Y1652762*
Y1653075*
X2115113Y1654012*
X2114659Y1654637*
X2113977Y1654950*
X2113749*
X2113749D02*
X2113068Y1654637D01*
X2112613Y1654012*
X2112386Y1653075*
X2059140Y1655187D02*
X2058913Y1655812D01*
X2058459Y1656437*
X2058004Y1656750*
X2057095*
X2056640Y1656437*
X2056186Y1655812*
X2055959Y1655187*
X2055731Y1654250*
Y1652687*
X2055959Y1651750*
X2056186Y1651125*
X2056640Y1650500*
X2057095Y1650187*
X2058004*
X2058459Y1650500*
X2058913Y1651125*
X2059140Y1651750*
X2064368Y1656750D02*
X2062095Y1650187D01*
X2061186Y1656750D02*
X2064368D01*
X2053340Y1630887D02*
X2053113Y1631512D01*
X2052659Y1632137*
X2052204Y1632450*
X2051295*
X2050840Y1632137*
X2050386Y1631512*
X2050159Y1630887*
X2049931Y1629950*
Y1628387*
X2050159Y1627450*
X2050386Y1626825*
X2050840Y1626200*
X2051295Y1625887*
X2052204*
X2052659Y1626200*
X2053113Y1626825*
X2053340Y1627450*
X2056522Y1632450D02*
X2055840Y1632137D01*
X2055613Y1631512*
Y1630887*
X2055840Y1630262*
X2056295Y1629950*
X2057204Y1629637*
X2057886Y1629325*
X2058340Y1628700*
X2058568Y1628075*
Y1627137*
X2058340Y1626512*
X2058113Y1626200*
X2057431Y1625887*
X2056522*
X2055840Y1626200*
X2055613Y1626512*
X2055386Y1627137*
Y1628075*
X2055613Y1628700*
X2056068Y1629325*
X2056749Y1629637*
X2056749D02*
X2057659Y1629950D01*
X2058113Y1630262*
X2058340Y1630887*
Y1631512*
X2058113Y1632137*
X2057431Y1632450*
X2056522*
X2018140Y1654087D02*
X2017913Y1654712D01*
X2017459Y1655337*
X2017004Y1655650*
X2016095*
X2015640Y1655337*
X2015186Y1654712*
X2014959Y1654087*
X2014731Y1653150*
Y1651587*
X2014959Y1650650*
X2015186Y1650025*
X2015640Y1649400*
X2016095Y1649087*
X2017004*
X2017459Y1649400*
X2017913Y1650025*
X2018140Y1650650*
X2023140Y1653462D02*
X2022913Y1652525D01*
X2022459Y1651900*
X2021777Y1651587*
X2021549*
X2021549D02*
X2020868Y1651900D01*
X2020413Y1652525*
X2020186Y1653462*
Y1653775*
X2020413Y1654712*
X2020868Y1655337*
X2021549Y1655650*
X2021549D02*
X2021777D01*
X2022459Y1655337*
X2022913Y1654712*
X2023140Y1653462*
Y1651900*
X2022913Y1650337*
X2022459Y1649400*
X2021777Y1649087*
X2021322*
X2020640Y1649400*
X2020413Y1650025*
X2121409Y1621843D02*
X2120954Y1621531D01*
X2120500Y1620906*
X2120500D02*
X2120272Y1620281D01*
X2120045Y1619343*
Y1617781*
X2120272Y1616843*
X2120500Y1616218*
X2120500D02*
X2120954Y1615593D01*
X2121409Y1615281*
X2122318*
X2122772Y1615593*
X2123227Y1616218*
X2123454Y1616843*
X2123681Y1617781*
Y1619343*
X2123454Y1620281*
X2123227Y1620906*
X2122772Y1621531*
X2122318Y1621843*
X2121409*
X2122090Y1616531D02*
X2123454Y1614656D01*
X2125954Y1620281D02*
Y1620593D01*
X2126181Y1621218*
X2126409Y1621531*
X2126863Y1621843*
X2127772*
X2128227Y1621531*
X2128454Y1621218*
X2128681Y1620593*
Y1619968*
X2128454Y1619343*
X2128000Y1618406*
X2128000D02*
X2125727Y1615281D01*
X2128909*
X2039531Y1656250D02*
Y1649687D01*
Y1656250D02*
X2041122D01*
X2041804Y1655937*
X2042259Y1655312*
X2042486Y1654687*
X2042713Y1653750*
Y1652187*
X2042486Y1651250*
X2042259Y1650625*
X2041804Y1650000*
X2041122Y1649687*
X2039531*
X2044759Y1655000D02*
X2045213Y1655312D01*
X2045895Y1656250*
Y1649687*
X1994531Y1659350D02*
Y1652787D01*
Y1659350D02*
X1996122D01*
X1996804Y1659037*
X1997259Y1658412*
X1997486Y1657787*
X1997713Y1656850*
Y1655287*
X1997486Y1654350*
X1997259Y1653725*
X1996804Y1653100*
X1996122Y1652787*
X1994531*
X1999986Y1657787D02*
Y1658100D01*
X2000213Y1658725*
X2000440Y1659037*
X2000895Y1659350*
X2001804*
X2002259Y1659037*
X2002486Y1658725*
X2002713Y1658100*
Y1657475*
X2002486Y1656850*
X2002031Y1655912*
X1999759Y1652787*
X2002940*
X2072131Y1528150D02*
Y1521587D01*
Y1528150D02*
X2073722D01*
X2074404Y1527837*
X2074859Y1527212*
X2075086Y1526587*
X2075313Y1525650*
Y1524087*
X2075086Y1523150*
X2074859Y1522525*
X2074404Y1521900*
X2073722Y1521587*
X2072131*
X2077813Y1528150D02*
X2080313D01*
X2078949Y1525650*
X2078949D02*
X2079631D01*
X2080086Y1525337*
X2080313Y1525025*
X2080540Y1524087*
Y1523462*
X2080313Y1522525*
X2079859Y1521900*
X2079177Y1521587*
X2078495*
X2077813Y1521900*
X2077586Y1522212*
X2077359Y1522837*
X1995131Y1547550D02*
Y1542862D01*
X1995359Y1541925*
X1995813Y1541300*
X1996495Y1540987*
X1996950*
X1996950D02*
X1997631Y1541300D01*
X1998086Y1541925*
X1998313Y1542862*
Y1547550*
X2000359Y1546300D02*
X2000813Y1546612D01*
X2001495Y1547550*
Y1540987*
X2087631Y1538850D02*
Y1532287D01*
Y1538850D02*
X2089677D01*
X2090359Y1538537*
X2090586Y1538225*
X2090813Y1537600*
Y1536975*
X2090586Y1536350*
X2090359Y1536037*
X2089677Y1535725*
X2087631*
X2089222D02*
X2090813Y1532287D01*
X2092859Y1537600D02*
X2093313Y1537912D01*
X2093995Y1538850*
Y1532287*
X1991531Y1642650D02*
Y1636087D01*
Y1642650D02*
X1993577D01*
X1994259Y1642337*
X1994486Y1642025*
X1994713Y1641400*
Y1640775*
X1994486Y1640150*
X1994259Y1639837*
X1993577Y1639525*
X1991531*
X1993122D02*
X1994713Y1636087D01*
X1996759Y1641400D02*
X1997213Y1641712D01*
X1997895Y1642650*
Y1636087*
X2001304Y1642650D02*
X2000622Y1642337D01*
X2000168Y1641400*
X1999940Y1639837*
Y1638900*
X2000168Y1637337*
X2000622Y1636400*
X2001304Y1636087*
X2001759*
X2002440Y1636400*
X2002895Y1637337*
X2003122Y1638900*
Y1639837*
X2002895Y1641400*
X2002440Y1642337*
X2001759Y1642650*
X2001304*
X1949931Y1564950D02*
Y1558387D01*
Y1564950D02*
X1951977D01*
X1952659Y1564637*
X1952886Y1564325*
X1953113Y1563700*
Y1563075*
X1952886Y1562450*
X1952659Y1562137*
X1951977Y1561825*
X1949931*
X1951522D02*
X1953113Y1558387D01*
X1955159Y1563700D02*
X1955613Y1564012D01*
X1956295Y1564950*
Y1558387*
X1958340Y1563700D02*
X1958795Y1564012D01*
X1959477Y1564950*
Y1558387*
X1938231Y1610250D02*
Y1603687D01*
Y1610250D02*
X1940277D01*
X1940959Y1609937*
X1941186Y1609625*
X1941413Y1609000*
Y1608375*
X1941186Y1607750*
X1940959Y1607437*
X1940277Y1607125*
X1938231*
X1939822D02*
X1941413Y1603687D01*
X1943459Y1609000D02*
X1943913Y1609312D01*
X1944595Y1610250*
Y1603687*
X1946868Y1608687D02*
Y1609000D01*
X1947095Y1609625*
X1947322Y1609937*
X1947777Y1610250*
X1948686*
X1949140Y1609937*
X1949368Y1609625*
X1949595Y1609000*
Y1608375*
X1949368Y1607750*
X1948913Y1606812*
X1946640Y1603687*
X1949822*
X1951131Y1604650D02*
Y1598087D01*
Y1604650D02*
X1953177D01*
X1953859Y1604337*
X1954086Y1604025*
X1954313Y1603400*
Y1602775*
X1954086Y1602150*
X1953859Y1601837*
X1953177Y1601525*
X1951131*
X1952722D02*
X1954313Y1598087D01*
X1956359Y1603400D02*
X1956813Y1603712D01*
X1957495Y1604650*
Y1598087*
X1959995Y1604650D02*
X1962495D01*
X1961131Y1602150*
X1961813*
X1962268Y1601837*
X1962495Y1601525*
X1962722Y1600587*
Y1599962*
X1962495Y1599025*
X1962040Y1598400*
X1961359Y1598087*
X1960677*
X1959995Y1598400*
X1959768Y1598712*
X1959540Y1599337*
X2018631Y1534350D02*
Y1527787D01*
Y1534350D02*
X2020677D01*
X2021359Y1534037*
X2021586Y1533725*
X2021813Y1533100*
Y1532475*
X2021586Y1531850*
X2021359Y1531537*
X2020677Y1531225*
X2018631*
X2020222D02*
X2021813Y1527787D01*
X2023859Y1533100D02*
X2024313Y1533412D01*
X2024995Y1534350*
Y1527787*
X2029313Y1534350D02*
X2027040Y1529975D01*
X2030449*
X2029313Y1534350D02*
Y1527787D01*
X2048131Y1546850D02*
Y1540287D01*
Y1546850D02*
X2050177D01*
X2050859Y1546537*
X2051086Y1546225*
X2051313Y1545600*
Y1544975*
X2051086Y1544350*
X2050859Y1544037*
X2050177Y1543725*
X2048131*
X2049722D02*
X2051313Y1540287D01*
X2053359Y1545600D02*
X2053813Y1545912D01*
X2054495Y1546850*
Y1540287*
X2059495Y1546850D02*
X2057222D01*
X2056995Y1544037*
X2057222Y1544350*
X2057904Y1544662*
X2058586*
X2059268Y1544350*
X2059722Y1543725*
X2059949Y1542787*
X2059949D02*
X2059722Y1542162D01*
X2059495Y1541225*
X2059040Y1540600*
X2058359Y1540287*
X2057677*
X2056995Y1540600*
X2056768Y1540912*
X2056540Y1541537*
X2057231Y1554950D02*
Y1548387D01*
Y1554950D02*
X2059277D01*
X2059959Y1554637*
X2060186Y1554325*
X2060413Y1553700*
Y1553075*
X2060186Y1552450*
X2059959Y1552137*
X2059277Y1551825*
X2057231*
X2058822D02*
X2060413Y1548387D01*
X2062686Y1553387D02*
Y1553700D01*
X2062913Y1554325*
X2063140Y1554637*
X2063595Y1554950*
X2064504*
X2064959Y1554637*
X2065186Y1554325*
X2065413Y1553700*
Y1553075*
X2065186Y1552450*
X2064731Y1551512*
X2062459Y1548387*
X2065640*
X2102931Y1546950D02*
Y1540387D01*
Y1546950D02*
X2104977D01*
X2105659Y1546637*
X2105886Y1546325*
X2106113Y1545700*
Y1545075*
X2105886Y1544450*
X2105659Y1544137*
X2104977Y1543825*
X2102931*
X2104522D02*
X2106113Y1540387D01*
X2108613Y1546950D02*
X2111113D01*
X2109749Y1544450*
X2109749D02*
X2110431D01*
X2110886Y1544137*
X2111113Y1543825*
X2111340Y1542887*
Y1542262*
X2111113Y1541325*
X2110659Y1540700*
X2109977Y1540387*
X2109295*
X2108613Y1540700*
X2108386Y1541012*
X2108159Y1541637*
X2103631Y1556950D02*
Y1550387D01*
Y1556950D02*
X2105677D01*
X2106359Y1556637*
X2106586Y1556325*
X2106813Y1555700*
Y1555075*
X2106586Y1554450*
X2106359Y1554137*
X2105677Y1553825*
X2103631*
X2105222D02*
X2106813Y1550387D01*
X2111131Y1556950D02*
X2108859Y1552575D01*
X2112268*
X2111131Y1556950D02*
Y1550387D01*
X2105031Y1566650D02*
Y1560087D01*
Y1566650D02*
X2107077D01*
X2107759Y1566337*
X2107986Y1566025*
X2108213Y1565400*
Y1564775*
X2107986Y1564150*
X2107759Y1563837*
X2107077Y1563525*
X2105031*
X2106622D02*
X2108213Y1560087D01*
X2113213Y1566650D02*
X2110940D01*
X2110713Y1563837*
X2110940Y1564150*
X2111622Y1564462*
X2112304*
X2112986Y1564150*
X2113440Y1563525*
X2113668Y1562587*
X2113440Y1561962*
X2113213Y1561025*
X2112759Y1560400*
X2112077Y1560087*
X2111395*
X2110713Y1560400*
X2110486Y1560712*
X2110259Y1561337*
X2104631Y1575950D02*
Y1569387D01*
Y1575950D02*
X2106677D01*
X2107359Y1575637*
X2107586Y1575325*
X2107813Y1574700*
Y1574075*
X2107586Y1573450*
X2107359Y1573137*
X2106677Y1572825*
X2104631*
X2106222D02*
X2107813Y1569387D01*
X2112586Y1575012D02*
X2112359Y1575637D01*
X2111677Y1575950*
X2111222*
X2110540Y1575637*
X2110086Y1574700*
X2109859Y1573137*
Y1571575*
X2110086Y1570325*
X2110540Y1569700*
X2111222Y1569387*
X2111449*
X2111449D02*
X2112131Y1569700D01*
X2112586Y1570325*
X2112813Y1571262*
Y1571575*
X2112586Y1572512*
X2112131Y1573137*
X2111449Y1573450*
X2111449D02*
X2111222D01*
X2110540Y1573137*
X2110086Y1572512*
X2109859Y1571575*
X2067331Y1601850D02*
Y1595287D01*
Y1601850D02*
X2069377D01*
X2070059Y1601537*
X2070286Y1601225*
X2070513Y1600600*
Y1599975*
X2070286Y1599350*
X2070059Y1599037*
X2069377Y1598725*
X2067331*
X2068922D02*
X2070513Y1595287D01*
X2075740Y1601850D02*
X2073468Y1595287D01*
X2072559Y1601850D02*
X2075740D01*
X2088831Y1617150D02*
Y1610587D01*
Y1617150D02*
X2090877D01*
X2091559Y1616837*
X2091786Y1616525*
X2092013Y1615900*
Y1615275*
X2091786Y1614650*
X2091559Y1614337*
X2090877Y1614025*
X2088831*
X2090422D02*
X2092013Y1610587D01*
X2095195Y1617150D02*
X2094513Y1616837D01*
X2094286Y1616212*
Y1615587*
X2094513Y1614962*
X2094968Y1614650*
X2095877Y1614337*
X2096559Y1614025*
X2097013Y1613400*
X2097240Y1612775*
Y1611837*
X2097013Y1611212*
X2096786Y1610900*
X2096104Y1610587*
X2095195*
X2094513Y1610900*
X2094286Y1611212*
X2094059Y1611837*
Y1612775*
X2094286Y1613400*
X2094740Y1614025*
X2095422Y1614337*
X2096331Y1614650*
X2096786Y1614962*
X2097013Y1615587*
Y1616212*
X2096786Y1616837*
X2096104Y1617150*
X2095195*
X2031431Y1631050D02*
Y1624487D01*
Y1631050D02*
X2033477D01*
X2034159Y1630737*
X2034386Y1630425*
X2034613Y1629800*
Y1629175*
X2034386Y1628550*
X2034159Y1628237*
X2033477Y1627925*
X2031431*
X2033022D02*
X2034613Y1624487D01*
X2039613Y1628862D02*
X2039386Y1627925D01*
X2038931Y1627300*
X2038250Y1626987*
X2038250D02*
X2038022D01*
X2037340Y1627300*
X2036886Y1627925*
X2036659Y1628862*
Y1629175*
X2036886Y1630112*
X2037340Y1630737*
X2038022Y1631050*
X2038250*
X2038250D02*
X2038931Y1630737D01*
X2039386Y1630112*
X2039613Y1628862*
Y1627300*
X2039386Y1625737*
X2038931Y1624800*
X2038250Y1624487*
X2038250D02*
X2037795D01*
X2037113Y1624800*
X2036886Y1625425*
X2039113Y1708412D02*
X2038659Y1709037D01*
X2037977Y1709350*
X2037068*
X2036386Y1709037*
X2035931Y1708412*
Y1707787*
X2036159Y1707162*
X2036386Y1706850*
X2036840Y1706537*
X2038204Y1705912*
X2038659Y1705600*
X2038886Y1705287*
X2039113Y1704662*
Y1703725*
X2038659Y1703100*
X2037977Y1702787*
X2037068*
X2036386Y1703100*
X2035931Y1703725*
X2041613Y1709350D02*
X2044113D01*
X2042749Y1706850*
X2042749D02*
X2043431D01*
X2043886Y1706537*
X2044113Y1706225*
X2044340Y1705287*
Y1704662*
X2044113Y1703725*
X2043659Y1703100*
X2042977Y1702787*
X2042295*
X2041613Y1703100*
X2041386Y1703412*
X2041159Y1704037*
X1928113Y1649512D02*
X1927659Y1650137D01*
X1926977Y1650450*
X1926068*
X1925386Y1650137*
X1924931Y1649512*
Y1648887*
X1925159Y1648262*
X1925386Y1647950*
X1925840Y1647637*
X1927204Y1647012*
X1927659Y1646700*
X1927886Y1646387*
X1928113Y1645762*
Y1644825*
X1927659Y1644200*
X1926977Y1643887*
X1926068*
X1925386Y1644200*
X1924931Y1644825*
X1930159Y1649200D02*
X1930613Y1649512D01*
X1931295Y1650450*
Y1643887*
X1968013Y1650412D02*
X1967559Y1651037D01*
X1966877Y1651350*
X1965968*
X1965286Y1651037*
X1964831Y1650412*
Y1649787*
X1965059Y1649162*
X1965286Y1648850*
X1965740Y1648537*
X1967104Y1647912*
X1967559Y1647600*
X1967786Y1647287*
X1968013Y1646662*
Y1645725*
X1967559Y1645100*
X1966877Y1644787*
X1965968*
X1965286Y1645100*
X1964831Y1645725*
X1970286Y1649787D02*
Y1650100D01*
X1970513Y1650725*
X1970740Y1651037*
X1971195Y1651350*
X1972104*
X1972559Y1651037*
X1972786Y1650725*
X1973013Y1650100*
Y1649475*
X1972786Y1648850*
X1972331Y1647912*
X1970059Y1644787*
X1973240*
G54D47*
X2115472Y1625953D02*
Y1620835D01*
X2070590*
Y1625953*
X2115472Y1634221D02*
Y1639339D01*
X2070590*
Y1634221*
G54D48*
X1863582Y1682902D02*
Y1679555D01*
Y1679358*
X1891142Y1682902D02*
Y1679358D01*
X1856693Y1682114D02*
X1895079D01*
X1861614Y1677587D02*
G03X1863582Y1679556I-0J1969D01*
G01X1862008Y1676406D02*
G03X1865157Y1679556I-0J3150D01*
G01Y1679555D02*
Y1680736D01*
X1866338*
Y1680737D02*
G03X1867913Y1679162I1575J0D01*
G01X1891142Y1682902D02*
Y1679555D01*
Y1679358*
Y1679556D02*
G03X1893111Y1677587I1969J-0D01*
G01X1889567Y1679556D02*
G03X1892717Y1676406I3150J-0D01*
G01X1889567Y1679555D02*
Y1680736D01*
X1888386*
X1886811Y1679162D02*
G03X1888386Y1680737I0J1575D01*
G01X1867913Y1679162D02*
X1886417D01*
X2016431Y1502368D02*
Y1500025D01*
X2016545Y1499556*
X2016772Y1499243*
X2017113Y1499087*
X2017340*
X2017681Y1499243*
X2017909Y1499556*
X2018022Y1500025*
Y1502368*
X2019272D02*
X2020522D01*
X2019840Y1501118*
X2020181*
X2020409Y1500962*
X2020522Y1500806*
X2020636Y1500337*
Y1500025*
X2020522Y1499556*
X2020295Y1499243*
X2019954Y1499087*
X2019613*
X2019272Y1499243*
X2019159Y1499400*
X2019045Y1499712*
G54D49*
X1860555Y1673361D02*
Y1670074D01*
Y1673361D02*
X1861579D01*
X1861921Y1673204*
X1862035Y1673048*
X1862148Y1672735*
Y1672422*
X1862035Y1672109*
X1861921Y1671952*
X1861579Y1671796*
X1860555*
X1861352D02*
X1862148Y1670074D01*
X1863173Y1671326D02*
X1864539D01*
Y1671639*
X1864425Y1671952*
X1864311Y1672109*
X1864084Y1672265*
X1863742*
X1863514Y1672109*
X1863287Y1671796*
X1863173Y1671326*
Y1671013*
X1863287Y1670543*
X1863514Y1670230*
X1863742Y1670074*
X1864084*
X1864311Y1670230*
X1864539Y1670543*
X1866474Y1673361D02*
X1866247D01*
X1866019Y1673204*
X1865905Y1672735*
Y1670074*
X1865564Y1672265D02*
X1866361D01*
X1867613Y1670387D02*
X1867499Y1670230D01*
X1867613Y1670074*
X1867727Y1670230*
X1867613Y1670387*
X1868751Y1673361D02*
Y1670074D01*
Y1673361D02*
X1869548D01*
X1869890Y1673204*
X1870117Y1672891*
X1870231Y1672578*
X1870345Y1672109*
Y1671326*
X1870231Y1670856*
X1870117Y1670543*
X1869890Y1670230*
X1869548Y1670074*
X1868751*
X1871370Y1671326D02*
X1872736D01*
Y1671639*
X1872622Y1671952*
X1872508Y1672109*
X1872280Y1672265*
X1871939*
X1871711Y1672109*
X1871483Y1671796*
X1871370Y1671326*
Y1671013*
X1871483Y1670543*
X1871711Y1670230*
X1871939Y1670074*
X1872280*
X1872508Y1670230*
X1872736Y1670543*
X1875012Y1671796D02*
X1874899Y1672109D01*
X1874557Y1672265*
X1874216*
X1873874Y1672109*
X1873760Y1671796*
X1873874Y1671483*
X1874102Y1671326*
X1874671Y1671169*
X1874899Y1671013*
X1875012Y1670700*
Y1670543*
X1874899Y1670230*
X1874557Y1670074*
X1874216*
X1873874Y1670230*
X1873760Y1670543*
X1876151Y1670387D02*
X1876037Y1670230D01*
X1876151Y1670074*
X1876265Y1670230*
X1876151Y1670387*
X1877289Y1671952D02*
X1879338D01*
X1877289Y1671013D02*
X1879338D01*
X1880363Y1673361D02*
Y1671013D01*
X1880477Y1670543*
X1880704Y1670230*
X1881046Y1670074*
X1881274*
X1881615Y1670230*
X1881843Y1670543*
X1881957Y1671013*
Y1673361*
X1883550D02*
X1883209Y1673204D01*
X1883095Y1672891*
Y1672578*
X1883209Y1672265*
X1883437Y1672109*
X1883892Y1671952*
X1884234Y1671796*
X1884461Y1671483*
X1884575Y1671169*
Y1670700*
X1884461Y1670387*
X1884347Y1670230*
X1884006Y1670074*
X1883550*
X1883209Y1670230*
X1883095Y1670387*
X1882981Y1670700*
Y1671169*
X1883095Y1671483*
X1883323Y1671796*
X1883664Y1671952*
X1884120Y1672109*
X1884347Y1672265*
X1884461Y1672578*
Y1672891*
X1884347Y1673204*
X1884006Y1673361*
X1883550*
G74*
X0Y0D02*
M02*
